<svg width="900" height="1288" viewBox="0 0 900 1288" fill="none" xmlns="http://www.w3.org/2000/svg">
<path d="M496.055 251H508.5C510.375 251 512.062 250.789 513.562 250.367C515.062 249.945 516.336 249.312 517.383 248.469C518.43 247.625 519.234 246.578 519.797 245.328C520.359 244.078 520.641 242.633 520.641 240.992C520.641 240.133 520.523 239.305 520.289 238.508C520.07 237.695 519.727 236.945 519.258 236.258C518.805 235.617 518.242 235.055 517.57 234.57C516.914 234.086 516.023 233.688 514.898 233.375V233.352C515.477 233.133 516 232.867 516.469 232.555C516.953 232.242 517.383 231.898 517.758 231.523C518.445 230.836 518.961 230.039 519.305 229.133C519.664 228.211 519.852 227.234 519.867 226.203C519.867 224.609 519.57 223.227 518.977 222.055C518.398 220.883 517.57 219.914 516.492 219.148C515.414 218.383 514.109 217.812 512.578 217.438C511.062 217.062 509.375 216.875 507.516 216.875H496.055V251ZM502.664 235.953H508.805C509.727 235.969 510.523 236.094 511.195 236.328C511.867 236.562 512.414 236.898 512.836 237.336C513.258 237.758 513.562 238.273 513.75 238.883C513.953 239.492 514.055 240.18 514.055 240.945C514.055 241.68 513.922 242.344 513.656 242.938C513.406 243.531 513.031 244.039 512.531 244.461C512.078 244.836 511.508 245.133 510.82 245.352C510.148 245.57 509.383 245.68 508.523 245.68H502.664V235.953ZM502.664 231.195V222.242H507.539C508.602 222.258 509.523 222.375 510.305 222.594C511.102 222.812 511.734 223.164 512.203 223.648C512.562 223.992 512.828 224.422 513 224.938C513.188 225.453 513.281 226.055 513.281 226.742C513.281 227.398 513.172 227.984 512.953 228.5C512.75 229.016 512.453 229.453 512.062 229.812C511.594 230.266 510.977 230.609 510.211 230.844C509.445 231.062 508.562 231.18 507.562 231.195H502.664ZM543.375 225.172C541.672 225.172 540.102 225.586 538.664 226.414C537.227 227.227 535.992 228.352 534.961 229.789L534.914 229.227L534.656 225.641H528.586V251H535.102V235.766C535.398 235.047 535.773 234.422 536.227 233.891C536.68 233.359 537.227 232.922 537.867 232.578C538.398 232.281 539 232.062 539.672 231.922C540.359 231.766 541.125 231.688 541.969 231.688C542.781 231.688 543.633 231.742 544.523 231.852C545.43 231.945 546.312 232.094 547.172 232.297L548.133 225.805C547.617 225.648 546.938 225.508 546.094 225.383C545.266 225.242 544.359 225.172 543.375 225.172ZM569.836 251H576.445V250.602C576.117 249.961 575.867 249.195 575.695 248.305C575.523 247.414 575.438 246.289 575.438 244.93V234.055C575.438 232.586 575.164 231.297 574.617 230.188C574.07 229.062 573.312 228.133 572.344 227.398C571.375 226.664 570.227 226.109 568.898 225.734C567.586 225.359 566.164 225.172 564.633 225.172C562.93 225.172 561.414 225.391 560.086 225.828C558.773 226.25 557.664 226.828 556.758 227.562C555.836 228.297 555.133 229.148 554.648 230.117C554.18 231.086 553.945 232.109 553.945 233.188H560.461C560.461 232.734 560.523 232.32 560.648 231.945C560.789 231.57 561 231.25 561.281 230.984C561.594 230.688 562 230.461 562.5 230.305C563 230.133 563.594 230.047 564.281 230.047C565.062 230.047 565.742 230.148 566.32 230.352C566.914 230.539 567.406 230.812 567.797 231.172C568.172 231.516 568.453 231.93 568.641 232.414C568.828 232.883 568.922 233.414 568.922 234.008V235.508H565.289C563.414 235.508 561.75 235.68 560.297 236.023C558.859 236.352 557.648 236.836 556.664 237.477C555.57 238.18 554.75 239.078 554.203 240.172C553.656 241.25 553.383 242.492 553.383 243.898C553.383 244.992 553.602 246.008 554.039 246.945C554.477 247.867 555.086 248.664 555.867 249.336C556.648 250.008 557.578 250.531 558.656 250.906C559.75 251.281 560.945 251.469 562.242 251.469C563.039 251.469 563.781 251.391 564.469 251.234C565.156 251.094 565.789 250.891 566.367 250.625C566.93 250.375 567.445 250.078 567.914 249.734C568.383 249.391 568.797 249.023 569.156 248.633C569.234 249.086 569.328 249.516 569.438 249.922C569.547 250.328 569.68 250.688 569.836 251ZM563.625 246.43C563.016 246.43 562.477 246.359 562.008 246.219C561.555 246.062 561.172 245.859 560.859 245.609C560.547 245.344 560.305 245.023 560.133 244.648C559.977 244.258 559.898 243.836 559.898 243.383C559.898 242.805 560.008 242.273 560.227 241.789C560.445 241.289 560.781 240.859 561.234 240.5C561.688 240.156 562.273 239.891 562.992 239.703C563.711 239.5 564.578 239.398 565.594 239.398H568.922V243.758C568.734 244.086 568.477 244.414 568.148 244.742C567.82 245.055 567.43 245.336 566.977 245.586C566.523 245.836 566.016 246.039 565.453 246.195C564.891 246.352 564.281 246.43 563.625 246.43ZM584.555 225.641V230.961H591.773V245.703H584.555V251H605.227V245.703H598.359V225.641H584.555ZM591.305 219.148C591.305 219.648 591.391 220.117 591.562 220.555C591.75 220.977 592.008 221.336 592.336 221.633C592.664 221.945 593.055 222.188 593.508 222.359C593.977 222.531 594.492 222.617 595.055 222.617C596.211 222.617 597.125 222.297 597.797 221.656C598.484 221 598.828 220.164 598.828 219.148C598.828 218.133 598.484 217.305 597.797 216.664C597.125 216.008 596.211 215.68 595.055 215.68C594.492 215.68 593.977 215.766 593.508 215.938C593.055 216.109 592.664 216.344 592.336 216.641C592.008 216.953 591.75 217.328 591.562 217.766C591.391 218.188 591.305 218.648 591.305 219.148ZM611.648 251H618.188V232.977C618.406 232.633 618.648 232.32 618.914 232.039C619.18 231.758 619.477 231.516 619.805 231.312C620.211 231.031 620.672 230.82 621.188 230.68C621.719 230.539 622.297 230.469 622.922 230.469C623.672 230.469 624.344 230.547 624.938 230.703C625.531 230.844 626.039 231.102 626.461 231.477C626.883 231.852 627.203 232.367 627.422 233.023C627.656 233.664 627.773 234.484 627.773 235.484V251H634.289V235.391C634.289 233.547 634.07 231.984 633.633 230.703C633.211 229.406 632.617 228.344 631.852 227.516C631.07 226.703 630.148 226.109 629.086 225.734C628.023 225.359 626.852 225.172 625.57 225.172C624.57 225.172 623.625 225.312 622.734 225.594C621.844 225.875 621.023 226.281 620.273 226.812C619.836 227.125 619.422 227.477 619.031 227.867C618.641 228.258 618.281 228.688 617.953 229.156L617.555 225.641H611.648V251ZM642.352 251H648.07L650.766 237.453L651.281 234.875L651.82 237.453L654.609 251H660.328L664.875 225.641H658.898L657.023 240.594L656.695 243.055L656.25 240.641L653.508 225.641H649.148L646.406 240.711L645.961 243.125L645.656 240.711L643.758 225.641H637.805L642.352 251ZM687.516 225.172C685.812 225.172 684.242 225.586 682.805 226.414C681.367 227.227 680.133 228.352 679.102 229.789L679.055 229.227L678.797 225.641H672.727V251H679.242V235.766C679.539 235.047 679.914 234.422 680.367 233.891C680.82 233.359 681.367 232.922 682.008 232.578C682.539 232.281 683.141 232.062 683.812 231.922C684.5 231.766 685.266 231.688 686.109 231.688C686.922 231.688 687.773 231.742 688.664 231.852C689.57 231.945 690.453 232.094 691.312 232.297L692.273 225.805C691.758 225.648 691.078 225.508 690.234 225.383C689.406 225.242 688.5 225.172 687.516 225.172ZM699.867 225.641V230.961H707.086V245.703H699.867V251H720.539V245.703H713.672V225.641H699.867ZM706.617 219.148C706.617 219.648 706.703 220.117 706.875 220.555C707.062 220.977 707.32 221.336 707.648 221.633C707.977 221.945 708.367 222.188 708.82 222.359C709.289 222.531 709.805 222.617 710.367 222.617C711.523 222.617 712.438 222.297 713.109 221.656C713.797 221 714.141 220.164 714.141 219.148C714.141 218.133 713.797 217.305 713.109 216.664C712.438 216.008 711.523 215.68 710.367 215.68C709.805 215.68 709.289 215.766 708.82 215.938C708.367 216.109 707.977 216.344 707.648 216.641C707.32 216.953 707.062 217.328 706.875 217.766C706.703 218.188 706.617 218.648 706.617 219.148ZM738.914 219.43H732.398V225.641H726.609V230.445H732.398V241.977C732.398 243.648 732.617 245.086 733.055 246.289C733.492 247.477 734.117 248.453 734.93 249.219C735.727 250 736.688 250.578 737.812 250.953C738.953 251.312 740.219 251.492 741.609 251.492C742.328 251.492 743.055 251.453 743.789 251.375C744.539 251.312 745.258 251.219 745.945 251.094C746.633 250.969 747.281 250.812 747.891 250.625C748.5 250.422 749.031 250.188 749.484 249.922L748.852 245.445C748.555 245.523 748.195 245.602 747.773 245.68C747.367 245.758 746.93 245.828 746.461 245.891C745.977 245.969 745.469 246.031 744.938 246.078C744.422 246.125 743.914 246.148 743.414 246.148C742.727 246.148 742.102 246.07 741.539 245.914C740.992 245.758 740.523 245.492 740.133 245.117C739.742 244.758 739.438 244.273 739.219 243.664C739.016 243.039 738.914 242.266 738.914 241.344V230.445H748.383V225.641H738.914V219.43ZM757.523 225.641V230.961H764.742V245.703H757.523V251H778.195V245.703H771.328V225.641H757.523ZM764.273 219.148C764.273 219.648 764.359 220.117 764.531 220.555C764.719 220.977 764.977 221.336 765.305 221.633C765.633 221.945 766.023 222.188 766.477 222.359C766.945 222.531 767.461 222.617 768.023 222.617C769.18 222.617 770.094 222.297 770.766 221.656C771.453 221 771.797 220.164 771.797 219.148C771.797 218.133 771.453 217.305 770.766 216.664C770.094 216.008 769.18 215.68 768.023 215.68C767.461 215.68 766.945 215.766 766.477 215.938C766.023 216.109 765.633 216.344 765.305 216.641C764.977 216.953 764.719 217.328 764.531 217.766C764.359 218.188 764.273 218.648 764.273 219.148ZM784.617 251H791.156V232.977C791.375 232.633 791.617 232.32 791.883 232.039C792.148 231.758 792.445 231.516 792.773 231.312C793.18 231.031 793.641 230.82 794.156 230.68C794.688 230.539 795.266 230.469 795.891 230.469C796.641 230.469 797.312 230.547 797.906 230.703C798.5 230.844 799.008 231.102 799.43 231.477C799.852 231.852 800.172 232.367 800.391 233.023C800.625 233.664 800.742 234.484 800.742 235.484V251H807.258V235.391C807.258 233.547 807.039 231.984 806.602 230.703C806.18 229.406 805.586 228.344 804.82 227.516C804.039 226.703 803.117 226.109 802.055 225.734C800.992 225.359 799.82 225.172 798.539 225.172C797.539 225.172 796.594 225.312 795.703 225.594C794.812 225.875 793.992 226.281 793.242 226.812C792.805 227.125 792.391 227.477 792 227.867C791.609 228.258 791.25 228.688 790.922 229.156L790.523 225.641H784.617V251ZM812.789 238.133V238.625C812.789 240.469 813.023 242.18 813.492 243.758C813.977 245.32 814.664 246.672 815.555 247.812C816.445 248.953 817.516 249.852 818.766 250.508C820.031 251.148 821.453 251.469 823.031 251.469C823.828 251.469 824.57 251.383 825.258 251.211C825.961 251.039 826.602 250.797 827.18 250.484C827.57 250.266 827.938 250.016 828.281 249.734C828.625 249.453 828.953 249.141 829.266 248.797V250.25C829.266 251.109 829.141 251.883 828.891 252.57C828.656 253.258 828.312 253.836 827.859 254.305C827.359 254.82 826.734 255.211 825.984 255.477C825.25 255.742 824.406 255.875 823.453 255.875C822.859 255.875 822.281 255.812 821.719 255.688C821.172 255.578 820.641 255.406 820.125 255.172C819.594 254.938 819.086 254.633 818.602 254.258C818.117 253.898 817.664 253.477 817.242 252.992L814.312 256.953C814.859 257.656 815.516 258.258 816.281 258.758C817.047 259.273 817.859 259.695 818.719 260.023C819.578 260.352 820.445 260.594 821.32 260.75C822.195 260.906 823.016 260.984 823.781 260.984C825.562 260.984 827.188 260.742 828.656 260.258C830.141 259.789 831.414 259.094 832.477 258.172C833.523 257.25 834.336 256.117 834.914 254.773C835.508 253.43 835.805 251.898 835.805 250.18V225.641H829.875L829.617 228.055C829.305 227.664 828.961 227.312 828.586 227C828.211 226.672 827.805 226.391 827.367 226.156C826.789 225.828 826.141 225.586 825.422 225.43C824.719 225.258 823.938 225.172 823.078 225.172C821.484 225.172 820.055 225.484 818.789 226.109C817.523 226.734 816.445 227.617 815.555 228.758C814.664 229.898 813.977 231.266 813.492 232.859C813.023 234.453 812.789 236.211 812.789 238.133ZM819.328 238.625V238.133C819.328 237.07 819.438 236.078 819.656 235.156C819.875 234.219 820.211 233.398 820.664 232.695C821.102 232.008 821.656 231.469 822.328 231.078C823 230.672 823.797 230.469 824.719 230.469C825.219 230.469 825.68 230.516 826.102 230.609C826.539 230.703 826.938 230.836 827.297 231.008C827.719 231.211 828.094 231.477 828.422 231.805C828.75 232.133 829.031 232.516 829.266 232.953V243.688C829.047 244.078 828.789 244.43 828.492 244.742C828.195 245.055 827.852 245.32 827.461 245.539C827.086 245.742 826.664 245.898 826.195 246.008C825.742 246.117 825.234 246.172 824.672 246.172C823.75 246.172 822.953 245.977 822.281 245.586C821.609 245.195 821.055 244.656 820.617 243.969C820.18 243.297 819.852 242.508 819.633 241.602C819.43 240.68 819.328 239.688 819.328 238.625Z" fill="white"/>
<path d="M550.443 434.15L434.887 234L550.443 33.85H781.557L897.113 234L781.557 434.15H550.443Z" stroke="#3949AB" stroke-width="5"/>
<path d="M79.9688 586.875V592.195H86.4609V615.703H79.9688V621H99.7031V615.703H93.0469V592.195H99.7031V586.875H79.9688ZM107.578 621H114.117V602.977C114.336 602.633 114.578 602.32 114.844 602.039C115.109 601.758 115.406 601.516 115.734 601.312C116.141 601.031 116.602 600.82 117.117 600.68C117.648 600.539 118.227 600.469 118.852 600.469C119.602 600.469 120.273 600.547 120.867 600.703C121.461 600.844 121.969 601.102 122.391 601.477C122.812 601.852 123.133 602.367 123.352 603.023C123.586 603.664 123.703 604.484 123.703 605.484V621H130.219V605.391C130.219 603.547 130 601.984 129.562 600.703C129.141 599.406 128.547 598.344 127.781 597.516C127 596.703 126.078 596.109 125.016 595.734C123.953 595.359 122.781 595.172 121.5 595.172C120.5 595.172 119.555 595.312 118.664 595.594C117.773 595.875 116.953 596.281 116.203 596.812C115.766 597.125 115.352 597.477 114.961 597.867C114.57 598.258 114.211 598.688 113.883 599.156L113.484 595.641H107.578V621ZM148.359 589.43H141.844V595.641H136.055V600.445H141.844V611.977C141.844 613.648 142.062 615.086 142.5 616.289C142.938 617.477 143.562 618.453 144.375 619.219C145.172 620 146.133 620.578 147.258 620.953C148.398 621.312 149.664 621.492 151.055 621.492C151.773 621.492 152.5 621.453 153.234 621.375C153.984 621.312 154.703 621.219 155.391 621.094C156.078 620.969 156.727 620.812 157.336 620.625C157.945 620.422 158.477 620.188 158.93 619.922L158.297 615.445C158 615.523 157.641 615.602 157.219 615.68C156.812 615.758 156.375 615.828 155.906 615.891C155.422 615.969 154.914 616.031 154.383 616.078C153.867 616.125 153.359 616.148 152.859 616.148C152.172 616.148 151.547 616.07 150.984 615.914C150.438 615.758 149.969 615.492 149.578 615.117C149.188 614.758 148.883 614.273 148.664 613.664C148.461 613.039 148.359 612.266 148.359 611.344V600.445H157.828V595.641H148.359V589.43ZM177.539 621.469C179.992 621.469 182.117 620.992 183.914 620.039C185.711 619.086 187.023 618.023 187.852 616.852L184.594 613.336C183.844 614.305 182.867 615.031 181.664 615.516C180.461 616 179.219 616.242 177.938 616.242C177.031 616.242 176.195 616.102 175.43 615.82C174.664 615.539 173.984 615.141 173.391 614.625C172.812 614.125 172.352 613.57 172.008 612.961C171.664 612.336 171.383 611.516 171.164 610.5V610.43H188.367V607.664C188.367 605.805 188.109 604.109 187.594 602.578C187.078 601.031 186.328 599.711 185.344 598.617C184.344 597.523 183.125 596.68 181.688 596.086C180.266 595.477 178.641 595.172 176.812 595.172C175.047 595.172 173.414 595.492 171.914 596.133C170.414 596.773 169.117 597.672 168.023 598.828C166.93 599.984 166.078 601.367 165.469 602.977C164.859 604.57 164.555 606.336 164.555 608.273V609.211C164.555 610.914 164.859 612.516 165.469 614.016C166.094 615.5 166.977 616.789 168.117 617.883C169.258 618.992 170.625 619.867 172.219 620.508C173.812 621.148 175.586 621.469 177.539 621.469ZM176.766 600.445C177.594 600.445 178.32 600.578 178.945 600.844C179.586 601.094 180.125 601.438 180.562 601.875C181 602.328 181.344 602.859 181.594 603.469C181.844 604.078 181.969 604.727 181.969 605.414V605.93H171.281C171.438 605.102 171.672 604.352 171.984 603.68C172.297 603.008 172.688 602.43 173.156 601.945C173.609 601.461 174.141 601.094 174.75 600.844C175.359 600.578 176.031 600.445 176.766 600.445ZM212.273 595.172C210.57 595.172 209 595.586 207.562 596.414C206.125 597.227 204.891 598.352 203.859 599.789L203.812 599.227L203.555 595.641H197.484V621H204V605.766C204.297 605.047 204.672 604.422 205.125 603.891C205.578 603.359 206.125 602.922 206.766 602.578C207.297 602.281 207.898 602.062 208.57 601.922C209.258 601.766 210.023 601.688 210.867 601.688C211.68 601.688 212.531 601.742 213.422 601.852C214.328 601.945 215.211 602.094 216.07 602.297L217.031 595.805C216.516 595.648 215.836 595.508 214.992 595.383C214.164 595.242 213.258 595.172 212.273 595.172ZM238.734 621H245.344V620.602C245.016 619.961 244.766 619.195 244.594 618.305C244.422 617.414 244.336 616.289 244.336 614.93V604.055C244.336 602.586 244.062 601.297 243.516 600.188C242.969 599.062 242.211 598.133 241.242 597.398C240.273 596.664 239.125 596.109 237.797 595.734C236.484 595.359 235.062 595.172 233.531 595.172C231.828 595.172 230.312 595.391 228.984 595.828C227.672 596.25 226.562 596.828 225.656 597.562C224.734 598.297 224.031 599.148 223.547 600.117C223.078 601.086 222.844 602.109 222.844 603.188H229.359C229.359 602.734 229.422 602.32 229.547 601.945C229.688 601.57 229.898 601.25 230.18 600.984C230.492 600.688 230.898 600.461 231.398 600.305C231.898 600.133 232.492 600.047 233.18 600.047C233.961 600.047 234.641 600.148 235.219 600.352C235.812 600.539 236.305 600.812 236.695 601.172C237.07 601.516 237.352 601.93 237.539 602.414C237.727 602.883 237.82 603.414 237.82 604.008V605.508H234.188C232.312 605.508 230.648 605.68 229.195 606.023C227.758 606.352 226.547 606.836 225.562 607.477C224.469 608.18 223.648 609.078 223.102 610.172C222.555 611.25 222.281 612.492 222.281 613.898C222.281 614.992 222.5 616.008 222.938 616.945C223.375 617.867 223.984 618.664 224.766 619.336C225.547 620.008 226.477 620.531 227.555 620.906C228.648 621.281 229.844 621.469 231.141 621.469C231.938 621.469 232.68 621.391 233.367 621.234C234.055 621.094 234.688 620.891 235.266 620.625C235.828 620.375 236.344 620.078 236.812 619.734C237.281 619.391 237.695 619.023 238.055 618.633C238.133 619.086 238.227 619.516 238.336 619.922C238.445 620.328 238.578 620.688 238.734 621ZM232.523 616.43C231.914 616.43 231.375 616.359 230.906 616.219C230.453 616.062 230.07 615.859 229.758 615.609C229.445 615.344 229.203 615.023 229.031 614.648C228.875 614.258 228.797 613.836 228.797 613.383C228.797 612.805 228.906 612.273 229.125 611.789C229.344 611.289 229.68 610.859 230.133 610.5C230.586 610.156 231.172 609.891 231.891 609.703C232.609 609.5 233.477 609.398 234.492 609.398H237.82V613.758C237.633 614.086 237.375 614.414 237.047 614.742C236.719 615.055 236.328 615.336 235.875 615.586C235.422 615.836 234.914 616.039 234.352 616.195C233.789 616.352 233.18 616.43 232.523 616.43ZM262.945 616.266C261.898 616.266 261.031 616.055 260.344 615.633C259.672 615.211 259.141 614.648 258.75 613.945C258.344 613.258 258.062 612.461 257.906 611.555C257.75 610.633 257.672 609.68 257.672 608.695V607.992C257.672 607.023 257.75 606.086 257.906 605.18C258.078 604.273 258.367 603.469 258.773 602.766C259.164 602.062 259.695 601.5 260.367 601.078C261.039 600.656 261.891 600.445 262.922 600.445C263.625 600.445 264.273 600.57 264.867 600.82C265.461 601.055 265.969 601.375 266.391 601.781C266.812 602.188 267.133 602.672 267.352 603.234C267.57 603.797 267.664 604.391 267.633 605.016H273.773C273.805 603.516 273.555 602.164 273.023 600.961C272.492 599.742 271.75 598.703 270.797 597.844C269.828 597 268.68 596.344 267.352 595.875C266.023 595.406 264.578 595.172 263.016 595.172C261.062 595.172 259.344 595.508 257.859 596.18C256.391 596.852 255.156 597.766 254.156 598.922C253.156 600.078 252.406 601.438 251.906 603C251.406 604.547 251.156 606.211 251.156 607.992V608.695C251.156 610.477 251.406 612.148 251.906 613.711C252.422 615.258 253.18 616.609 254.18 617.766C255.164 618.922 256.398 619.836 257.883 620.508C259.367 621.164 261.094 621.492 263.062 621.492C264.516 621.492 265.891 621.266 267.188 620.812C268.5 620.344 269.648 619.703 270.633 618.891C271.617 618.078 272.391 617.109 272.953 615.984C273.531 614.859 273.805 613.641 273.773 612.328H267.633C267.664 612.922 267.555 613.461 267.305 613.945C267.07 614.43 266.734 614.844 266.297 615.188C265.859 615.531 265.352 615.797 264.773 615.984C264.195 616.172 263.586 616.266 262.945 616.266ZM292.5 589.43H285.984V595.641H280.195V600.445H285.984V611.977C285.984 613.648 286.203 615.086 286.641 616.289C287.078 617.477 287.703 618.453 288.516 619.219C289.312 620 290.273 620.578 291.398 620.953C292.539 621.312 293.805 621.492 295.195 621.492C295.914 621.492 296.641 621.453 297.375 621.375C298.125 621.312 298.844 621.219 299.531 621.094C300.219 620.969 300.867 620.812 301.477 620.625C302.086 620.422 302.617 620.188 303.07 619.922L302.438 615.445C302.141 615.523 301.781 615.602 301.359 615.68C300.953 615.758 300.516 615.828 300.047 615.891C299.562 615.969 299.055 616.031 298.523 616.078C298.008 616.125 297.5 616.148 297 616.148C296.312 616.148 295.688 616.07 295.125 615.914C294.578 615.758 294.109 615.492 293.719 615.117C293.328 614.758 293.023 614.273 292.805 613.664C292.602 613.039 292.5 612.266 292.5 611.344V600.445H301.969V595.641H292.5V589.43ZM311.109 595.641V600.961H318.328V615.703H311.109V621H331.781V615.703H324.914V595.641H311.109ZM317.859 589.148C317.859 589.648 317.945 590.117 318.117 590.555C318.305 590.977 318.562 591.336 318.891 591.633C319.219 591.945 319.609 592.188 320.062 592.359C320.531 592.531 321.047 592.617 321.609 592.617C322.766 592.617 323.68 592.297 324.352 591.656C325.039 591 325.383 590.164 325.383 589.148C325.383 588.133 325.039 587.305 324.352 586.664C323.68 586.008 322.766 585.68 321.609 585.68C321.047 585.68 320.531 585.766 320.062 585.938C319.609 586.109 319.219 586.344 318.891 586.641C318.562 586.953 318.305 587.328 318.117 587.766C317.945 588.188 317.859 588.648 317.859 589.148ZM346.266 621H352.383L362.016 595.641H355.219L349.664 613.523L349.312 615.305L348.961 613.523L343.383 595.641H336.586L346.266 621ZM379.336 621.469C381.789 621.469 383.914 620.992 385.711 620.039C387.508 619.086 388.82 618.023 389.648 616.852L386.391 613.336C385.641 614.305 384.664 615.031 383.461 615.516C382.258 616 381.016 616.242 379.734 616.242C378.828 616.242 377.992 616.102 377.227 615.82C376.461 615.539 375.781 615.141 375.188 614.625C374.609 614.125 374.148 613.57 373.805 612.961C373.461 612.336 373.18 611.516 372.961 610.5V610.43H390.164V607.664C390.164 605.805 389.906 604.109 389.391 602.578C388.875 601.031 388.125 599.711 387.141 598.617C386.141 597.523 384.922 596.68 383.484 596.086C382.062 595.477 380.438 595.172 378.609 595.172C376.844 595.172 375.211 595.492 373.711 596.133C372.211 596.773 370.914 597.672 369.82 598.828C368.727 599.984 367.875 601.367 367.266 602.977C366.656 604.57 366.352 606.336 366.352 608.273V609.211C366.352 610.914 366.656 612.516 367.266 614.016C367.891 615.5 368.773 616.789 369.914 617.883C371.055 618.992 372.422 619.867 374.016 620.508C375.609 621.148 377.383 621.469 379.336 621.469ZM378.562 600.445C379.391 600.445 380.117 600.578 380.742 600.844C381.383 601.094 381.922 601.438 382.359 601.875C382.797 602.328 383.141 602.859 383.391 603.469C383.641 604.078 383.766 604.727 383.766 605.414V605.93H373.078C373.234 605.102 373.469 604.352 373.781 603.68C374.094 603.008 374.484 602.43 374.953 601.945C375.406 601.461 375.938 601.094 376.547 600.844C377.156 600.578 377.828 600.445 378.562 600.445ZM107.672 693.75H114.188V681.797C114.484 682.125 114.797 682.422 115.125 682.688C115.453 682.953 115.797 683.195 116.156 683.414C116.766 683.758 117.422 684.016 118.125 684.188C118.844 684.375 119.625 684.469 120.469 684.469C122.062 684.469 123.477 684.141 124.711 683.484C125.945 682.828 126.984 681.922 127.828 680.766C128.656 679.625 129.281 678.266 129.703 676.688C130.141 675.109 130.359 673.398 130.359 671.555V671.062C130.359 669.141 130.141 667.391 129.703 665.812C129.281 664.219 128.648 662.852 127.805 661.711C126.961 660.586 125.922 659.719 124.688 659.109C123.453 658.484 122.031 658.172 120.422 658.172C119.641 658.172 118.906 658.258 118.219 658.43C117.547 658.586 116.93 658.812 116.367 659.109C115.898 659.359 115.461 659.656 115.055 660C114.648 660.328 114.273 660.703 113.93 661.125L113.695 658.641H107.672V693.75ZM123.844 671.062V671.555C123.844 672.602 123.75 673.594 123.562 674.531C123.375 675.453 123.078 676.266 122.672 676.969C122.266 677.672 121.734 678.227 121.078 678.633C120.438 679.039 119.656 679.242 118.734 679.242C118.156 679.242 117.633 679.188 117.164 679.078C116.695 678.953 116.281 678.781 115.922 678.562C115.547 678.328 115.211 678.047 114.914 677.719C114.633 677.391 114.391 677.023 114.188 676.617V666.023C114.406 665.586 114.664 665.203 114.961 664.875C115.273 664.547 115.633 664.273 116.039 664.055C116.398 663.867 116.797 663.727 117.234 663.633C117.672 663.523 118.156 663.469 118.688 663.469C119.609 663.469 120.391 663.664 121.031 664.055C121.688 664.445 122.227 664.977 122.648 665.648C123.055 666.336 123.352 667.148 123.539 668.086C123.742 669.008 123.844 670 123.844 671.062ZM154.617 658.172C152.914 658.172 151.344 658.586 149.906 659.414C148.469 660.227 147.234 661.352 146.203 662.789L146.156 662.227L145.898 658.641H139.828V684H146.344V668.766C146.641 668.047 147.016 667.422 147.469 666.891C147.922 666.359 148.469 665.922 149.109 665.578C149.641 665.281 150.242 665.062 150.914 664.922C151.602 664.766 152.367 664.688 153.211 664.688C154.023 664.688 154.875 664.742 155.766 664.852C156.672 664.945 157.555 665.094 158.414 665.297L159.375 658.805C158.859 658.648 158.18 658.508 157.336 658.383C156.508 658.242 155.602 658.172 154.617 658.172ZM164.344 671.086V671.578C164.344 673.438 164.609 675.156 165.141 676.734C165.672 678.297 166.453 679.656 167.484 680.812C168.5 681.969 169.75 682.875 171.234 683.531C172.734 684.172 174.438 684.492 176.344 684.492C178.234 684.492 179.922 684.172 181.406 683.531C182.891 682.875 184.141 681.969 185.156 680.812C186.172 679.656 186.945 678.297 187.477 676.734C188.008 675.156 188.273 673.438 188.273 671.578V671.086C188.273 669.242 188.008 667.539 187.477 665.977C186.945 664.398 186.172 663.031 185.156 661.875C184.125 660.719 182.867 659.812 181.383 659.156C179.898 658.5 178.203 658.172 176.297 658.172C174.391 658.172 172.695 658.5 171.211 659.156C169.742 659.812 168.5 660.719 167.484 661.875C166.453 663.031 165.672 664.398 165.141 665.977C164.609 667.539 164.344 669.242 164.344 671.086ZM170.859 671.578V671.086C170.859 670.055 170.961 669.078 171.164 668.156C171.367 667.234 171.688 666.422 172.125 665.719C172.562 665.016 173.125 664.461 173.812 664.055C174.5 663.648 175.328 663.445 176.297 663.445C177.281 663.445 178.117 663.648 178.805 664.055C179.492 664.461 180.055 665.016 180.492 665.719C180.914 666.422 181.227 667.234 181.43 668.156C181.633 669.078 181.734 670.055 181.734 671.086V671.578C181.734 672.641 181.633 673.641 181.43 674.578C181.227 675.5 180.914 676.305 180.492 676.992C180.055 677.695 179.492 678.25 178.805 678.656C178.117 679.062 177.297 679.266 176.344 679.266C175.359 679.266 174.516 679.062 173.812 678.656C173.125 678.25 172.562 677.695 172.125 676.992C171.688 676.305 171.367 675.5 171.164 674.578C170.961 673.641 170.859 672.641 170.859 671.578ZM206.016 652.43H199.5V658.641H193.711V663.445H199.5V674.977C199.5 676.648 199.719 678.086 200.156 679.289C200.594 680.477 201.219 681.453 202.031 682.219C202.828 683 203.789 683.578 204.914 683.953C206.055 684.312 207.32 684.492 208.711 684.492C209.43 684.492 210.156 684.453 210.891 684.375C211.641 684.312 212.359 684.219 213.047 684.094C213.734 683.969 214.383 683.812 214.992 683.625C215.602 683.422 216.133 683.188 216.586 682.922L215.953 678.445C215.656 678.523 215.297 678.602 214.875 678.68C214.469 678.758 214.031 678.828 213.562 678.891C213.078 678.969 212.57 679.031 212.039 679.078C211.523 679.125 211.016 679.148 210.516 679.148C209.828 679.148 209.203 679.07 208.641 678.914C208.094 678.758 207.625 678.492 207.234 678.117C206.844 677.758 206.539 677.273 206.32 676.664C206.117 676.039 206.016 675.266 206.016 674.344V663.445H215.484V658.641H206.016V652.43ZM222 671.086V671.578C222 673.438 222.266 675.156 222.797 676.734C223.328 678.297 224.109 679.656 225.141 680.812C226.156 681.969 227.406 682.875 228.891 683.531C230.391 684.172 232.094 684.492 234 684.492C235.891 684.492 237.578 684.172 239.062 683.531C240.547 682.875 241.797 681.969 242.812 680.812C243.828 679.656 244.602 678.297 245.133 676.734C245.664 675.156 245.93 673.438 245.93 671.578V671.086C245.93 669.242 245.664 667.539 245.133 665.977C244.602 664.398 243.828 663.031 242.812 661.875C241.781 660.719 240.523 659.812 239.039 659.156C237.555 658.5 235.859 658.172 233.953 658.172C232.047 658.172 230.352 658.5 228.867 659.156C227.398 659.812 226.156 660.719 225.141 661.875C224.109 663.031 223.328 664.398 222.797 665.977C222.266 667.539 222 669.242 222 671.086ZM228.516 671.578V671.086C228.516 670.055 228.617 669.078 228.82 668.156C229.023 667.234 229.344 666.422 229.781 665.719C230.219 665.016 230.781 664.461 231.469 664.055C232.156 663.648 232.984 663.445 233.953 663.445C234.938 663.445 235.773 663.648 236.461 664.055C237.148 664.461 237.711 665.016 238.148 665.719C238.57 666.422 238.883 667.234 239.086 668.156C239.289 669.078 239.391 670.055 239.391 671.086V671.578C239.391 672.641 239.289 673.641 239.086 674.578C238.883 675.5 238.57 676.305 238.148 676.992C237.711 677.695 237.148 678.25 236.461 678.656C235.773 679.062 234.953 679.266 234 679.266C233.016 679.266 232.172 679.062 231.469 678.656C230.781 678.25 230.219 677.695 229.781 676.992C229.344 676.305 229.023 675.5 228.82 674.578C228.617 673.641 228.516 672.641 228.516 671.578ZM263.672 652.43H257.156V658.641H251.367V663.445H257.156V674.977C257.156 676.648 257.375 678.086 257.812 679.289C258.25 680.477 258.875 681.453 259.688 682.219C260.484 683 261.445 683.578 262.57 683.953C263.711 684.312 264.977 684.492 266.367 684.492C267.086 684.492 267.812 684.453 268.547 684.375C269.297 684.312 270.016 684.219 270.703 684.094C271.391 683.969 272.039 683.812 272.648 683.625C273.258 683.422 273.789 683.188 274.242 682.922L273.609 678.445C273.312 678.523 272.953 678.602 272.531 678.68C272.125 678.758 271.688 678.828 271.219 678.891C270.734 678.969 270.227 679.031 269.695 679.078C269.18 679.125 268.672 679.148 268.172 679.148C267.484 679.148 266.859 679.07 266.297 678.914C265.75 678.758 265.281 678.492 264.891 678.117C264.5 677.758 264.195 677.273 263.977 676.664C263.773 676.039 263.672 675.266 263.672 674.344V663.445H273.141V658.641H263.672V652.43ZM284.555 694.242C285.867 694.242 287 694.023 287.953 693.586C288.922 693.148 289.742 692.609 290.414 691.969C291.086 691.328 291.641 690.633 292.078 689.883C292.531 689.133 292.898 688.438 293.18 687.797L306.047 658.641H298.852L293.062 673.547L292.102 676.078L291.398 673.5L285.586 658.641H278.461L289.195 682.922L287.695 685.711C287.508 686.055 287.344 686.32 287.203 686.508C287.078 686.695 286.875 686.977 286.594 687.352C286.312 687.727 285.969 688.07 285.562 688.383C285.172 688.711 284.719 688.875 284.203 688.875C283.953 688.875 283.617 688.859 283.195 688.828C282.789 688.812 282.453 688.805 282.188 688.805L281.391 693.773C281.953 693.93 282.461 694.047 282.914 694.125C283.383 694.203 283.93 694.242 284.555 694.242ZM309.469 693.75H315.984V681.797C316.281 682.125 316.594 682.422 316.922 682.688C317.25 682.953 317.594 683.195 317.953 683.414C318.562 683.758 319.219 684.016 319.922 684.188C320.641 684.375 321.422 684.469 322.266 684.469C323.859 684.469 325.273 684.141 326.508 683.484C327.742 682.828 328.781 681.922 329.625 680.766C330.453 679.625 331.078 678.266 331.5 676.688C331.938 675.109 332.156 673.398 332.156 671.555V671.062C332.156 669.141 331.938 667.391 331.5 665.812C331.078 664.219 330.445 662.852 329.602 661.711C328.758 660.586 327.719 659.719 326.484 659.109C325.25 658.484 323.828 658.172 322.219 658.172C321.438 658.172 320.703 658.258 320.016 658.43C319.344 658.586 318.727 658.812 318.164 659.109C317.695 659.359 317.258 659.656 316.852 660C316.445 660.328 316.07 660.703 315.727 661.125L315.492 658.641H309.469V693.75ZM325.641 671.062V671.555C325.641 672.602 325.547 673.594 325.359 674.531C325.172 675.453 324.875 676.266 324.469 676.969C324.062 677.672 323.531 678.227 322.875 678.633C322.234 679.039 321.453 679.242 320.531 679.242C319.953 679.242 319.43 679.188 318.961 679.078C318.492 678.953 318.078 678.781 317.719 678.562C317.344 678.328 317.008 678.047 316.711 677.719C316.43 677.391 316.188 677.023 315.984 676.617V666.023C316.203 665.586 316.461 665.203 316.758 664.875C317.07 664.547 317.43 664.273 317.836 664.055C318.195 663.867 318.594 663.727 319.031 663.633C319.469 663.523 319.953 663.469 320.484 663.469C321.406 663.469 322.188 663.664 322.828 664.055C323.484 664.445 324.023 664.977 324.445 665.648C324.852 666.336 325.148 667.148 325.336 668.086C325.539 669.008 325.641 670 325.641 671.062ZM350.508 684.469C352.961 684.469 355.086 683.992 356.883 683.039C358.68 682.086 359.992 681.023 360.82 679.852L357.562 676.336C356.812 677.305 355.836 678.031 354.633 678.516C353.43 679 352.188 679.242 350.906 679.242C350 679.242 349.164 679.102 348.398 678.82C347.633 678.539 346.953 678.141 346.359 677.625C345.781 677.125 345.32 676.57 344.977 675.961C344.633 675.336 344.352 674.516 344.133 673.5V673.43H361.336V670.664C361.336 668.805 361.078 667.109 360.562 665.578C360.047 664.031 359.297 662.711 358.312 661.617C357.312 660.523 356.094 659.68 354.656 659.086C353.234 658.477 351.609 658.172 349.781 658.172C348.016 658.172 346.383 658.492 344.883 659.133C343.383 659.773 342.086 660.672 340.992 661.828C339.898 662.984 339.047 664.367 338.438 665.977C337.828 667.57 337.523 669.336 337.523 671.273V672.211C337.523 673.914 337.828 675.516 338.438 677.016C339.062 678.5 339.945 679.789 341.086 680.883C342.227 681.992 343.594 682.867 345.188 683.508C346.781 684.148 348.555 684.469 350.508 684.469ZM349.734 663.445C350.562 663.445 351.289 663.578 351.914 663.844C352.555 664.094 353.094 664.438 353.531 664.875C353.969 665.328 354.312 665.859 354.562 666.469C354.812 667.078 354.938 667.727 354.938 668.414V668.93H344.25C344.406 668.102 344.641 667.352 344.953 666.68C345.266 666.008 345.656 665.43 346.125 664.945C346.578 664.461 347.109 664.094 347.719 663.844C348.328 663.578 349 663.445 349.734 663.445Z" fill="white"/>
<path d="M118.443 835.15L2.88675 635L118.443 434.85H349.557L465.113 635L349.557 835.15H118.443Z" stroke="#3949AB" stroke-width="5"/>
<path d="M545.93 1023.05V1017.84H531.914V1009.24H548.227V1003.88H525.305V1038H548.297V1032.68H531.914V1023.05H545.93ZM562.055 1038H568.172L577.805 1012.64H571.008L565.453 1030.52L565.102 1032.3L564.75 1030.52L559.172 1012.64H552.375L562.055 1038ZM598.664 1038H605.273V1037.6C604.945 1036.96 604.695 1036.2 604.523 1035.3C604.352 1034.41 604.266 1033.29 604.266 1031.93V1021.05C604.266 1019.59 603.992 1018.3 603.445 1017.19C602.898 1016.06 602.141 1015.13 601.172 1014.4C600.203 1013.66 599.055 1013.11 597.727 1012.73C596.414 1012.36 594.992 1012.17 593.461 1012.17C591.758 1012.17 590.242 1012.39 588.914 1012.83C587.602 1013.25 586.492 1013.83 585.586 1014.56C584.664 1015.3 583.961 1016.15 583.477 1017.12C583.008 1018.09 582.773 1019.11 582.773 1020.19H589.289C589.289 1019.73 589.352 1019.32 589.477 1018.95C589.617 1018.57 589.828 1018.25 590.109 1017.98C590.422 1017.69 590.828 1017.46 591.328 1017.3C591.828 1017.13 592.422 1017.05 593.109 1017.05C593.891 1017.05 594.57 1017.15 595.148 1017.35C595.742 1017.54 596.234 1017.81 596.625 1018.17C597 1018.52 597.281 1018.93 597.469 1019.41C597.656 1019.88 597.75 1020.41 597.75 1021.01V1022.51H594.117C592.242 1022.51 590.578 1022.68 589.125 1023.02C587.688 1023.35 586.477 1023.84 585.492 1024.48C584.398 1025.18 583.578 1026.08 583.031 1027.17C582.484 1028.25 582.211 1029.49 582.211 1030.9C582.211 1031.99 582.43 1033.01 582.867 1033.95C583.305 1034.87 583.914 1035.66 584.695 1036.34C585.477 1037.01 586.406 1037.53 587.484 1037.91C588.578 1038.28 589.773 1038.47 591.07 1038.47C591.867 1038.47 592.609 1038.39 593.297 1038.23C593.984 1038.09 594.617 1037.89 595.195 1037.62C595.758 1037.38 596.273 1037.08 596.742 1036.73C597.211 1036.39 597.625 1036.02 597.984 1035.63C598.062 1036.09 598.156 1036.52 598.266 1036.92C598.375 1037.33 598.508 1037.69 598.664 1038ZM592.453 1033.43C591.844 1033.43 591.305 1033.36 590.836 1033.22C590.383 1033.06 590 1032.86 589.688 1032.61C589.375 1032.34 589.133 1032.02 588.961 1031.65C588.805 1031.26 588.727 1030.84 588.727 1030.38C588.727 1029.8 588.836 1029.27 589.055 1028.79C589.273 1028.29 589.609 1027.86 590.062 1027.5C590.516 1027.16 591.102 1026.89 591.82 1026.7C592.539 1026.5 593.406 1026.4 594.422 1026.4H597.75V1030.76C597.562 1031.09 597.305 1031.41 596.977 1031.74C596.648 1032.05 596.258 1032.34 595.805 1032.59C595.352 1032.84 594.844 1033.04 594.281 1033.2C593.719 1033.35 593.109 1033.43 592.453 1033.43ZM613.008 1002V1007.32H620.602V1032.7H613.008V1038H634.453V1032.7H627.188V1002H613.008ZM657.023 1038H662.93V1012.64H656.391V1030.43C656.188 1030.84 655.945 1031.2 655.664 1031.53C655.383 1031.86 655.062 1032.14 654.703 1032.38C654.281 1032.64 653.789 1032.84 653.227 1032.98C652.68 1033.12 652.062 1033.2 651.375 1033.2C650.609 1033.2 649.961 1033.1 649.43 1032.91C648.898 1032.73 648.469 1032.41 648.141 1031.98C647.812 1031.55 647.57 1030.99 647.414 1030.29C647.273 1029.59 647.203 1028.72 647.203 1027.69V1012.64H640.688V1027.64C640.688 1029.56 640.898 1031.21 641.32 1032.59C641.758 1033.95 642.367 1035.06 643.148 1035.94C643.93 1036.83 644.867 1037.48 645.961 1037.88C647.055 1038.29 648.258 1038.49 649.57 1038.49C651.008 1038.49 652.328 1038.13 653.531 1037.41C654.75 1036.7 655.789 1035.7 656.648 1034.44L657.023 1038ZM685.148 1038H691.758V1037.6C691.43 1036.96 691.18 1036.2 691.008 1035.3C690.836 1034.41 690.75 1033.29 690.75 1031.93V1021.05C690.75 1019.59 690.477 1018.3 689.93 1017.19C689.383 1016.06 688.625 1015.13 687.656 1014.4C686.688 1013.66 685.539 1013.11 684.211 1012.73C682.898 1012.36 681.477 1012.17 679.945 1012.17C678.242 1012.17 676.727 1012.39 675.398 1012.83C674.086 1013.25 672.977 1013.83 672.07 1014.56C671.148 1015.3 670.445 1016.15 669.961 1017.12C669.492 1018.09 669.258 1019.11 669.258 1020.19H675.773C675.773 1019.73 675.836 1019.32 675.961 1018.95C676.102 1018.57 676.312 1018.25 676.594 1017.98C676.906 1017.69 677.312 1017.46 677.812 1017.3C678.312 1017.13 678.906 1017.05 679.594 1017.05C680.375 1017.05 681.055 1017.15 681.633 1017.35C682.227 1017.54 682.719 1017.81 683.109 1018.17C683.484 1018.52 683.766 1018.93 683.953 1019.41C684.141 1019.88 684.234 1020.41 684.234 1021.01V1022.51H680.602C678.727 1022.51 677.062 1022.68 675.609 1023.02C674.172 1023.35 672.961 1023.84 671.977 1024.48C670.883 1025.18 670.062 1026.08 669.516 1027.17C668.969 1028.25 668.695 1029.49 668.695 1030.9C668.695 1031.99 668.914 1033.01 669.352 1033.95C669.789 1034.87 670.398 1035.66 671.18 1036.34C671.961 1037.01 672.891 1037.53 673.969 1037.91C675.062 1038.28 676.258 1038.47 677.555 1038.47C678.352 1038.47 679.094 1038.39 679.781 1038.23C680.469 1038.09 681.102 1037.89 681.68 1037.62C682.242 1037.38 682.758 1037.08 683.227 1036.73C683.695 1036.39 684.109 1036.02 684.469 1035.63C684.547 1036.09 684.641 1036.52 684.75 1036.92C684.859 1037.33 684.992 1037.69 685.148 1038ZM678.938 1033.43C678.328 1033.43 677.789 1033.36 677.32 1033.22C676.867 1033.06 676.484 1032.86 676.172 1032.61C675.859 1032.34 675.617 1032.02 675.445 1031.65C675.289 1031.26 675.211 1030.84 675.211 1030.38C675.211 1029.8 675.32 1029.27 675.539 1028.79C675.758 1028.29 676.094 1027.86 676.547 1027.5C677 1027.16 677.586 1026.89 678.305 1026.7C679.023 1026.5 679.891 1026.4 680.906 1026.4H684.234V1030.76C684.047 1031.09 683.789 1031.41 683.461 1031.74C683.133 1032.05 682.742 1032.34 682.289 1032.59C681.836 1032.84 681.328 1033.04 680.766 1033.2C680.203 1033.35 679.594 1033.43 678.938 1033.43ZM710.086 1006.43H703.57V1012.64H697.781V1017.45H703.57V1028.98C703.57 1030.65 703.789 1032.09 704.227 1033.29C704.664 1034.48 705.289 1035.45 706.102 1036.22C706.898 1037 707.859 1037.58 708.984 1037.95C710.125 1038.31 711.391 1038.49 712.781 1038.49C713.5 1038.49 714.227 1038.45 714.961 1038.38C715.711 1038.31 716.43 1038.22 717.117 1038.09C717.805 1037.97 718.453 1037.81 719.062 1037.62C719.672 1037.42 720.203 1037.19 720.656 1036.92L720.023 1032.45C719.727 1032.52 719.367 1032.6 718.945 1032.68C718.539 1032.76 718.102 1032.83 717.633 1032.89C717.148 1032.97 716.641 1033.03 716.109 1033.08C715.594 1033.12 715.086 1033.15 714.586 1033.15C713.898 1033.15 713.273 1033.07 712.711 1032.91C712.164 1032.76 711.695 1032.49 711.305 1032.12C710.914 1031.76 710.609 1031.27 710.391 1030.66C710.188 1030.04 710.086 1029.27 710.086 1028.34V1017.45H719.555V1012.64H710.086V1006.43ZM728.695 1012.64V1017.96H735.914V1032.7H728.695V1038H749.367V1032.7H742.5V1012.64H728.695ZM735.445 1006.15C735.445 1006.65 735.531 1007.12 735.703 1007.55C735.891 1007.98 736.148 1008.34 736.477 1008.63C736.805 1008.95 737.195 1009.19 737.648 1009.36C738.117 1009.53 738.633 1009.62 739.195 1009.62C740.352 1009.62 741.266 1009.3 741.938 1008.66C742.625 1008 742.969 1007.16 742.969 1006.15C742.969 1005.13 742.625 1004.3 741.938 1003.66C741.266 1003.01 740.352 1002.68 739.195 1002.68C738.633 1002.68 738.117 1002.77 737.648 1002.94C737.195 1003.11 736.805 1003.34 736.477 1003.64C736.148 1003.95 735.891 1004.33 735.703 1004.77C735.531 1005.19 735.445 1005.65 735.445 1006.15ZM754.898 1025.09V1025.58C754.898 1027.44 755.164 1029.16 755.695 1030.73C756.227 1032.3 757.008 1033.66 758.039 1034.81C759.055 1035.97 760.305 1036.88 761.789 1037.53C763.289 1038.17 764.992 1038.49 766.898 1038.49C768.789 1038.49 770.477 1038.17 771.961 1037.53C773.445 1036.88 774.695 1035.97 775.711 1034.81C776.727 1033.66 777.5 1032.3 778.031 1030.73C778.562 1029.16 778.828 1027.44 778.828 1025.58V1025.09C778.828 1023.24 778.562 1021.54 778.031 1019.98C777.5 1018.4 776.727 1017.03 775.711 1015.88C774.68 1014.72 773.422 1013.81 771.938 1013.16C770.453 1012.5 768.758 1012.17 766.852 1012.17C764.945 1012.17 763.25 1012.5 761.766 1013.16C760.297 1013.81 759.055 1014.72 758.039 1015.88C757.008 1017.03 756.227 1018.4 755.695 1019.98C755.164 1021.54 754.898 1023.24 754.898 1025.09ZM761.414 1025.58V1025.09C761.414 1024.05 761.516 1023.08 761.719 1022.16C761.922 1021.23 762.242 1020.42 762.68 1019.72C763.117 1019.02 763.68 1018.46 764.367 1018.05C765.055 1017.65 765.883 1017.45 766.852 1017.45C767.836 1017.45 768.672 1017.65 769.359 1018.05C770.047 1018.46 770.609 1019.02 771.047 1019.72C771.469 1020.42 771.781 1021.23 771.984 1022.16C772.188 1023.08 772.289 1024.05 772.289 1025.09V1025.58C772.289 1026.64 772.188 1027.64 771.984 1028.58C771.781 1029.5 771.469 1030.3 771.047 1030.99C770.609 1031.7 770.047 1032.25 769.359 1032.66C768.672 1033.06 767.852 1033.27 766.898 1033.27C765.914 1033.27 765.07 1033.06 764.367 1032.66C763.68 1032.25 763.117 1031.7 762.68 1030.99C762.242 1030.3 761.922 1029.5 761.719 1028.58C761.516 1027.64 761.414 1026.64 761.414 1025.58ZM784.617 1038H791.156V1019.98C791.375 1019.63 791.617 1019.32 791.883 1019.04C792.148 1018.76 792.445 1018.52 792.773 1018.31C793.18 1018.03 793.641 1017.82 794.156 1017.68C794.688 1017.54 795.266 1017.47 795.891 1017.47C796.641 1017.47 797.312 1017.55 797.906 1017.7C798.5 1017.84 799.008 1018.1 799.43 1018.48C799.852 1018.85 800.172 1019.37 800.391 1020.02C800.625 1020.66 800.742 1021.48 800.742 1022.48V1038H807.258V1022.39C807.258 1020.55 807.039 1018.98 806.602 1017.7C806.18 1016.41 805.586 1015.34 804.82 1014.52C804.039 1013.7 803.117 1013.11 802.055 1012.73C800.992 1012.36 799.82 1012.17 798.539 1012.17C797.539 1012.17 796.594 1012.31 795.703 1012.59C794.812 1012.88 793.992 1013.28 793.242 1013.81C792.805 1014.12 792.391 1014.48 792 1014.87C791.609 1015.26 791.25 1015.69 790.922 1016.16L790.523 1012.64H784.617V1038ZM541.312 1075.64V1080.96H548.531V1095.7H541.312V1101H561.984V1095.7H555.117V1075.64H541.312ZM548.062 1069.15C548.062 1069.65 548.148 1070.12 548.32 1070.55C548.508 1070.98 548.766 1071.34 549.094 1071.63C549.422 1071.95 549.812 1072.19 550.266 1072.36C550.734 1072.53 551.25 1072.62 551.812 1072.62C552.969 1072.62 553.883 1072.3 554.555 1071.66C555.242 1071 555.586 1070.16 555.586 1069.15C555.586 1068.13 555.242 1067.3 554.555 1066.66C553.883 1066.01 552.969 1065.68 551.812 1065.68C551.25 1065.68 550.734 1065.77 550.266 1065.94C549.812 1066.11 549.422 1066.34 549.094 1066.64C548.766 1066.95 548.508 1067.33 548.32 1067.77C548.148 1068.19 548.062 1068.65 548.062 1069.15ZM568.406 1101H574.945V1082.98C575.164 1082.63 575.406 1082.32 575.672 1082.04C575.938 1081.76 576.234 1081.52 576.562 1081.31C576.969 1081.03 577.43 1080.82 577.945 1080.68C578.477 1080.54 579.055 1080.47 579.68 1080.47C580.43 1080.47 581.102 1080.55 581.695 1080.7C582.289 1080.84 582.797 1081.1 583.219 1081.48C583.641 1081.85 583.961 1082.37 584.18 1083.02C584.414 1083.66 584.531 1084.48 584.531 1085.48V1101H591.047V1085.39C591.047 1083.55 590.828 1081.98 590.391 1080.7C589.969 1079.41 589.375 1078.34 588.609 1077.52C587.828 1076.7 586.906 1076.11 585.844 1075.73C584.781 1075.36 583.609 1075.17 582.328 1075.17C581.328 1075.17 580.383 1075.31 579.492 1075.59C578.602 1075.88 577.781 1076.28 577.031 1076.81C576.594 1077.12 576.18 1077.48 575.789 1077.87C575.398 1078.26 575.039 1078.69 574.711 1079.16L574.312 1075.64H568.406V1101ZM609.188 1069.43H602.672V1075.64H596.883V1080.45H602.672V1091.98C602.672 1093.65 602.891 1095.09 603.328 1096.29C603.766 1097.48 604.391 1098.45 605.203 1099.22C606 1100 606.961 1100.58 608.086 1100.95C609.227 1101.31 610.492 1101.49 611.883 1101.49C612.602 1101.49 613.328 1101.45 614.062 1101.38C614.812 1101.31 615.531 1101.22 616.219 1101.09C616.906 1100.97 617.555 1100.81 618.164 1100.62C618.773 1100.42 619.305 1100.19 619.758 1099.92L619.125 1095.45C618.828 1095.52 618.469 1095.6 618.047 1095.68C617.641 1095.76 617.203 1095.83 616.734 1095.89C616.25 1095.97 615.742 1096.03 615.211 1096.08C614.695 1096.12 614.188 1096.15 613.688 1096.15C613 1096.15 612.375 1096.07 611.812 1095.91C611.266 1095.76 610.797 1095.49 610.406 1095.12C610.016 1094.76 609.711 1094.27 609.492 1093.66C609.289 1093.04 609.188 1092.27 609.188 1091.34V1080.45H618.656V1075.64H609.188V1069.43ZM638.367 1101.47C640.82 1101.47 642.945 1100.99 644.742 1100.04C646.539 1099.09 647.852 1098.02 648.68 1096.85L645.422 1093.34C644.672 1094.3 643.695 1095.03 642.492 1095.52C641.289 1096 640.047 1096.24 638.766 1096.24C637.859 1096.24 637.023 1096.1 636.258 1095.82C635.492 1095.54 634.812 1095.14 634.219 1094.62C633.641 1094.12 633.18 1093.57 632.836 1092.96C632.492 1092.34 632.211 1091.52 631.992 1090.5V1090.43H649.195V1087.66C649.195 1085.8 648.938 1084.11 648.422 1082.58C647.906 1081.03 647.156 1079.71 646.172 1078.62C645.172 1077.52 643.953 1076.68 642.516 1076.09C641.094 1075.48 639.469 1075.17 637.641 1075.17C635.875 1075.17 634.242 1075.49 632.742 1076.13C631.242 1076.77 629.945 1077.67 628.852 1078.83C627.758 1079.98 626.906 1081.37 626.297 1082.98C625.688 1084.57 625.383 1086.34 625.383 1088.27V1089.21C625.383 1090.91 625.688 1092.52 626.297 1094.02C626.922 1095.5 627.805 1096.79 628.945 1097.88C630.086 1098.99 631.453 1099.87 633.047 1100.51C634.641 1101.15 636.414 1101.47 638.367 1101.47ZM637.594 1080.45C638.422 1080.45 639.148 1080.58 639.773 1080.84C640.414 1081.09 640.953 1081.44 641.391 1081.88C641.828 1082.33 642.172 1082.86 642.422 1083.47C642.672 1084.08 642.797 1084.73 642.797 1085.41V1085.93H632.109C632.266 1085.1 632.5 1084.35 632.812 1083.68C633.125 1083.01 633.516 1082.43 633.984 1081.95C634.438 1081.46 634.969 1081.09 635.578 1080.84C636.188 1080.58 636.859 1080.45 637.594 1080.45ZM673.102 1075.17C671.398 1075.17 669.828 1075.59 668.391 1076.41C666.953 1077.23 665.719 1078.35 664.688 1079.79L664.641 1079.23L664.383 1075.64H658.312V1101H664.828V1085.77C665.125 1085.05 665.5 1084.42 665.953 1083.89C666.406 1083.36 666.953 1082.92 667.594 1082.58C668.125 1082.28 668.727 1082.06 669.398 1081.92C670.086 1081.77 670.852 1081.69 671.695 1081.69C672.508 1081.69 673.359 1081.74 674.25 1081.85C675.156 1081.95 676.039 1082.09 676.898 1082.3L677.859 1075.8C677.344 1075.65 676.664 1075.51 675.82 1075.38C674.992 1075.24 674.086 1075.17 673.102 1075.17ZM691.781 1101H697.898L707.531 1075.64H700.734L695.18 1093.52L694.828 1095.3L694.477 1093.52L688.898 1075.64H682.102L691.781 1101ZM714.281 1075.64V1080.96H721.5V1095.7H714.281V1101H734.953V1095.7H728.086V1075.64H714.281ZM721.031 1069.15C721.031 1069.65 721.117 1070.12 721.289 1070.55C721.477 1070.98 721.734 1071.34 722.062 1071.63C722.391 1071.95 722.781 1072.19 723.234 1072.36C723.703 1072.53 724.219 1072.62 724.781 1072.62C725.938 1072.62 726.852 1072.3 727.523 1071.66C728.211 1071 728.555 1070.16 728.555 1069.15C728.555 1068.13 728.211 1067.3 727.523 1066.66C726.852 1066.01 725.938 1065.68 724.781 1065.68C724.219 1065.68 723.703 1065.77 723.234 1065.94C722.781 1066.11 722.391 1066.34 722.062 1066.64C721.734 1066.95 721.477 1067.33 721.289 1067.77C721.117 1068.19 721.031 1068.65 721.031 1069.15ZM753.68 1101.47C756.133 1101.47 758.258 1100.99 760.055 1100.04C761.852 1099.09 763.164 1098.02 763.992 1096.85L760.734 1093.34C759.984 1094.3 759.008 1095.03 757.805 1095.52C756.602 1096 755.359 1096.24 754.078 1096.24C753.172 1096.24 752.336 1096.1 751.57 1095.82C750.805 1095.54 750.125 1095.14 749.531 1094.62C748.953 1094.12 748.492 1093.57 748.148 1092.96C747.805 1092.34 747.523 1091.52 747.305 1090.5V1090.43H764.508V1087.66C764.508 1085.8 764.25 1084.11 763.734 1082.58C763.219 1081.03 762.469 1079.71 761.484 1078.62C760.484 1077.52 759.266 1076.68 757.828 1076.09C756.406 1075.48 754.781 1075.17 752.953 1075.17C751.188 1075.17 749.555 1075.49 748.055 1076.13C746.555 1076.77 745.258 1077.67 744.164 1078.83C743.07 1079.98 742.219 1081.37 741.609 1082.98C741 1084.57 740.695 1086.34 740.695 1088.27V1089.21C740.695 1090.91 741 1092.52 741.609 1094.02C742.234 1095.5 743.117 1096.79 744.258 1097.88C745.398 1098.99 746.766 1099.87 748.359 1100.51C749.953 1101.15 751.727 1101.47 753.68 1101.47ZM752.906 1080.45C753.734 1080.45 754.461 1080.58 755.086 1080.84C755.727 1081.09 756.266 1081.44 756.703 1081.88C757.141 1082.33 757.484 1082.86 757.734 1083.47C757.984 1084.08 758.109 1084.73 758.109 1085.41V1085.93H747.422C747.578 1085.1 747.812 1084.35 748.125 1083.68C748.438 1083.01 748.828 1082.43 749.297 1081.95C749.75 1081.46 750.281 1081.09 750.891 1080.84C751.5 1080.58 752.172 1080.45 752.906 1080.45ZM772.078 1101H777.797L780.492 1087.45L781.008 1084.88L781.547 1087.45L784.336 1101H790.055L794.602 1075.64H788.625L786.75 1090.59L786.422 1093.05L785.977 1090.64L783.234 1075.64H778.875L776.133 1090.71L775.688 1093.12L775.383 1090.71L773.484 1075.64H767.531L772.078 1101Z" fill="white"/>
<path d="M550.443 1254.15L434.887 1054L550.443 853.85H781.557L897.113 1054L781.557 1254.15H550.443Z" stroke="#3949AB" stroke-width="5"/>
</svg>
