<svg width="900" height="1141" viewBox="0 0 900 1141" fill="none" xmlns="http://www.w3.org/2000/svg">
<path d="M49.6406 254H62.0859C63.9609 254 65.6484 253.789 67.1484 253.367C68.6484 252.945 69.9219 252.312 70.9688 251.469C72.0156 250.625 72.8203 249.578 73.3828 248.328C73.9453 247.078 74.2266 245.633 74.2266 243.992C74.2266 243.133 74.1094 242.305 73.875 241.508C73.6562 240.695 73.3125 239.945 72.8438 239.258C72.3906 238.617 71.8281 238.055 71.1562 237.57C70.5 237.086 69.6094 236.688 68.4844 236.375V236.352C69.0625 236.133 69.5859 235.867 70.0547 235.555C70.5391 235.242 70.9688 234.898 71.3438 234.523C72.0312 233.836 72.5469 233.039 72.8906 232.133C73.25 231.211 73.4375 230.234 73.4531 229.203C73.4531 227.609 73.1562 226.227 72.5625 225.055C71.9844 223.883 71.1562 222.914 70.0781 222.148C69 221.383 67.6953 220.812 66.1641 220.438C64.6484 220.062 62.9609 219.875 61.1016 219.875H49.6406V254ZM56.25 238.953H62.3906C63.3125 238.969 64.1094 239.094 64.7812 239.328C65.4531 239.562 66 239.898 66.4219 240.336C66.8438 240.758 67.1484 241.273 67.3359 241.883C67.5391 242.492 67.6406 243.18 67.6406 243.945C67.6406 244.68 67.5078 245.344 67.2422 245.938C66.9922 246.531 66.6172 247.039 66.1172 247.461C65.6641 247.836 65.0938 248.133 64.4062 248.352C63.7344 248.57 62.9688 248.68 62.1094 248.68H56.25V238.953ZM56.25 234.195V225.242H61.125C62.1875 225.258 63.1094 225.375 63.8906 225.594C64.6875 225.812 65.3203 226.164 65.7891 226.648C66.1484 226.992 66.4141 227.422 66.5859 227.938C66.7734 228.453 66.8672 229.055 66.8672 229.742C66.8672 230.398 66.7578 230.984 66.5391 231.5C66.3359 232.016 66.0391 232.453 65.6484 232.812C65.1797 233.266 64.5625 233.609 63.7969 233.844C63.0312 234.062 62.1484 234.18 61.1484 234.195H56.25ZM96.9609 228.172C95.2578 228.172 93.6875 228.586 92.25 229.414C90.8125 230.227 89.5781 231.352 88.5469 232.789L88.5 232.227L88.2422 228.641H82.1719V254H88.6875V238.766C88.9844 238.047 89.3594 237.422 89.8125 236.891C90.2656 236.359 90.8125 235.922 91.4531 235.578C91.9844 235.281 92.5859 235.062 93.2578 234.922C93.9453 234.766 94.7109 234.688 95.5547 234.688C96.3672 234.688 97.2188 234.742 98.1094 234.852C99.0156 234.945 99.8984 235.094 100.758 235.297L101.719 228.805C101.203 228.648 100.523 228.508 99.6797 228.383C98.8516 228.242 97.9453 228.172 96.9609 228.172ZM123.422 254H130.031V253.602C129.703 252.961 129.453 252.195 129.281 251.305C129.109 250.414 129.023 249.289 129.023 247.93V237.055C129.023 235.586 128.75 234.297 128.203 233.188C127.656 232.062 126.898 231.133 125.93 230.398C124.961 229.664 123.812 229.109 122.484 228.734C121.172 228.359 119.75 228.172 118.219 228.172C116.516 228.172 115 228.391 113.672 228.828C112.359 229.25 111.25 229.828 110.344 230.562C109.422 231.297 108.719 232.148 108.234 233.117C107.766 234.086 107.531 235.109 107.531 236.188H114.047C114.047 235.734 114.109 235.32 114.234 234.945C114.375 234.57 114.586 234.25 114.867 233.984C115.18 233.688 115.586 233.461 116.086 233.305C116.586 233.133 117.18 233.047 117.867 233.047C118.648 233.047 119.328 233.148 119.906 233.352C120.5 233.539 120.992 233.812 121.383 234.172C121.758 234.516 122.039 234.93 122.227 235.414C122.414 235.883 122.508 236.414 122.508 237.008V238.508H118.875C117 238.508 115.336 238.68 113.883 239.023C112.445 239.352 111.234 239.836 110.25 240.477C109.156 241.18 108.336 242.078 107.789 243.172C107.242 244.25 106.969 245.492 106.969 246.898C106.969 247.992 107.188 249.008 107.625 249.945C108.062 250.867 108.672 251.664 109.453 252.336C110.234 253.008 111.164 253.531 112.242 253.906C113.336 254.281 114.531 254.469 115.828 254.469C116.625 254.469 117.367 254.391 118.055 254.234C118.742 254.094 119.375 253.891 119.953 253.625C120.516 253.375 121.031 253.078 121.5 252.734C121.969 252.391 122.383 252.023 122.742 251.633C122.82 252.086 122.914 252.516 123.023 252.922C123.133 253.328 123.266 253.688 123.422 254ZM117.211 249.43C116.602 249.43 116.062 249.359 115.594 249.219C115.141 249.062 114.758 248.859 114.445 248.609C114.133 248.344 113.891 248.023 113.719 247.648C113.562 247.258 113.484 246.836 113.484 246.383C113.484 245.805 113.594 245.273 113.812 244.789C114.031 244.289 114.367 243.859 114.82 243.5C115.273 243.156 115.859 242.891 116.578 242.703C117.297 242.5 118.164 242.398 119.18 242.398H122.508V246.758C122.32 247.086 122.062 247.414 121.734 247.742C121.406 248.055 121.016 248.336 120.562 248.586C120.109 248.836 119.602 249.039 119.039 249.195C118.477 249.352 117.867 249.43 117.211 249.43ZM138.141 228.641V233.961H145.359V248.703H138.141V254H158.812V248.703H151.945V228.641H138.141ZM144.891 222.148C144.891 222.648 144.977 223.117 145.148 223.555C145.336 223.977 145.594 224.336 145.922 224.633C146.25 224.945 146.641 225.188 147.094 225.359C147.562 225.531 148.078 225.617 148.641 225.617C149.797 225.617 150.711 225.297 151.383 224.656C152.07 224 152.414 223.164 152.414 222.148C152.414 221.133 152.07 220.305 151.383 219.664C150.711 219.008 149.797 218.68 148.641 218.68C148.078 218.68 147.562 218.766 147.094 218.938C146.641 219.109 146.25 219.344 145.922 219.641C145.594 219.953 145.336 220.328 145.148 220.766C144.977 221.188 144.891 221.648 144.891 222.148ZM165.234 254H171.773V235.977C171.992 235.633 172.234 235.32 172.5 235.039C172.766 234.758 173.062 234.516 173.391 234.312C173.797 234.031 174.258 233.82 174.773 233.68C175.305 233.539 175.883 233.469 176.508 233.469C177.258 233.469 177.93 233.547 178.523 233.703C179.117 233.844 179.625 234.102 180.047 234.477C180.469 234.852 180.789 235.367 181.008 236.023C181.242 236.664 181.359 237.484 181.359 238.484V254H187.875V238.391C187.875 236.547 187.656 234.984 187.219 233.703C186.797 232.406 186.203 231.344 185.438 230.516C184.656 229.703 183.734 229.109 182.672 228.734C181.609 228.359 180.438 228.172 179.156 228.172C178.156 228.172 177.211 228.312 176.32 228.594C175.43 228.875 174.609 229.281 173.859 229.812C173.422 230.125 173.008 230.477 172.617 230.867C172.227 231.258 171.867 231.688 171.539 232.156L171.141 228.641H165.234V254ZM210.422 247.039C210.422 247.43 210.32 247.789 210.117 248.117C209.93 248.445 209.641 248.734 209.25 248.984C208.844 249.234 208.32 249.438 207.68 249.594C207.055 249.734 206.32 249.805 205.477 249.805C204.773 249.805 204.086 249.734 203.414 249.594C202.758 249.453 202.172 249.227 201.656 248.914C201.141 248.617 200.719 248.227 200.391 247.742C200.062 247.242 199.875 246.648 199.828 245.961H193.617C193.617 246.992 193.867 248.023 194.367 249.055C194.883 250.07 195.633 250.977 196.617 251.773C197.602 252.586 198.82 253.242 200.273 253.742C201.742 254.242 203.43 254.492 205.336 254.492C207.07 254.492 208.641 254.305 210.047 253.93C211.453 253.539 212.656 253 213.656 252.312C214.641 251.625 215.398 250.812 215.93 249.875C216.477 248.922 216.75 247.883 216.75 246.758C216.75 245.539 216.477 244.492 215.93 243.617C215.398 242.727 214.656 241.969 213.703 241.344C212.75 240.734 211.617 240.234 210.305 239.844C208.992 239.453 207.57 239.133 206.039 238.883C204.977 238.727 204.102 238.547 203.414 238.344C202.727 238.125 202.188 237.883 201.797 237.617C201.391 237.367 201.109 237.086 200.953 236.773C200.797 236.445 200.719 236.094 200.719 235.719C200.719 235.344 200.805 234.992 200.977 234.664C201.164 234.32 201.43 234.023 201.773 233.773C202.148 233.492 202.633 233.273 203.227 233.117C203.82 232.961 204.516 232.883 205.312 232.883C206.25 232.883 207.047 233 207.703 233.234C208.375 233.469 208.906 233.781 209.297 234.172C209.578 234.469 209.789 234.805 209.93 235.18C210.07 235.539 210.141 235.93 210.141 236.352H216.656C216.656 235.18 216.398 234.094 215.883 233.094C215.367 232.094 214.625 231.227 213.656 230.492C212.672 229.773 211.477 229.211 210.07 228.805C208.664 228.383 207.078 228.172 205.312 228.172C203.625 228.172 202.109 228.383 200.766 228.805C199.422 229.227 198.281 229.797 197.344 230.516C196.406 231.234 195.688 232.07 195.188 233.023C194.688 233.977 194.438 234.977 194.438 236.023C194.438 237.102 194.68 238.055 195.164 238.883C195.664 239.711 196.352 240.438 197.227 241.062C198.102 241.703 199.148 242.25 200.367 242.703C201.602 243.141 202.961 243.508 204.445 243.805C205.617 244.023 206.586 244.242 207.352 244.461C208.117 244.68 208.734 244.914 209.203 245.164C209.656 245.43 209.969 245.711 210.141 246.008C210.328 246.305 210.422 246.648 210.422 247.039ZM234.844 222.43H228.328V228.641H222.539V233.445H228.328V244.977C228.328 246.648 228.547 248.086 228.984 249.289C229.422 250.477 230.047 251.453 230.859 252.219C231.656 253 232.617 253.578 233.742 253.953C234.883 254.312 236.148 254.492 237.539 254.492C238.258 254.492 238.984 254.453 239.719 254.375C240.469 254.312 241.188 254.219 241.875 254.094C242.562 253.969 243.211 253.812 243.82 253.625C244.43 253.422 244.961 253.188 245.414 252.922L244.781 248.445C244.484 248.523 244.125 248.602 243.703 248.68C243.297 248.758 242.859 248.828 242.391 248.891C241.906 248.969 241.398 249.031 240.867 249.078C240.352 249.125 239.844 249.148 239.344 249.148C238.656 249.148 238.031 249.07 237.469 248.914C236.922 248.758 236.453 248.492 236.062 248.117C235.672 247.758 235.367 247.273 235.148 246.664C234.945 246.039 234.844 245.266 234.844 244.344V233.445H244.312V228.641H234.844V222.43ZM250.828 241.086V241.578C250.828 243.438 251.094 245.156 251.625 246.734C252.156 248.297 252.938 249.656 253.969 250.812C254.984 251.969 256.234 252.875 257.719 253.531C259.219 254.172 260.922 254.492 262.828 254.492C264.719 254.492 266.406 254.172 267.891 253.531C269.375 252.875 270.625 251.969 271.641 250.812C272.656 249.656 273.43 248.297 273.961 246.734C274.492 245.156 274.758 243.438 274.758 241.578V241.086C274.758 239.242 274.492 237.539 273.961 235.977C273.43 234.398 272.656 233.031 271.641 231.875C270.609 230.719 269.352 229.812 267.867 229.156C266.383 228.5 264.688 228.172 262.781 228.172C260.875 228.172 259.18 228.5 257.695 229.156C256.227 229.812 254.984 230.719 253.969 231.875C252.938 233.031 252.156 234.398 251.625 235.977C251.094 237.539 250.828 239.242 250.828 241.086ZM257.344 241.578V241.086C257.344 240.055 257.445 239.078 257.648 238.156C257.852 237.234 258.172 236.422 258.609 235.719C259.047 235.016 259.609 234.461 260.297 234.055C260.984 233.648 261.812 233.445 262.781 233.445C263.766 233.445 264.602 233.648 265.289 234.055C265.977 234.461 266.539 235.016 266.977 235.719C267.398 236.422 267.711 237.234 267.914 238.156C268.117 239.078 268.219 240.055 268.219 241.086V241.578C268.219 242.641 268.117 243.641 267.914 244.578C267.711 245.5 267.398 246.305 266.977 246.992C266.539 247.695 265.977 248.25 265.289 248.656C264.602 249.062 263.781 249.266 262.828 249.266C261.844 249.266 261 249.062 260.297 248.656C259.609 248.25 259.047 247.695 258.609 246.992C258.172 246.305 257.852 245.5 257.648 244.578C257.445 243.641 257.344 242.641 257.344 241.578ZM298.758 228.172C297.055 228.172 295.484 228.586 294.047 229.414C292.609 230.227 291.375 231.352 290.344 232.789L290.297 232.227L290.039 228.641H283.969V254H290.484V238.766C290.781 238.047 291.156 237.422 291.609 236.891C292.062 236.359 292.609 235.922 293.25 235.578C293.781 235.281 294.383 235.062 295.055 234.922C295.742 234.766 296.508 234.688 297.352 234.688C298.164 234.688 299.016 234.742 299.906 234.852C300.812 234.945 301.695 235.094 302.555 235.297L303.516 228.805C303 228.648 302.32 228.508 301.477 228.383C300.648 228.242 299.742 228.172 298.758 228.172ZM313.43 228.641H307.828V254H313.758V235.016C313.836 234.812 313.922 234.625 314.016 234.453C314.109 234.281 314.219 234.133 314.344 234.008C314.516 233.836 314.711 233.703 314.93 233.609C315.148 233.516 315.398 233.469 315.68 233.469C315.93 233.469 316.164 233.508 316.383 233.586C316.602 233.648 316.797 233.766 316.969 233.938C317.125 234.109 317.25 234.352 317.344 234.664C317.438 234.977 317.484 235.375 317.484 235.859V254H323.227V235.297C323.227 235.109 323.227 234.961 323.227 234.852C323.227 234.742 323.227 234.672 323.227 234.641C323.305 234.469 323.398 234.32 323.508 234.195C323.617 234.055 323.742 233.93 323.883 233.82C324.055 233.711 324.234 233.625 324.422 233.562C324.625 233.5 324.852 233.469 325.102 233.469C325.336 233.469 325.562 233.508 325.781 233.586C326.016 233.648 326.219 233.766 326.391 233.938C326.562 234.125 326.695 234.375 326.789 234.688C326.898 235 326.953 235.398 326.953 235.883V254H332.883V235.906C332.883 234.5 332.742 233.312 332.461 232.344C332.195 231.359 331.82 230.555 331.336 229.93C330.836 229.32 330.25 228.875 329.578 228.594C328.922 228.312 328.211 228.172 327.445 228.172C326.836 228.172 326.273 228.25 325.758 228.406C325.242 228.562 324.781 228.781 324.375 229.062C324.047 229.281 323.742 229.547 323.461 229.859C323.195 230.156 322.953 230.492 322.734 230.867C322.594 230.477 322.422 230.133 322.219 229.836C322.031 229.523 321.805 229.258 321.539 229.039C321.195 228.742 320.789 228.523 320.32 228.383C319.852 228.242 319.32 228.172 318.727 228.172C317.508 228.172 316.469 228.492 315.609 229.133C314.766 229.758 314.102 230.617 313.617 231.711L313.43 228.641ZM339.938 228.641V233.961H347.156V248.703H339.938V254H360.609V248.703H353.742V228.641H339.938ZM346.688 222.148C346.688 222.648 346.773 223.117 346.945 223.555C347.133 223.977 347.391 224.336 347.719 224.633C348.047 224.945 348.438 225.188 348.891 225.359C349.359 225.531 349.875 225.617 350.438 225.617C351.594 225.617 352.508 225.297 353.18 224.656C353.867 224 354.211 223.164 354.211 222.148C354.211 221.133 353.867 220.305 353.18 219.664C352.508 219.008 351.594 218.68 350.438 218.68C349.875 218.68 349.359 218.766 348.891 218.938C348.438 219.109 348.047 219.344 347.719 219.641C347.391 219.953 347.133 220.328 346.945 220.766C346.773 221.188 346.688 221.648 346.688 222.148ZM367.031 254H373.57V235.977C373.789 235.633 374.031 235.32 374.297 235.039C374.562 234.758 374.859 234.516 375.188 234.312C375.594 234.031 376.055 233.82 376.57 233.68C377.102 233.539 377.68 233.469 378.305 233.469C379.055 233.469 379.727 233.547 380.32 233.703C380.914 233.844 381.422 234.102 381.844 234.477C382.266 234.852 382.586 235.367 382.805 236.023C383.039 236.664 383.156 237.484 383.156 238.484V254H389.672V238.391C389.672 236.547 389.453 234.984 389.016 233.703C388.594 232.406 388 231.344 387.234 230.516C386.453 229.703 385.531 229.109 384.469 228.734C383.406 228.359 382.234 228.172 380.953 228.172C379.953 228.172 379.008 228.312 378.117 228.594C377.227 228.875 376.406 229.281 375.656 229.812C375.219 230.125 374.805 230.477 374.414 230.867C374.023 231.258 373.664 231.688 373.336 232.156L372.938 228.641H367.031V254ZM395.203 241.133V241.625C395.203 243.469 395.438 245.18 395.906 246.758C396.391 248.32 397.078 249.672 397.969 250.812C398.859 251.953 399.93 252.852 401.18 253.508C402.445 254.148 403.867 254.469 405.445 254.469C406.242 254.469 406.984 254.383 407.672 254.211C408.375 254.039 409.016 253.797 409.594 253.484C409.984 253.266 410.352 253.016 410.695 252.734C411.039 252.453 411.367 252.141 411.68 251.797V253.25C411.68 254.109 411.555 254.883 411.305 255.57C411.07 256.258 410.727 256.836 410.273 257.305C409.773 257.82 409.148 258.211 408.398 258.477C407.664 258.742 406.82 258.875 405.867 258.875C405.273 258.875 404.695 258.812 404.133 258.688C403.586 258.578 403.055 258.406 402.539 258.172C402.008 257.938 401.5 257.633 401.016 257.258C400.531 256.898 400.078 256.477 399.656 255.992L396.727 259.953C397.273 260.656 397.93 261.258 398.695 261.758C399.461 262.273 400.273 262.695 401.133 263.023C401.992 263.352 402.859 263.594 403.734 263.75C404.609 263.906 405.43 263.984 406.195 263.984C407.977 263.984 409.602 263.742 411.07 263.258C412.555 262.789 413.828 262.094 414.891 261.172C415.938 260.25 416.75 259.117 417.328 257.773C417.922 256.43 418.219 254.898 418.219 253.18V228.641H412.289L412.031 231.055C411.719 230.664 411.375 230.312 411 230C410.625 229.672 410.219 229.391 409.781 229.156C409.203 228.828 408.555 228.586 407.836 228.43C407.133 228.258 406.352 228.172 405.492 228.172C403.898 228.172 402.469 228.484 401.203 229.109C399.938 229.734 398.859 230.617 397.969 231.758C397.078 232.898 396.391 234.266 395.906 235.859C395.438 237.453 395.203 239.211 395.203 241.133ZM401.742 241.625V241.133C401.742 240.07 401.852 239.078 402.07 238.156C402.289 237.219 402.625 236.398 403.078 235.695C403.516 235.008 404.07 234.469 404.742 234.078C405.414 233.672 406.211 233.469 407.133 233.469C407.633 233.469 408.094 233.516 408.516 233.609C408.953 233.703 409.352 233.836 409.711 234.008C410.133 234.211 410.508 234.477 410.836 234.805C411.164 235.133 411.445 235.516 411.68 235.953V246.688C411.461 247.078 411.203 247.43 410.906 247.742C410.609 248.055 410.266 248.32 409.875 248.539C409.5 248.742 409.078 248.898 408.609 249.008C408.156 249.117 407.648 249.172 407.086 249.172C406.164 249.172 405.367 248.977 404.695 248.586C404.023 248.195 403.469 247.656 403.031 246.969C402.594 246.297 402.266 245.508 402.047 244.602C401.844 243.68 401.742 242.688 401.742 241.625Z" fill="white"/>
<path d="M118.443 434.15L2.88675 234L118.443 33.85H349.557L465.113 234L349.557 434.15H118.443Z" stroke="#3949AB" stroke-width="5"/>
<path d="M589.641 560.68V531.875H583.031V566H605.625V560.68H589.641ZM610.758 553.086V553.578C610.758 555.438 611.023 557.156 611.555 558.734C612.086 560.297 612.867 561.656 613.898 562.812C614.914 563.969 616.164 564.875 617.648 565.531C619.148 566.172 620.852 566.492 622.758 566.492C624.648 566.492 626.336 566.172 627.82 565.531C629.305 564.875 630.555 563.969 631.57 562.812C632.586 561.656 633.359 560.297 633.891 558.734C634.422 557.156 634.688 555.438 634.688 553.578V553.086C634.688 551.242 634.422 549.539 633.891 547.977C633.359 546.398 632.586 545.031 631.57 543.875C630.539 542.719 629.281 541.812 627.797 541.156C626.312 540.5 624.617 540.172 622.711 540.172C620.805 540.172 619.109 540.5 617.625 541.156C616.156 541.812 614.914 542.719 613.898 543.875C612.867 545.031 612.086 546.398 611.555 547.977C611.023 549.539 610.758 551.242 610.758 553.086ZM617.273 553.578V553.086C617.273 552.055 617.375 551.078 617.578 550.156C617.781 549.234 618.102 548.422 618.539 547.719C618.977 547.016 619.539 546.461 620.227 546.055C620.914 545.648 621.742 545.445 622.711 545.445C623.695 545.445 624.531 545.648 625.219 546.055C625.906 546.461 626.469 547.016 626.906 547.719C627.328 548.422 627.641 549.234 627.844 550.156C628.047 551.078 628.148 552.055 628.148 553.086V553.578C628.148 554.641 628.047 555.641 627.844 556.578C627.641 557.5 627.328 558.305 626.906 558.992C626.469 559.695 625.906 560.25 625.219 560.656C624.531 561.062 623.711 561.266 622.758 561.266C621.773 561.266 620.93 561.062 620.227 560.656C619.539 560.25 618.977 559.695 618.539 558.992C618.102 558.305 617.781 557.5 617.578 556.578C617.375 555.641 617.273 554.641 617.273 553.578ZM663.305 553.578V548.305H643.781V553.578H663.305ZM675.609 566H682.148V545.445H691.289V540.641H682.148V539.258C682.148 538.508 682.242 537.836 682.43 537.242C682.633 536.648 682.938 536.148 683.344 535.742C683.797 535.258 684.406 534.891 685.172 534.641C685.938 534.391 686.867 534.266 687.961 534.266C688.977 534.266 689.859 534.312 690.609 534.406C691.359 534.5 692.031 534.609 692.625 534.734L693.047 529.625C692.516 529.531 692 529.445 691.5 529.367C691.016 529.289 690.531 529.219 690.047 529.156C689.562 529.094 689.062 529.047 688.547 529.016C688.047 528.969 687.523 528.945 686.977 528.945C685.242 528.945 683.672 529.172 682.266 529.625C680.859 530.062 679.664 530.719 678.68 531.594C677.695 532.469 676.938 533.547 676.406 534.828C675.875 536.109 675.609 537.586 675.609 539.258V540.641H668.953V545.445H675.609V566ZM699.867 540.641V545.961H707.086V560.703H699.867V566H720.539V560.703H713.672V540.641H699.867ZM706.617 534.148C706.617 534.648 706.703 535.117 706.875 535.555C707.062 535.977 707.32 536.336 707.648 536.633C707.977 536.945 708.367 537.188 708.82 537.359C709.289 537.531 709.805 537.617 710.367 537.617C711.523 537.617 712.438 537.297 713.109 536.656C713.797 536 714.141 535.164 714.141 534.148C714.141 533.133 713.797 532.305 713.109 531.664C712.438 531.008 711.523 530.68 710.367 530.68C709.805 530.68 709.289 530.766 708.82 530.938C708.367 531.109 707.977 531.344 707.648 531.641C707.32 531.953 707.062 532.328 706.875 532.766C706.703 533.188 706.617 533.648 706.617 534.148ZM525.258 638.75H531.773V626.797C532.07 627.125 532.383 627.422 532.711 627.688C533.039 627.953 533.383 628.195 533.742 628.414C534.352 628.758 535.008 629.016 535.711 629.188C536.43 629.375 537.211 629.469 538.055 629.469C539.648 629.469 541.062 629.141 542.297 628.484C543.531 627.828 544.57 626.922 545.414 625.766C546.242 624.625 546.867 623.266 547.289 621.688C547.727 620.109 547.945 618.398 547.945 616.555V616.062C547.945 614.141 547.727 612.391 547.289 610.812C546.867 609.219 546.234 607.852 545.391 606.711C544.547 605.586 543.508 604.719 542.273 604.109C541.039 603.484 539.617 603.172 538.008 603.172C537.227 603.172 536.492 603.258 535.805 603.43C535.133 603.586 534.516 603.812 533.953 604.109C533.484 604.359 533.047 604.656 532.641 605C532.234 605.328 531.859 605.703 531.516 606.125L531.281 603.641H525.258V638.75ZM541.43 616.062V616.555C541.43 617.602 541.336 618.594 541.148 619.531C540.961 620.453 540.664 621.266 540.258 621.969C539.852 622.672 539.32 623.227 538.664 623.633C538.023 624.039 537.242 624.242 536.32 624.242C535.742 624.242 535.219 624.188 534.75 624.078C534.281 623.953 533.867 623.781 533.508 623.562C533.133 623.328 532.797 623.047 532.5 622.719C532.219 622.391 531.977 622.023 531.773 621.617V611.023C531.992 610.586 532.25 610.203 532.547 609.875C532.859 609.547 533.219 609.273 533.625 609.055C533.984 608.867 534.383 608.727 534.82 608.633C535.258 608.523 535.742 608.469 536.273 608.469C537.195 608.469 537.977 608.664 538.617 609.055C539.273 609.445 539.812 609.977 540.234 610.648C540.641 611.336 540.938 612.148 541.125 613.086C541.328 614.008 541.43 615 541.43 616.062ZM572.203 603.172C570.5 603.172 568.93 603.586 567.492 604.414C566.055 605.227 564.82 606.352 563.789 607.789L563.742 607.227L563.484 603.641H557.414V629H563.93V613.766C564.227 613.047 564.602 612.422 565.055 611.891C565.508 611.359 566.055 610.922 566.695 610.578C567.227 610.281 567.828 610.062 568.5 609.922C569.188 609.766 569.953 609.688 570.797 609.688C571.609 609.688 572.461 609.742 573.352 609.852C574.258 609.945 575.141 610.094 576 610.297L576.961 603.805C576.445 603.648 575.766 603.508 574.922 603.383C574.094 603.242 573.188 603.172 572.203 603.172ZM581.93 616.086V616.578C581.93 618.438 582.195 620.156 582.727 621.734C583.258 623.297 584.039 624.656 585.07 625.812C586.086 626.969 587.336 627.875 588.82 628.531C590.32 629.172 592.023 629.492 593.93 629.492C595.82 629.492 597.508 629.172 598.992 628.531C600.477 627.875 601.727 626.969 602.742 625.812C603.758 624.656 604.531 623.297 605.062 621.734C605.594 620.156 605.859 618.438 605.859 616.578V616.086C605.859 614.242 605.594 612.539 605.062 610.977C604.531 609.398 603.758 608.031 602.742 606.875C601.711 605.719 600.453 604.812 598.969 604.156C597.484 603.5 595.789 603.172 593.883 603.172C591.977 603.172 590.281 603.5 588.797 604.156C587.328 604.812 586.086 605.719 585.07 606.875C584.039 608.031 583.258 609.398 582.727 610.977C582.195 612.539 581.93 614.242 581.93 616.086ZM588.445 616.578V616.086C588.445 615.055 588.547 614.078 588.75 613.156C588.953 612.234 589.273 611.422 589.711 610.719C590.148 610.016 590.711 609.461 591.398 609.055C592.086 608.648 592.914 608.445 593.883 608.445C594.867 608.445 595.703 608.648 596.391 609.055C597.078 609.461 597.641 610.016 598.078 610.719C598.5 611.422 598.812 612.234 599.016 613.156C599.219 614.078 599.32 615.055 599.32 616.086V616.578C599.32 617.641 599.219 618.641 599.016 619.578C598.812 620.5 598.5 621.305 598.078 621.992C597.641 622.695 597.078 623.25 596.391 623.656C595.703 624.062 594.883 624.266 593.93 624.266C592.945 624.266 592.102 624.062 591.398 623.656C590.711 623.25 590.148 622.695 589.711 621.992C589.273 621.305 588.953 620.5 588.75 619.578C588.547 618.641 588.445 617.641 588.445 616.578ZM623.602 597.43H617.086V603.641H611.297V608.445H617.086V619.977C617.086 621.648 617.305 623.086 617.742 624.289C618.18 625.477 618.805 626.453 619.617 627.219C620.414 628 621.375 628.578 622.5 628.953C623.641 629.312 624.906 629.492 626.297 629.492C627.016 629.492 627.742 629.453 628.477 629.375C629.227 629.312 629.945 629.219 630.633 629.094C631.32 628.969 631.969 628.812 632.578 628.625C633.188 628.422 633.719 628.188 634.172 627.922L633.539 623.445C633.242 623.523 632.883 623.602 632.461 623.68C632.055 623.758 631.617 623.828 631.148 623.891C630.664 623.969 630.156 624.031 629.625 624.078C629.109 624.125 628.602 624.148 628.102 624.148C627.414 624.148 626.789 624.07 626.227 623.914C625.68 623.758 625.211 623.492 624.82 623.117C624.43 622.758 624.125 622.273 623.906 621.664C623.703 621.039 623.602 620.266 623.602 619.344V608.445H633.07V603.641H623.602V597.43ZM639.586 616.086V616.578C639.586 618.438 639.852 620.156 640.383 621.734C640.914 623.297 641.695 624.656 642.727 625.812C643.742 626.969 644.992 627.875 646.477 628.531C647.977 629.172 649.68 629.492 651.586 629.492C653.477 629.492 655.164 629.172 656.648 628.531C658.133 627.875 659.383 626.969 660.398 625.812C661.414 624.656 662.188 623.297 662.719 621.734C663.25 620.156 663.516 618.438 663.516 616.578V616.086C663.516 614.242 663.25 612.539 662.719 610.977C662.188 609.398 661.414 608.031 660.398 606.875C659.367 605.719 658.109 604.812 656.625 604.156C655.141 603.5 653.445 603.172 651.539 603.172C649.633 603.172 647.938 603.5 646.453 604.156C644.984 604.812 643.742 605.719 642.727 606.875C641.695 608.031 640.914 609.398 640.383 610.977C639.852 612.539 639.586 614.242 639.586 616.086ZM646.102 616.578V616.086C646.102 615.055 646.203 614.078 646.406 613.156C646.609 612.234 646.93 611.422 647.367 610.719C647.805 610.016 648.367 609.461 649.055 609.055C649.742 608.648 650.57 608.445 651.539 608.445C652.523 608.445 653.359 608.648 654.047 609.055C654.734 609.461 655.297 610.016 655.734 610.719C656.156 611.422 656.469 612.234 656.672 613.156C656.875 614.078 656.977 615.055 656.977 616.086V616.578C656.977 617.641 656.875 618.641 656.672 619.578C656.469 620.5 656.156 621.305 655.734 621.992C655.297 622.695 654.734 623.25 654.047 623.656C653.359 624.062 652.539 624.266 651.586 624.266C650.602 624.266 649.758 624.062 649.055 623.656C648.367 623.25 647.805 622.695 647.367 621.992C646.93 621.305 646.609 620.5 646.406 619.578C646.203 618.641 646.102 617.641 646.102 616.578ZM673.312 639.242C674.625 639.242 675.758 639.023 676.711 638.586C677.68 638.148 678.5 637.609 679.172 636.969C679.844 636.328 680.398 635.633 680.836 634.883C681.289 634.133 681.656 633.438 681.938 632.797L694.805 603.641H687.609L681.82 618.547L680.859 621.078L680.156 618.5L674.344 603.641H667.219L677.953 627.922L676.453 630.711C676.266 631.055 676.102 631.32 675.961 631.508C675.836 631.695 675.633 631.977 675.352 632.352C675.07 632.727 674.727 633.07 674.32 633.383C673.93 633.711 673.477 633.875 672.961 633.875C672.711 633.875 672.375 633.859 671.953 633.828C671.547 633.812 671.211 633.805 670.945 633.805L670.148 638.773C670.711 638.93 671.219 639.047 671.672 639.125C672.141 639.203 672.688 639.242 673.312 639.242ZM698.227 638.75H704.742V626.797C705.039 627.125 705.352 627.422 705.68 627.688C706.008 627.953 706.352 628.195 706.711 628.414C707.32 628.758 707.977 629.016 708.68 629.188C709.398 629.375 710.18 629.469 711.023 629.469C712.617 629.469 714.031 629.141 715.266 628.484C716.5 627.828 717.539 626.922 718.383 625.766C719.211 624.625 719.836 623.266 720.258 621.688C720.695 620.109 720.914 618.398 720.914 616.555V616.062C720.914 614.141 720.695 612.391 720.258 610.812C719.836 609.219 719.203 607.852 718.359 606.711C717.516 605.586 716.477 604.719 715.242 604.109C714.008 603.484 712.586 603.172 710.977 603.172C710.195 603.172 709.461 603.258 708.773 603.43C708.102 603.586 707.484 603.812 706.922 604.109C706.453 604.359 706.016 604.656 705.609 605C705.203 605.328 704.828 605.703 704.484 606.125L704.25 603.641H698.227V638.75ZM714.398 616.062V616.555C714.398 617.602 714.305 618.594 714.117 619.531C713.93 620.453 713.633 621.266 713.227 621.969C712.82 622.672 712.289 623.227 711.633 623.633C710.992 624.039 710.211 624.242 709.289 624.242C708.711 624.242 708.188 624.188 707.719 624.078C707.25 623.953 706.836 623.781 706.477 623.562C706.102 623.328 705.766 623.047 705.469 622.719C705.188 622.391 704.945 622.023 704.742 621.617V611.023C704.961 610.586 705.219 610.203 705.516 609.875C705.828 609.547 706.188 609.273 706.594 609.055C706.953 608.867 707.352 608.727 707.789 608.633C708.227 608.523 708.711 608.469 709.242 608.469C710.164 608.469 710.945 608.664 711.586 609.055C712.242 609.445 712.781 609.977 713.203 610.648C713.609 611.336 713.906 612.148 714.094 613.086C714.297 614.008 714.398 615 714.398 616.062ZM728.695 603.641V608.961H735.914V623.703H728.695V629H749.367V623.703H742.5V603.641H728.695ZM735.445 597.148C735.445 597.648 735.531 598.117 735.703 598.555C735.891 598.977 736.148 599.336 736.477 599.633C736.805 599.945 737.195 600.188 737.648 600.359C738.117 600.531 738.633 600.617 739.195 600.617C740.352 600.617 741.266 600.297 741.938 599.656C742.625 599 742.969 598.164 742.969 597.148C742.969 596.133 742.625 595.305 741.938 594.664C741.266 594.008 740.352 593.68 739.195 593.68C738.633 593.68 738.117 593.766 737.648 593.938C737.195 594.109 736.805 594.344 736.477 594.641C736.148 594.953 735.891 595.328 735.703 595.766C735.531 596.188 735.445 596.648 735.445 597.148ZM755.789 629H762.328V610.977C762.547 610.633 762.789 610.32 763.055 610.039C763.32 609.758 763.617 609.516 763.945 609.312C764.352 609.031 764.812 608.82 765.328 608.68C765.859 608.539 766.438 608.469 767.062 608.469C767.812 608.469 768.484 608.547 769.078 608.703C769.672 608.844 770.18 609.102 770.602 609.477C771.023 609.852 771.344 610.367 771.562 611.023C771.797 611.664 771.914 612.484 771.914 613.484V629H778.43V613.391C778.43 611.547 778.211 609.984 777.773 608.703C777.352 607.406 776.758 606.344 775.992 605.516C775.211 604.703 774.289 604.109 773.227 603.734C772.164 603.359 770.992 603.172 769.711 603.172C768.711 603.172 767.766 603.312 766.875 603.594C765.984 603.875 765.164 604.281 764.414 604.812C763.977 605.125 763.562 605.477 763.172 605.867C762.781 606.258 762.422 606.688 762.094 607.156L761.695 603.641H755.789V629ZM783.961 616.133V616.625C783.961 618.469 784.195 620.18 784.664 621.758C785.148 623.32 785.836 624.672 786.727 625.812C787.617 626.953 788.688 627.852 789.938 628.508C791.203 629.148 792.625 629.469 794.203 629.469C795 629.469 795.742 629.383 796.43 629.211C797.133 629.039 797.773 628.797 798.352 628.484C798.742 628.266 799.109 628.016 799.453 627.734C799.797 627.453 800.125 627.141 800.438 626.797V628.25C800.438 629.109 800.312 629.883 800.062 630.57C799.828 631.258 799.484 631.836 799.031 632.305C798.531 632.82 797.906 633.211 797.156 633.477C796.422 633.742 795.578 633.875 794.625 633.875C794.031 633.875 793.453 633.812 792.891 633.688C792.344 633.578 791.812 633.406 791.297 633.172C790.766 632.938 790.258 632.633 789.773 632.258C789.289 631.898 788.836 631.477 788.414 630.992L785.484 634.953C786.031 635.656 786.688 636.258 787.453 636.758C788.219 637.273 789.031 637.695 789.891 638.023C790.75 638.352 791.617 638.594 792.492 638.75C793.367 638.906 794.188 638.984 794.953 638.984C796.734 638.984 798.359 638.742 799.828 638.258C801.312 637.789 802.586 637.094 803.648 636.172C804.695 635.25 805.508 634.117 806.086 632.773C806.68 631.43 806.977 629.898 806.977 628.18V603.641H801.047L800.789 606.055C800.477 605.664 800.133 605.312 799.758 605C799.383 604.672 798.977 604.391 798.539 604.156C797.961 603.828 797.312 603.586 796.594 603.43C795.891 603.258 795.109 603.172 794.25 603.172C792.656 603.172 791.227 603.484 789.961 604.109C788.695 604.734 787.617 605.617 786.727 606.758C785.836 607.898 785.148 609.266 784.664 610.859C784.195 612.453 783.961 614.211 783.961 616.133ZM790.5 616.625V616.133C790.5 615.07 790.609 614.078 790.828 613.156C791.047 612.219 791.383 611.398 791.836 610.695C792.273 610.008 792.828 609.469 793.5 609.078C794.172 608.672 794.969 608.469 795.891 608.469C796.391 608.469 796.852 608.516 797.273 608.609C797.711 608.703 798.109 608.836 798.469 609.008C798.891 609.211 799.266 609.477 799.594 609.805C799.922 610.133 800.203 610.516 800.438 610.953V621.688C800.219 622.078 799.961 622.43 799.664 622.742C799.367 623.055 799.023 623.32 798.633 623.539C798.258 623.742 797.836 623.898 797.367 624.008C796.914 624.117 796.406 624.172 795.844 624.172C794.922 624.172 794.125 623.977 793.453 623.586C792.781 623.195 792.227 622.656 791.789 621.969C791.352 621.297 791.023 620.508 790.805 619.602C790.602 618.68 790.5 617.688 790.5 616.625Z" fill="white"/>
<path d="M550.443 780.15L434.887 580L550.443 379.85H781.557L897.113 580L781.557 780.15H550.443Z" stroke="#3949AB" stroke-width="5"/>
<path d="M129.867 890V855.875H123.352V869.867H113.695V855.875H107.156V890H113.695V875.211H123.352V890H129.867ZM148.711 890.469C151.164 890.469 153.289 889.992 155.086 889.039C156.883 888.086 158.195 887.023 159.023 885.852L155.766 882.336C155.016 883.305 154.039 884.031 152.836 884.516C151.633 885 150.391 885.242 149.109 885.242C148.203 885.242 147.367 885.102 146.602 884.82C145.836 884.539 145.156 884.141 144.562 883.625C143.984 883.125 143.523 882.57 143.18 881.961C142.836 881.336 142.555 880.516 142.336 879.5V879.43H159.539V876.664C159.539 874.805 159.281 873.109 158.766 871.578C158.25 870.031 157.5 868.711 156.516 867.617C155.516 866.523 154.297 865.68 152.859 865.086C151.438 864.477 149.812 864.172 147.984 864.172C146.219 864.172 144.586 864.492 143.086 865.133C141.586 865.773 140.289 866.672 139.195 867.828C138.102 868.984 137.25 870.367 136.641 871.977C136.031 873.57 135.727 875.336 135.727 877.273V878.211C135.727 879.914 136.031 881.516 136.641 883.016C137.266 884.5 138.148 885.789 139.289 886.883C140.43 887.992 141.797 888.867 143.391 889.508C144.984 890.148 146.758 890.469 148.711 890.469ZM147.938 869.445C148.766 869.445 149.492 869.578 150.117 869.844C150.758 870.094 151.297 870.438 151.734 870.875C152.172 871.328 152.516 871.859 152.766 872.469C153.016 873.078 153.141 873.727 153.141 874.414V874.93H142.453C142.609 874.102 142.844 873.352 143.156 872.68C143.469 872.008 143.859 871.43 144.328 870.945C144.781 870.461 145.312 870.094 145.922 869.844C146.531 869.578 147.203 869.445 147.938 869.445ZM181.781 890H187.688V864.641H181.148V882.43C180.945 882.836 180.703 883.203 180.422 883.531C180.141 883.859 179.82 884.141 179.461 884.375C179.039 884.641 178.547 884.844 177.984 884.984C177.438 885.125 176.82 885.195 176.133 885.195C175.367 885.195 174.719 885.102 174.188 884.914C173.656 884.727 173.227 884.414 172.898 883.977C172.57 883.555 172.328 882.992 172.172 882.289C172.031 881.586 171.961 880.719 171.961 879.688V864.641H165.445V879.641C165.445 881.562 165.656 883.211 166.078 884.586C166.516 885.945 167.125 887.062 167.906 887.938C168.688 888.828 169.625 889.477 170.719 889.883C171.812 890.289 173.016 890.492 174.328 890.492C175.766 890.492 177.086 890.133 178.289 889.414C179.508 888.695 180.547 887.703 181.406 886.438L181.781 890ZM212.273 864.172C210.57 864.172 209 864.586 207.562 865.414C206.125 866.227 204.891 867.352 203.859 868.789L203.812 868.227L203.555 864.641H197.484V890H204V874.766C204.297 874.047 204.672 873.422 205.125 872.891C205.578 872.359 206.125 871.922 206.766 871.578C207.297 871.281 207.898 871.062 208.57 870.922C209.258 870.766 210.023 870.688 210.867 870.688C211.68 870.688 212.531 870.742 213.422 870.852C214.328 870.945 215.211 871.094 216.07 871.297L217.031 864.805C216.516 864.648 215.836 864.508 214.992 864.383C214.164 864.242 213.258 864.172 212.273 864.172ZM224.625 864.641V869.961H231.844V884.703H224.625V890H245.297V884.703H238.43V864.641H224.625ZM231.375 858.148C231.375 858.648 231.461 859.117 231.633 859.555C231.82 859.977 232.078 860.336 232.406 860.633C232.734 860.945 233.125 861.188 233.578 861.359C234.047 861.531 234.562 861.617 235.125 861.617C236.281 861.617 237.195 861.297 237.867 860.656C238.555 860 238.898 859.164 238.898 858.148C238.898 857.133 238.555 856.305 237.867 855.664C237.195 855.008 236.281 854.68 235.125 854.68C234.562 854.68 234.047 854.766 233.578 854.938C233.125 855.109 232.734 855.344 232.406 855.641C232.078 855.953 231.82 856.328 231.633 856.766C231.461 857.188 231.375 857.648 231.375 858.148ZM268.078 883.039C268.078 883.43 267.977 883.789 267.773 884.117C267.586 884.445 267.297 884.734 266.906 884.984C266.5 885.234 265.977 885.438 265.336 885.594C264.711 885.734 263.977 885.805 263.133 885.805C262.43 885.805 261.742 885.734 261.07 885.594C260.414 885.453 259.828 885.227 259.312 884.914C258.797 884.617 258.375 884.227 258.047 883.742C257.719 883.242 257.531 882.648 257.484 881.961H251.273C251.273 882.992 251.523 884.023 252.023 885.055C252.539 886.07 253.289 886.977 254.273 887.773C255.258 888.586 256.477 889.242 257.93 889.742C259.398 890.242 261.086 890.492 262.992 890.492C264.727 890.492 266.297 890.305 267.703 889.93C269.109 889.539 270.312 889 271.312 888.312C272.297 887.625 273.055 886.812 273.586 885.875C274.133 884.922 274.406 883.883 274.406 882.758C274.406 881.539 274.133 880.492 273.586 879.617C273.055 878.727 272.312 877.969 271.359 877.344C270.406 876.734 269.273 876.234 267.961 875.844C266.648 875.453 265.227 875.133 263.695 874.883C262.633 874.727 261.758 874.547 261.07 874.344C260.383 874.125 259.844 873.883 259.453 873.617C259.047 873.367 258.766 873.086 258.609 872.773C258.453 872.445 258.375 872.094 258.375 871.719C258.375 871.344 258.461 870.992 258.633 870.664C258.82 870.32 259.086 870.023 259.43 869.773C259.805 869.492 260.289 869.273 260.883 869.117C261.477 868.961 262.172 868.883 262.969 868.883C263.906 868.883 264.703 869 265.359 869.234C266.031 869.469 266.562 869.781 266.953 870.172C267.234 870.469 267.445 870.805 267.586 871.18C267.727 871.539 267.797 871.93 267.797 872.352H274.312C274.312 871.18 274.055 870.094 273.539 869.094C273.023 868.094 272.281 867.227 271.312 866.492C270.328 865.773 269.133 865.211 267.727 864.805C266.32 864.383 264.734 864.172 262.969 864.172C261.281 864.172 259.766 864.383 258.422 864.805C257.078 865.227 255.938 865.797 255 866.516C254.062 867.234 253.344 868.07 252.844 869.023C252.344 869.977 252.094 870.977 252.094 872.023C252.094 873.102 252.336 874.055 252.82 874.883C253.32 875.711 254.008 876.438 254.883 877.062C255.758 877.703 256.805 878.25 258.023 878.703C259.258 879.141 260.617 879.508 262.102 879.805C263.273 880.023 264.242 880.242 265.008 880.461C265.773 880.68 266.391 880.914 266.859 881.164C267.312 881.43 267.625 881.711 267.797 882.008C267.984 882.305 268.078 882.648 268.078 883.039ZM292.5 858.43H285.984V864.641H280.195V869.445H285.984V880.977C285.984 882.648 286.203 884.086 286.641 885.289C287.078 886.477 287.703 887.453 288.516 888.219C289.312 889 290.273 889.578 291.398 889.953C292.539 890.312 293.805 890.492 295.195 890.492C295.914 890.492 296.641 890.453 297.375 890.375C298.125 890.312 298.844 890.219 299.531 890.094C300.219 889.969 300.867 889.812 301.477 889.625C302.086 889.422 302.617 889.188 303.07 888.922L302.438 884.445C302.141 884.523 301.781 884.602 301.359 884.68C300.953 884.758 300.516 884.828 300.047 884.891C299.562 884.969 299.055 885.031 298.523 885.078C298.008 885.125 297.5 885.148 297 885.148C296.312 885.148 295.688 885.07 295.125 884.914C294.578 884.758 294.109 884.492 293.719 884.117C293.328 883.758 293.023 883.273 292.805 882.664C292.602 882.039 292.5 881.266 292.5 880.344V869.445H301.969V864.641H292.5V858.43ZM311.109 864.641V869.961H318.328V884.703H311.109V890H331.781V884.703H324.914V864.641H311.109ZM317.859 858.148C317.859 858.648 317.945 859.117 318.117 859.555C318.305 859.977 318.562 860.336 318.891 860.633C319.219 860.945 319.609 861.188 320.062 861.359C320.531 861.531 321.047 861.617 321.609 861.617C322.766 861.617 323.68 861.297 324.352 860.656C325.039 860 325.383 859.164 325.383 858.148C325.383 857.133 325.039 856.305 324.352 855.664C323.68 855.008 322.766 854.68 321.609 854.68C321.047 854.68 320.531 854.766 320.062 854.938C319.609 855.109 319.219 855.344 318.891 855.641C318.562 855.953 318.305 856.328 318.117 856.766C317.945 857.188 317.859 857.648 317.859 858.148ZM349.43 885.266C348.383 885.266 347.516 885.055 346.828 884.633C346.156 884.211 345.625 883.648 345.234 882.945C344.828 882.258 344.547 881.461 344.391 880.555C344.234 879.633 344.156 878.68 344.156 877.695V876.992C344.156 876.023 344.234 875.086 344.391 874.18C344.562 873.273 344.852 872.469 345.258 871.766C345.648 871.062 346.18 870.5 346.852 870.078C347.523 869.656 348.375 869.445 349.406 869.445C350.109 869.445 350.758 869.57 351.352 869.82C351.945 870.055 352.453 870.375 352.875 870.781C353.297 871.188 353.617 871.672 353.836 872.234C354.055 872.797 354.148 873.391 354.117 874.016H360.258C360.289 872.516 360.039 871.164 359.508 869.961C358.977 868.742 358.234 867.703 357.281 866.844C356.312 866 355.164 865.344 353.836 864.875C352.508 864.406 351.062 864.172 349.5 864.172C347.547 864.172 345.828 864.508 344.344 865.18C342.875 865.852 341.641 866.766 340.641 867.922C339.641 869.078 338.891 870.438 338.391 872C337.891 873.547 337.641 875.211 337.641 876.992V877.695C337.641 879.477 337.891 881.148 338.391 882.711C338.906 884.258 339.664 885.609 340.664 886.766C341.648 887.922 342.883 888.836 344.367 889.508C345.852 890.164 347.578 890.492 349.547 890.492C351 890.492 352.375 890.266 353.672 889.812C354.984 889.344 356.133 888.703 357.117 887.891C358.102 887.078 358.875 886.109 359.438 884.984C360.016 883.859 360.289 882.641 360.258 881.328H354.117C354.148 881.922 354.039 882.461 353.789 882.945C353.555 883.43 353.219 883.844 352.781 884.188C352.344 884.531 351.836 884.797 351.258 884.984C350.68 885.172 350.07 885.266 349.43 885.266ZM105.469 953.469C107.922 953.469 110.047 952.992 111.844 952.039C113.641 951.086 114.953 950.023 115.781 948.852L112.523 945.336C111.773 946.305 110.797 947.031 109.594 947.516C108.391 948 107.148 948.242 105.867 948.242C104.961 948.242 104.125 948.102 103.359 947.82C102.594 947.539 101.914 947.141 101.32 946.625C100.742 946.125 100.281 945.57 99.9375 944.961C99.5938 944.336 99.3125 943.516 99.0938 942.5V942.43H116.297V939.664C116.297 937.805 116.039 936.109 115.523 934.578C115.008 933.031 114.258 931.711 113.273 930.617C112.273 929.523 111.055 928.68 109.617 928.086C108.195 927.477 106.57 927.172 104.742 927.172C102.977 927.172 101.344 927.492 99.8438 928.133C98.3438 928.773 97.0469 929.672 95.9531 930.828C94.8594 931.984 94.0078 933.367 93.3984 934.977C92.7891 936.57 92.4844 938.336 92.4844 940.273V941.211C92.4844 942.914 92.7891 944.516 93.3984 946.016C94.0234 947.5 94.9062 948.789 96.0469 949.883C97.1875 950.992 98.5547 951.867 100.148 952.508C101.742 953.148 103.516 953.469 105.469 953.469ZM104.695 932.445C105.523 932.445 106.25 932.578 106.875 932.844C107.516 933.094 108.055 933.438 108.492 933.875C108.93 934.328 109.273 934.859 109.523 935.469C109.773 936.078 109.898 936.727 109.898 937.414V937.93H99.2109C99.3672 937.102 99.6016 936.352 99.9141 935.68C100.227 935.008 100.617 934.43 101.086 933.945C101.539 933.461 102.07 933.094 102.68 932.844C103.289 932.578 103.961 932.445 104.695 932.445ZM130.055 953H136.172L145.805 927.641H139.008L133.453 945.523L133.102 947.305L132.75 945.523L127.172 927.641H120.375L130.055 953ZM166.664 953H173.273V952.602C172.945 951.961 172.695 951.195 172.523 950.305C172.352 949.414 172.266 948.289 172.266 946.93V936.055C172.266 934.586 171.992 933.297 171.445 932.188C170.898 931.062 170.141 930.133 169.172 929.398C168.203 928.664 167.055 928.109 165.727 927.734C164.414 927.359 162.992 927.172 161.461 927.172C159.758 927.172 158.242 927.391 156.914 927.828C155.602 928.25 154.492 928.828 153.586 929.562C152.664 930.297 151.961 931.148 151.477 932.117C151.008 933.086 150.773 934.109 150.773 935.188H157.289C157.289 934.734 157.352 934.32 157.477 933.945C157.617 933.57 157.828 933.25 158.109 932.984C158.422 932.688 158.828 932.461 159.328 932.305C159.828 932.133 160.422 932.047 161.109 932.047C161.891 932.047 162.57 932.148 163.148 932.352C163.742 932.539 164.234 932.812 164.625 933.172C165 933.516 165.281 933.93 165.469 934.414C165.656 934.883 165.75 935.414 165.75 936.008V937.508H162.117C160.242 937.508 158.578 937.68 157.125 938.023C155.688 938.352 154.477 938.836 153.492 939.477C152.398 940.18 151.578 941.078 151.031 942.172C150.484 943.25 150.211 944.492 150.211 945.898C150.211 946.992 150.43 948.008 150.867 948.945C151.305 949.867 151.914 950.664 152.695 951.336C153.477 952.008 154.406 952.531 155.484 952.906C156.578 953.281 157.773 953.469 159.07 953.469C159.867 953.469 160.609 953.391 161.297 953.234C161.984 953.094 162.617 952.891 163.195 952.625C163.758 952.375 164.273 952.078 164.742 951.734C165.211 951.391 165.625 951.023 165.984 950.633C166.062 951.086 166.156 951.516 166.266 951.922C166.375 952.328 166.508 952.688 166.664 953ZM160.453 948.43C159.844 948.43 159.305 948.359 158.836 948.219C158.383 948.062 158 947.859 157.688 947.609C157.375 947.344 157.133 947.023 156.961 946.648C156.805 946.258 156.727 945.836 156.727 945.383C156.727 944.805 156.836 944.273 157.055 943.789C157.273 943.289 157.609 942.859 158.062 942.5C158.516 942.156 159.102 941.891 159.82 941.703C160.539 941.5 161.406 941.398 162.422 941.398H165.75V945.758C165.562 946.086 165.305 946.414 164.977 946.742C164.648 947.055 164.258 947.336 163.805 947.586C163.352 947.836 162.844 948.039 162.281 948.195C161.719 948.352 161.109 948.43 160.453 948.43ZM181.008 917V922.32H188.602V947.703H181.008V953H202.453V947.703H195.188V917H181.008ZM225.023 953H230.93V927.641H224.391V945.43C224.188 945.836 223.945 946.203 223.664 946.531C223.383 946.859 223.062 947.141 222.703 947.375C222.281 947.641 221.789 947.844 221.227 947.984C220.68 948.125 220.062 948.195 219.375 948.195C218.609 948.195 217.961 948.102 217.43 947.914C216.898 947.727 216.469 947.414 216.141 946.977C215.812 946.555 215.57 945.992 215.414 945.289C215.273 944.586 215.203 943.719 215.203 942.688V927.641H208.688V942.641C208.688 944.562 208.898 946.211 209.32 947.586C209.758 948.945 210.367 950.062 211.148 950.938C211.93 951.828 212.867 952.477 213.961 952.883C215.055 953.289 216.258 953.492 217.57 953.492C219.008 953.492 220.328 953.133 221.531 952.414C222.75 951.695 223.789 950.703 224.648 949.438L225.023 953ZM253.148 953H259.758V952.602C259.43 951.961 259.18 951.195 259.008 950.305C258.836 949.414 258.75 948.289 258.75 946.93V936.055C258.75 934.586 258.477 933.297 257.93 932.188C257.383 931.062 256.625 930.133 255.656 929.398C254.688 928.664 253.539 928.109 252.211 927.734C250.898 927.359 249.477 927.172 247.945 927.172C246.242 927.172 244.727 927.391 243.398 927.828C242.086 928.25 240.977 928.828 240.07 929.562C239.148 930.297 238.445 931.148 237.961 932.117C237.492 933.086 237.258 934.109 237.258 935.188H243.773C243.773 934.734 243.836 934.32 243.961 933.945C244.102 933.57 244.312 933.25 244.594 932.984C244.906 932.688 245.312 932.461 245.812 932.305C246.312 932.133 246.906 932.047 247.594 932.047C248.375 932.047 249.055 932.148 249.633 932.352C250.227 932.539 250.719 932.812 251.109 933.172C251.484 933.516 251.766 933.93 251.953 934.414C252.141 934.883 252.234 935.414 252.234 936.008V937.508H248.602C246.727 937.508 245.062 937.68 243.609 938.023C242.172 938.352 240.961 938.836 239.977 939.477C238.883 940.18 238.062 941.078 237.516 942.172C236.969 943.25 236.695 944.492 236.695 945.898C236.695 946.992 236.914 948.008 237.352 948.945C237.789 949.867 238.398 950.664 239.18 951.336C239.961 952.008 240.891 952.531 241.969 952.906C243.062 953.281 244.258 953.469 245.555 953.469C246.352 953.469 247.094 953.391 247.781 953.234C248.469 953.094 249.102 952.891 249.68 952.625C250.242 952.375 250.758 952.078 251.227 951.734C251.695 951.391 252.109 951.023 252.469 950.633C252.547 951.086 252.641 951.516 252.75 951.922C252.859 952.328 252.992 952.688 253.148 953ZM246.938 948.43C246.328 948.43 245.789 948.359 245.32 948.219C244.867 948.062 244.484 947.859 244.172 947.609C243.859 947.344 243.617 947.023 243.445 946.648C243.289 946.258 243.211 945.836 243.211 945.383C243.211 944.805 243.32 944.273 243.539 943.789C243.758 943.289 244.094 942.859 244.547 942.5C245 942.156 245.586 941.891 246.305 941.703C247.023 941.5 247.891 941.398 248.906 941.398H252.234V945.758C252.047 946.086 251.789 946.414 251.461 946.742C251.133 947.055 250.742 947.336 250.289 947.586C249.836 947.836 249.328 948.039 248.766 948.195C248.203 948.352 247.594 948.43 246.938 948.43ZM278.086 921.43H271.57V927.641H265.781V932.445H271.57V943.977C271.57 945.648 271.789 947.086 272.227 948.289C272.664 949.477 273.289 950.453 274.102 951.219C274.898 952 275.859 952.578 276.984 952.953C278.125 953.312 279.391 953.492 280.781 953.492C281.5 953.492 282.227 953.453 282.961 953.375C283.711 953.312 284.43 953.219 285.117 953.094C285.805 952.969 286.453 952.812 287.062 952.625C287.672 952.422 288.203 952.188 288.656 951.922L288.023 947.445C287.727 947.523 287.367 947.602 286.945 947.68C286.539 947.758 286.102 947.828 285.633 947.891C285.148 947.969 284.641 948.031 284.109 948.078C283.594 948.125 283.086 948.148 282.586 948.148C281.898 948.148 281.273 948.07 280.711 947.914C280.164 947.758 279.695 947.492 279.305 947.117C278.914 946.758 278.609 946.273 278.391 945.664C278.188 945.039 278.086 944.266 278.086 943.344V932.445H287.555V927.641H278.086V921.43ZM296.695 927.641V932.961H303.914V947.703H296.695V953H317.367V947.703H310.5V927.641H296.695ZM303.445 921.148C303.445 921.648 303.531 922.117 303.703 922.555C303.891 922.977 304.148 923.336 304.477 923.633C304.805 923.945 305.195 924.188 305.648 924.359C306.117 924.531 306.633 924.617 307.195 924.617C308.352 924.617 309.266 924.297 309.938 923.656C310.625 923 310.969 922.164 310.969 921.148C310.969 920.133 310.625 919.305 309.938 918.664C309.266 918.008 308.352 917.68 307.195 917.68C306.633 917.68 306.117 917.766 305.648 917.938C305.195 918.109 304.805 918.344 304.477 918.641C304.148 918.953 303.891 919.328 303.703 919.766C303.531 920.188 303.445 920.648 303.445 921.148ZM322.898 940.086V940.578C322.898 942.438 323.164 944.156 323.695 945.734C324.227 947.297 325.008 948.656 326.039 949.812C327.055 950.969 328.305 951.875 329.789 952.531C331.289 953.172 332.992 953.492 334.898 953.492C336.789 953.492 338.477 953.172 339.961 952.531C341.445 951.875 342.695 950.969 343.711 949.812C344.727 948.656 345.5 947.297 346.031 945.734C346.562 944.156 346.828 942.438 346.828 940.578V940.086C346.828 938.242 346.562 936.539 346.031 934.977C345.5 933.398 344.727 932.031 343.711 930.875C342.68 929.719 341.422 928.812 339.938 928.156C338.453 927.5 336.758 927.172 334.852 927.172C332.945 927.172 331.25 927.5 329.766 928.156C328.297 928.812 327.055 929.719 326.039 930.875C325.008 932.031 324.227 933.398 323.695 934.977C323.164 936.539 322.898 938.242 322.898 940.086ZM329.414 940.578V940.086C329.414 939.055 329.516 938.078 329.719 937.156C329.922 936.234 330.242 935.422 330.68 934.719C331.117 934.016 331.68 933.461 332.367 933.055C333.055 932.648 333.883 932.445 334.852 932.445C335.836 932.445 336.672 932.648 337.359 933.055C338.047 933.461 338.609 934.016 339.047 934.719C339.469 935.422 339.781 936.234 339.984 937.156C340.188 938.078 340.289 939.055 340.289 940.086V940.578C340.289 941.641 340.188 942.641 339.984 943.578C339.781 944.5 339.469 945.305 339.047 945.992C338.609 946.695 338.047 947.25 337.359 947.656C336.672 948.062 335.852 948.266 334.898 948.266C333.914 948.266 333.07 948.062 332.367 947.656C331.68 947.25 331.117 946.695 330.68 945.992C330.242 945.305 329.922 944.5 329.719 943.578C329.516 942.641 329.414 941.641 329.414 940.578ZM352.617 953H359.156V934.977C359.375 934.633 359.617 934.32 359.883 934.039C360.148 933.758 360.445 933.516 360.773 933.312C361.18 933.031 361.641 932.82 362.156 932.68C362.688 932.539 363.266 932.469 363.891 932.469C364.641 932.469 365.312 932.547 365.906 932.703C366.5 932.844 367.008 933.102 367.43 933.477C367.852 933.852 368.172 934.367 368.391 935.023C368.625 935.664 368.742 936.484 368.742 937.484V953H375.258V937.391C375.258 935.547 375.039 933.984 374.602 932.703C374.18 931.406 373.586 930.344 372.82 929.516C372.039 928.703 371.117 928.109 370.055 927.734C368.992 927.359 367.82 927.172 366.539 927.172C365.539 927.172 364.594 927.312 363.703 927.594C362.812 927.875 361.992 928.281 361.242 928.812C360.805 929.125 360.391 929.477 360 929.867C359.609 930.258 359.25 930.688 358.922 931.156L358.523 927.641H352.617V953Z" fill="white"/>
<path d="M118.443 1107.15L2.88675 907L118.443 706.85H349.557L465.113 907L349.557 1107.15H118.443Z" stroke="#3949AB" stroke-width="5"/>
</svg>
