<svg width="423" height="105" viewBox="0 0 423 105" fill="none" xmlns="http://www.w3.org/2000/svg">
<rect y="28" width="423" height="77" rx="4" fill="#3949AB"/>
<path d="M25.6523 70.6055C25.6523 69.8555 25.3867 69.2773 24.8555 68.8711C24.332 68.4648 23.3828 68.0547 22.0078 67.6406C20.6328 67.2266 19.5391 66.7656 18.7266 66.2578C17.1719 65.2812 16.3945 64.0078 16.3945 62.4375C16.3945 61.0625 16.9531 59.9297 18.0703 59.0391C19.1953 58.1484 20.6523 57.7031 22.4414 57.7031C23.6289 57.7031 24.6875 57.9219 25.6172 58.3594C26.5469 58.7969 27.2773 59.4219 27.8086 60.2344C28.3398 61.0391 28.6055 61.9336 28.6055 62.918H25.6523C25.6523 62.0273 25.3711 61.332 24.8086 60.832C24.2539 60.3242 23.457 60.0703 22.418 60.0703C21.4492 60.0703 20.6953 60.2773 20.1562 60.6914C19.625 61.1055 19.3594 61.6836 19.3594 62.4258C19.3594 63.0508 19.6484 63.5742 20.2266 63.9961C20.8047 64.4102 21.7578 64.8164 23.0859 65.2148C24.4141 65.6055 25.4805 66.0547 26.2852 66.5625C27.0898 67.0625 27.6797 67.6406 28.0547 68.2969C28.4297 68.9453 28.6172 69.707 28.6172 70.582C28.6172 72.0039 28.0703 73.1367 26.9766 73.9805C25.8906 74.8164 24.4141 75.2344 22.5469 75.2344C21.3125 75.2344 20.1758 75.0078 19.1367 74.5547C18.1055 74.0938 17.3008 73.4609 16.7227 72.6562C16.1523 71.8516 15.8672 70.9141 15.8672 69.8438H18.832C18.832 70.8125 19.1523 71.5625 19.793 72.0938C20.4336 72.625 21.3516 72.8906 22.5469 72.8906C23.5781 72.8906 24.3516 72.6836 24.8672 72.2695C25.3906 71.8477 25.6523 71.293 25.6523 70.6055ZM46.0156 75H43.0625V67.418H35.4336V75H32.4688V57.9375H35.4336V65.0391H43.0625V57.9375H46.0156V75ZM64.3984 66.9141C64.3984 68.5859 64.1094 70.0547 63.5312 71.3203C62.9531 72.5781 62.125 73.5469 61.0469 74.2266C59.9766 74.8984 58.7422 75.2344 57.3438 75.2344C55.9609 75.2344 54.7266 74.8984 53.6406 74.2266C52.5625 73.5469 51.7266 72.582 51.1328 71.332C50.5469 70.082 50.25 68.6406 50.2422 67.0078V66.0469C50.2422 64.3828 50.5352 62.9141 51.1211 61.6406C51.7148 60.3672 52.5469 59.3945 53.6172 58.7227C54.6953 58.043 55.9297 57.7031 57.3203 57.7031C58.7109 57.7031 59.9414 58.0391 61.0117 58.7109C62.0898 59.375 62.9219 60.3359 63.5078 61.5938C64.0938 62.8438 64.3906 64.3008 64.3984 65.9648V66.9141ZM61.4336 66.0234C61.4336 64.1328 61.0742 62.6836 60.3555 61.6758C59.6445 60.668 58.6328 60.1641 57.3203 60.1641C56.0391 60.1641 55.0352 60.668 54.3086 61.6758C53.5898 62.6758 53.2227 64.0938 53.207 65.9297V66.9141C53.207 68.7891 53.5703 70.2383 54.2969 71.2617C55.0312 72.2852 56.0469 72.7969 57.3438 72.7969C58.6562 72.7969 59.6641 72.2969 60.3672 71.2969C61.0781 70.2969 61.4336 68.8359 61.4336 66.9141V66.0234ZM81.9844 70.7812L84.6094 57.9375H87.5508L83.6133 75H80.7773L77.5312 62.543L74.2148 75H71.3672L67.4297 57.9375H70.3711L73.0195 70.7578L76.2773 57.9375H78.7617L81.9844 70.7812ZM109.82 60.3281H104.5V75H101.559V60.3281H96.2852V57.9375H109.82V60.3281ZM126.867 75H123.914V67.418H116.285V75H113.32V57.9375H116.285V65.0391H123.914V57.9375H126.867V75ZM141.605 67.3828H134.598V72.6328H142.789V75H131.633V57.9375H142.707V60.3281H134.598V65.0391H141.605V67.3828ZM156.645 68.6602V75H153.68V57.9375H160.207C162.113 57.9375 163.625 58.4336 164.742 59.4258C165.867 60.418 166.43 61.7305 166.43 63.3633C166.43 65.0352 165.879 66.3359 164.777 67.2656C163.684 68.1953 162.148 68.6602 160.172 68.6602H156.645ZM156.645 66.2812H160.207C161.262 66.2812 162.066 66.0352 162.621 65.543C163.176 65.043 163.453 64.3242 163.453 63.3867C163.453 62.4648 163.172 61.7305 162.609 61.1836C162.047 60.6289 161.273 60.3438 160.289 60.3281H156.645V66.2812ZM176.551 68.4258H173.246V75H170.281V57.9375H176.281C178.25 57.9375 179.77 58.3789 180.84 59.2617C181.91 60.1445 182.445 61.4219 182.445 63.0938C182.445 64.2344 182.168 65.1914 181.613 65.9648C181.066 66.7305 180.301 67.3203 179.316 67.7344L183.148 74.8477V75H179.973L176.551 68.4258ZM173.246 66.0469H176.293C177.293 66.0469 178.074 65.7969 178.637 65.2969C179.199 64.7891 179.48 64.0977 179.48 63.2227C179.48 62.3086 179.219 61.6016 178.695 61.1016C178.18 60.6016 177.406 60.3438 176.375 60.3281H173.246V66.0469ZM200.125 66.9141C200.125 68.5859 199.836 70.0547 199.258 71.3203C198.68 72.5781 197.852 73.5469 196.773 74.2266C195.703 74.8984 194.469 75.2344 193.07 75.2344C191.688 75.2344 190.453 74.8984 189.367 74.2266C188.289 73.5469 187.453 72.582 186.859 71.332C186.273 70.082 185.977 68.6406 185.969 67.0078V66.0469C185.969 64.3828 186.262 62.9141 186.848 61.6406C187.441 60.3672 188.273 59.3945 189.344 58.7227C190.422 58.043 191.656 57.7031 193.047 57.7031C194.438 57.7031 195.668 58.0391 196.738 58.7109C197.816 59.375 198.648 60.3359 199.234 61.5938C199.82 62.8438 200.117 64.3008 200.125 65.9648V66.9141ZM197.16 66.0234C197.16 64.1328 196.801 62.6836 196.082 61.6758C195.371 60.668 194.359 60.1641 193.047 60.1641C191.766 60.1641 190.762 60.668 190.035 61.6758C189.316 62.6758 188.949 64.0938 188.934 65.9297V66.9141C188.934 68.7891 189.297 70.2383 190.023 71.2617C190.758 72.2852 191.773 72.7969 193.07 72.7969C194.383 72.7969 195.391 72.2969 196.094 71.2969C196.805 70.2969 197.16 68.8359 197.16 66.9141V66.0234ZM211.312 57.9375H214.266V69.9023C214.266 71.5352 213.754 72.832 212.73 73.793C211.715 74.7539 210.371 75.2344 208.699 75.2344C206.918 75.2344 205.543 74.7852 204.574 73.8867C203.605 72.9883 203.121 71.7383 203.121 70.1367H206.074C206.074 71.043 206.297 71.7266 206.742 72.1875C207.195 72.6406 207.848 72.8672 208.699 72.8672C209.496 72.8672 210.129 72.6055 210.598 72.082C211.074 71.5508 211.312 70.8203 211.312 69.8906V57.9375ZM228.887 67.3828H221.879V72.6328H230.07V75H218.914V57.9375H229.988V60.3281H221.879V65.0391H228.887V67.3828ZM246.754 69.4453C246.582 71.2656 245.91 72.6875 244.738 73.7109C243.566 74.7266 242.008 75.2344 240.062 75.2344C238.703 75.2344 237.504 74.9141 236.465 74.2734C235.434 73.625 234.637 72.707 234.074 71.5195C233.512 70.332 233.219 68.9531 233.195 67.3828V65.7891C233.195 64.1797 233.48 62.7617 234.051 61.5352C234.621 60.3086 235.438 59.3633 236.5 58.6992C237.57 58.0352 238.805 57.7031 240.203 57.7031C242.086 57.7031 243.602 58.2148 244.75 59.2383C245.898 60.2617 246.566 61.707 246.754 63.5742H243.801C243.66 62.3477 243.301 61.4648 242.723 60.9258C242.152 60.3789 241.312 60.1055 240.203 60.1055C238.914 60.1055 237.922 60.5781 237.227 61.5234C236.539 62.4609 236.188 63.8398 236.172 65.6602V67.1719C236.172 69.0156 236.5 70.4219 237.156 71.3906C237.82 72.3594 238.789 72.8438 240.062 72.8438C241.227 72.8438 242.102 72.582 242.688 72.0586C243.273 71.5352 243.645 70.6641 243.801 69.4453H246.754ZM262.641 60.3281H257.32V75H254.379V60.3281H249.105V57.9375H262.641V60.3281ZM286.281 66.9141C286.281 68.5859 285.992 70.0547 285.414 71.3203C284.836 72.5781 284.008 73.5469 282.93 74.2266C281.859 74.8984 280.625 75.2344 279.227 75.2344C277.844 75.2344 276.609 74.8984 275.523 74.2266C274.445 73.5469 273.609 72.582 273.016 71.332C272.43 70.082 272.133 68.6406 272.125 67.0078V66.0469C272.125 64.3828 272.418 62.9141 273.004 61.6406C273.598 60.3672 274.43 59.3945 275.5 58.7227C276.578 58.043 277.812 57.7031 279.203 57.7031C280.594 57.7031 281.824 58.0391 282.895 58.7109C283.973 59.375 284.805 60.3359 285.391 61.5938C285.977 62.8438 286.273 64.3008 286.281 65.9648V66.9141ZM283.316 66.0234C283.316 64.1328 282.957 62.6836 282.238 61.6758C281.527 60.668 280.516 60.1641 279.203 60.1641C277.922 60.1641 276.918 60.668 276.191 61.6758C275.473 62.6758 275.105 64.0938 275.09 65.9297V66.9141C275.09 68.7891 275.453 70.2383 276.18 71.2617C276.914 72.2852 277.93 72.7969 279.227 72.7969C280.539 72.7969 281.547 72.2969 282.25 71.2969C282.961 70.2969 283.316 68.8359 283.316 66.9141V66.0234ZM304.02 75H301.055L293.449 62.8945V75H290.484V57.9375H293.449L301.078 70.0898V57.9375H304.02V75ZM329.078 72.7852C328.461 73.5898 327.605 74.1992 326.512 74.6133C325.418 75.0273 324.176 75.2344 322.785 75.2344C321.355 75.2344 320.09 74.9102 318.988 74.2617C317.887 73.6133 317.035 72.6875 316.434 71.4844C315.84 70.2734 315.531 68.8633 315.508 67.2539V65.918C315.508 63.3398 316.125 61.3281 317.359 59.8828C318.594 58.4297 320.316 57.7031 322.527 57.7031C324.426 57.7031 325.934 58.1719 327.051 59.1094C328.168 60.0469 328.84 61.3984 329.066 63.1641H326.16C325.832 61.1094 324.641 60.082 322.586 60.082C321.258 60.082 320.246 60.5625 319.551 61.5234C318.863 62.4766 318.508 63.8789 318.484 65.7305V67.043C318.484 68.8867 318.871 70.3203 319.645 71.3438C320.426 72.3594 321.508 72.8672 322.891 72.8672C324.406 72.8672 325.484 72.5234 326.125 71.8359V68.4961H322.609V66.2461H329.078V72.7852ZM336.715 75H333.762V57.9375H336.715V75ZM353.586 60.3281H348.266V75H345.324V60.3281H340.051V57.9375H353.586V60.3281ZM370.633 75H367.68V67.418H360.051V75H357.086V57.9375H360.051V65.0391H367.68V57.9375H370.633V75ZM387.879 57.9375V69.3398C387.879 71.1523 387.297 72.5898 386.133 73.6523C384.977 74.707 383.434 75.2344 381.504 75.2344C379.551 75.2344 378 74.7148 376.852 73.6758C375.703 72.6289 375.129 71.1797 375.129 69.3281V57.9375H378.082V69.3516C378.082 70.4922 378.371 71.3633 378.949 71.9648C379.527 72.5664 380.379 72.8672 381.504 72.8672C383.785 72.8672 384.926 71.6641 384.926 69.2578V57.9375H387.879ZM392.305 75V57.9375H398.152C400.082 57.9375 401.551 58.3242 402.559 59.0977C403.566 59.8711 404.07 61.0234 404.07 62.5547C404.07 63.3359 403.859 64.0391 403.438 64.6641C403.016 65.2891 402.398 65.7734 401.586 66.1172C402.508 66.3672 403.219 66.8398 403.719 67.5352C404.227 68.2227 404.48 69.0508 404.48 70.0195C404.48 71.6211 403.965 72.8516 402.934 73.7109C401.91 74.5703 400.441 75 398.527 75H392.305ZM395.27 67.3008V72.6328H398.562C399.492 72.6328 400.219 72.4023 400.742 71.9414C401.266 71.4805 401.527 70.8398 401.527 70.0195C401.527 68.2461 400.621 67.3398 398.809 67.3008H395.27ZM395.27 65.1211H398.176C399.098 65.1211 399.816 64.9141 400.332 64.5C400.855 64.0781 401.117 63.4844 401.117 62.7188C401.117 61.875 400.875 61.2656 400.391 60.8906C399.914 60.5156 399.168 60.3281 398.152 60.3281H395.27V65.1211Z" fill="white"/>
</svg>
