<svg width="1920" height="559" viewBox="0 0 1920 559" fill="none" xmlns="http://www.w3.org/2000/svg">
<path d="M0 206.614H1920L978.5 559L0 206.614Z" fill="#A5D6A7"/>
<rect y="-43" width="1920" height="250.614" fill="#A5D6A7"/>
<path d="M809.393 243.234L824.862 267H832.772L813.682 238.207L831.577 215.812H823.666L808.655 234.621L803.698 240.809V215.812H797.053V267H803.698V249.703L809.393 243.234ZM857.32 267.703C861.023 267.703 864.129 266.965 866.637 265.488C869.168 263.988 871.066 262.277 872.332 260.355L868.359 257.262C867.164 258.809 865.664 260.051 863.859 260.988C862.055 261.926 859.992 262.395 857.672 262.395C855.914 262.395 854.309 262.066 852.855 261.41C851.402 260.754 850.16 259.852 849.129 258.703C848.121 257.625 847.324 256.383 846.738 254.977C846.176 253.57 845.812 251.941 845.648 250.09V249.844H872.824V246.926C872.824 244.277 872.484 241.816 871.805 239.543C871.148 237.27 870.141 235.289 868.781 233.602C867.422 231.938 865.711 230.637 863.648 229.699C861.609 228.738 859.219 228.258 856.477 228.258C854.297 228.258 852.164 228.703 850.078 229.594C848.016 230.484 846.176 231.762 844.559 233.426C842.918 235.113 841.605 237.176 840.621 239.613C839.637 242.027 839.145 244.77 839.145 247.84V249.316C839.145 251.965 839.59 254.414 840.48 256.664C841.371 258.914 842.613 260.859 844.207 262.5C845.801 264.141 847.711 265.418 849.938 266.332C852.188 267.246 854.648 267.703 857.32 267.703ZM856.477 233.602C858.141 233.602 859.57 233.906 860.766 234.516C861.984 235.125 862.992 235.922 863.789 236.906C864.586 237.891 865.207 239.062 865.652 240.422C866.098 241.758 866.32 243.012 866.32 244.184V244.5H845.859C846.117 242.742 846.562 241.195 847.195 239.859C847.852 238.5 848.648 237.352 849.586 236.414C850.523 235.5 851.578 234.809 852.75 234.34C853.922 233.848 855.164 233.602 856.477 233.602ZM886.966 282.363C888.677 282.363 890.189 282.047 891.502 281.414C892.814 280.781 893.963 279.996 894.947 279.059C895.931 278.121 896.763 277.102 897.443 276C898.146 274.898 898.72 273.855 899.166 272.871L918.466 228.961H911.189L901.38 253.641L899.588 258.105L897.9 253.5L887.459 228.961H880.181L896.564 265.207L893.963 270.27C893.728 270.738 893.4 271.336 892.978 272.062C892.58 272.789 892.099 273.492 891.537 274.172C890.951 274.852 890.283 275.438 889.533 275.93C888.806 276.422 887.998 276.668 887.107 276.668C886.779 276.668 886.322 276.645 885.736 276.598C885.173 276.574 884.599 276.539 884.013 276.492L882.959 281.801C883.38 281.895 884.002 282.012 884.822 282.152C885.642 282.293 886.357 282.363 886.966 282.363ZM943.507 262.43C941.468 262.43 939.757 262.031 938.374 261.234C937.015 260.414 935.925 259.348 935.105 258.035C934.261 256.746 933.652 255.293 933.277 253.676C932.925 252.035 932.749 250.383 932.749 248.719V247.242C932.749 245.602 932.925 243.973 933.277 242.355C933.652 240.738 934.261 239.273 935.105 237.961C935.948 236.672 937.05 235.629 938.409 234.832C939.792 234.012 941.491 233.602 943.507 233.602C944.82 233.602 946.038 233.824 947.163 234.27C948.312 234.715 949.296 235.324 950.116 236.098C950.937 236.871 951.581 237.773 952.05 238.805C952.542 239.812 952.8 240.891 952.823 242.039H958.976C958.976 240.117 958.589 238.312 957.816 236.625C957.042 234.938 955.976 233.473 954.616 232.23C953.234 231.012 951.593 230.051 949.695 229.348C947.82 228.621 945.757 228.258 943.507 228.258C940.624 228.258 938.105 228.773 935.948 229.805C933.792 230.836 931.999 232.219 930.57 233.953C929.116 235.711 928.027 237.738 927.3 240.035C926.573 242.332 926.21 244.734 926.21 247.242V248.719C926.21 251.25 926.573 253.664 927.3 255.961C928.027 258.234 929.116 260.238 930.57 261.973C931.999 263.73 933.792 265.125 935.948 266.156C938.105 267.188 940.624 267.703 943.507 267.703C945.523 267.703 947.456 267.363 949.308 266.684C951.159 265.98 952.8 265.043 954.23 263.871C955.659 262.723 956.796 261.387 957.64 259.863C958.507 258.316 958.952 256.699 958.976 255.012H952.823C952.8 256.066 952.519 257.051 951.98 257.965C951.464 258.855 950.773 259.629 949.905 260.285C949.038 260.965 948.042 261.492 946.917 261.867C945.816 262.242 944.679 262.43 943.507 262.43ZM977.196 234.621V213H970.692V267H977.196V239.367C977.665 238.617 978.192 237.938 978.778 237.328C979.388 236.695 980.044 236.145 980.747 235.676C981.638 235.066 982.61 234.598 983.665 234.27C984.72 233.941 985.833 233.777 987.005 233.777C988.434 233.754 989.7 233.953 990.802 234.375C991.903 234.773 992.817 235.383 993.544 236.203C994.223 236.953 994.739 237.902 995.091 239.051C995.442 240.176 995.618 241.488 995.618 242.988V267H1002.12V243.059C1002.12 240.504 1001.81 238.301 1001.17 236.449C1000.56 234.574 999.684 233.027 998.536 231.809C997.388 230.59 995.993 229.699 994.352 229.137C992.735 228.551 990.93 228.258 988.938 228.258C987.415 228.281 985.973 228.504 984.614 228.926C983.278 229.348 982.048 229.969 980.923 230.789C980.22 231.281 979.552 231.855 978.919 232.512C978.286 233.145 977.712 233.848 977.196 234.621ZM1039.08 267H1045.87V266.438C1045.44 265.383 1045.12 264.152 1044.88 262.746C1044.65 261.316 1044.53 259.969 1044.53 258.703V241.02C1044.53 238.887 1044.14 237.023 1043.37 235.43C1042.6 233.836 1041.54 232.5 1040.21 231.422C1038.85 230.367 1037.24 229.582 1035.39 229.066C1033.54 228.527 1031.53 228.258 1029.38 228.258C1027.01 228.258 1024.89 228.586 1023.01 229.242C1021.16 229.898 1019.59 230.754 1018.3 231.809C1016.99 232.887 1015.98 234.094 1015.28 235.43C1014.6 236.766 1014.25 238.125 1014.22 239.508H1020.76C1020.76 238.711 1020.95 237.949 1021.33 237.223C1021.72 236.473 1022.28 235.828 1022.98 235.289C1023.68 234.75 1024.54 234.316 1025.55 233.988C1026.58 233.66 1027.74 233.496 1029.03 233.496C1030.41 233.496 1031.65 233.672 1032.75 234.023C1033.88 234.375 1034.83 234.867 1035.6 235.5C1036.37 236.156 1036.97 236.941 1037.39 237.855C1037.81 238.77 1038.03 239.801 1038.03 240.949V243.938H1030.92C1028.28 243.938 1025.87 244.195 1023.72 244.711C1021.58 245.227 1019.76 246 1018.23 247.031C1016.71 248.086 1015.53 249.398 1014.68 250.969C1013.86 252.539 1013.45 254.367 1013.45 256.453C1013.45 258.047 1013.76 259.535 1014.37 260.918C1015 262.277 1015.89 263.449 1017.04 264.434C1018.16 265.441 1019.53 266.238 1021.15 266.824C1022.79 267.41 1024.62 267.703 1026.64 267.703C1027.88 267.703 1029.05 267.574 1030.15 267.316C1031.25 267.059 1032.3 266.707 1033.28 266.262C1034.24 265.816 1035.12 265.301 1035.92 264.715C1036.74 264.129 1037.47 263.508 1038.13 262.852C1038.2 263.648 1038.31 264.422 1038.45 265.172C1038.61 265.898 1038.82 266.508 1039.08 267ZM1027.58 262.043C1026.32 262.043 1025.21 261.879 1024.24 261.551C1023.28 261.223 1022.49 260.766 1021.85 260.18C1021.22 259.617 1020.74 258.938 1020.41 258.141C1020.11 257.344 1019.96 256.477 1019.96 255.539C1019.96 254.555 1020.13 253.676 1020.48 252.902C1020.86 252.129 1021.4 251.461 1022.1 250.898C1023.08 250.102 1024.41 249.516 1026.07 249.141C1027.76 248.742 1029.73 248.543 1031.98 248.543H1038.03V256.242C1037.65 256.992 1037.14 257.719 1036.48 258.422C1035.82 259.102 1035.05 259.711 1034.16 260.25C1033.24 260.789 1032.24 261.223 1031.14 261.551C1030.03 261.879 1028.85 262.043 1027.58 262.043ZM1058.5 228.961V234.621H1071.43V261.375H1058.5V267H1090.35V261.375H1077.94V228.961H1058.5ZM1070.59 218.977C1070.59 220.031 1070.91 220.91 1071.54 221.613C1072.2 222.316 1073.18 222.668 1074.49 222.668C1075.78 222.668 1076.75 222.316 1077.41 221.613C1078.07 220.91 1078.39 220.031 1078.39 218.977C1078.39 218.391 1078.3 217.852 1078.11 217.359C1077.93 216.867 1077.64 216.457 1077.27 216.129C1076.96 215.824 1076.58 215.59 1076.11 215.426C1075.64 215.238 1075.1 215.145 1074.49 215.145C1073.88 215.145 1073.33 215.238 1072.84 215.426C1072.37 215.59 1071.98 215.824 1071.68 216.129C1071.3 216.48 1071.02 216.902 1070.84 217.395C1070.67 217.887 1070.59 218.414 1070.59 218.977ZM1100.87 267H1107.37V239.719C1107.82 238.898 1108.33 238.148 1108.92 237.469C1109.53 236.789 1110.19 236.191 1110.89 235.676C1111.76 235.09 1112.7 234.633 1113.74 234.305C1114.77 233.953 1115.88 233.777 1117.08 233.777C1118.46 233.777 1119.68 233.941 1120.73 234.27C1121.81 234.598 1122.72 235.125 1123.47 235.852C1124.2 236.578 1124.75 237.527 1125.13 238.699C1125.5 239.871 1125.69 241.301 1125.69 242.988V267H1132.19V242.848C1132.19 240.316 1131.88 238.137 1131.24 236.309C1130.63 234.457 1129.76 232.934 1128.61 231.738C1127.46 230.543 1126.06 229.664 1124.42 229.102C1122.81 228.539 1121 228.258 1119.01 228.258C1117.53 228.281 1116.13 228.504 1114.79 228.926C1113.48 229.324 1112.26 229.898 1111.13 230.648C1110.38 231.141 1109.67 231.727 1108.99 232.406C1108.33 233.062 1107.72 233.789 1107.16 234.586L1106.7 228.961H1100.87V267ZM724.628 298.782V296.556H713.422V298.782H724.628ZM759.528 307H762.355V306.766C762.179 306.326 762.043 305.813 761.945 305.228C761.847 304.632 761.798 304.07 761.798 303.543V296.175C761.798 295.286 761.637 294.51 761.315 293.846C760.993 293.182 760.553 292.625 759.997 292.176C759.43 291.736 758.761 291.409 757.99 291.194C757.218 290.97 756.383 290.857 755.485 290.857C754.499 290.857 753.615 290.994 752.834 291.268C752.062 291.541 751.408 291.897 750.871 292.337C750.324 292.786 749.904 293.289 749.611 293.846C749.328 294.402 749.181 294.969 749.171 295.545H751.896C751.896 295.213 751.974 294.896 752.13 294.593C752.296 294.28 752.526 294.012 752.819 293.787C753.112 293.562 753.468 293.382 753.888 293.245C754.318 293.108 754.801 293.04 755.338 293.04C755.915 293.04 756.432 293.113 756.891 293.26C757.36 293.406 757.755 293.611 758.078 293.875C758.4 294.148 758.649 294.476 758.825 294.856C759.001 295.237 759.088 295.667 759.088 296.146V297.391H756.129C755.026 297.391 754.025 297.498 753.127 297.713C752.238 297.928 751.476 298.25 750.841 298.68C750.207 299.119 749.713 299.666 749.362 300.32C749.02 300.975 748.849 301.736 748.849 302.605C748.849 303.27 748.976 303.89 749.23 304.466C749.494 305.032 749.865 305.521 750.343 305.931C750.812 306.351 751.383 306.683 752.057 306.927C752.741 307.171 753.503 307.293 754.342 307.293C754.86 307.293 755.348 307.239 755.807 307.132C756.266 307.024 756.701 306.878 757.111 306.692C757.511 306.507 757.878 306.292 758.21 306.048C758.551 305.804 758.859 305.545 759.132 305.271C759.162 305.604 759.206 305.926 759.264 306.238C759.333 306.541 759.421 306.795 759.528 307ZM754.738 304.935C754.211 304.935 753.747 304.866 753.346 304.729C752.946 304.593 752.614 304.402 752.35 304.158C752.087 303.924 751.886 303.641 751.75 303.309C751.623 302.977 751.559 302.615 751.559 302.225C751.559 301.814 751.632 301.448 751.779 301.126C751.935 300.804 752.16 300.525 752.453 300.291C752.863 299.959 753.415 299.715 754.108 299.559C754.811 299.393 755.631 299.31 756.569 299.31H759.088V302.518C758.932 302.83 758.717 303.133 758.444 303.426C758.171 303.709 757.848 303.963 757.477 304.188C757.096 304.412 756.676 304.593 756.217 304.729C755.758 304.866 755.265 304.935 754.738 304.935ZM767.28 307H769.99V295.633C770.176 295.291 770.391 294.979 770.635 294.695C770.889 294.412 771.162 294.163 771.455 293.948C771.817 293.704 772.212 293.514 772.642 293.377C773.072 293.23 773.535 293.157 774.033 293.157C774.61 293.157 775.117 293.226 775.557 293.362C776.006 293.499 776.387 293.719 776.699 294.021C777.002 294.324 777.232 294.72 777.388 295.208C777.544 295.696 777.622 296.292 777.622 296.995V307H780.332V296.937C780.332 295.882 780.2 294.974 779.937 294.212C779.683 293.44 779.317 292.806 778.838 292.308C778.36 291.81 777.779 291.443 777.095 291.209C776.421 290.975 775.669 290.857 774.839 290.857C774.224 290.867 773.638 290.96 773.081 291.136C772.534 291.302 772.027 291.541 771.558 291.854C771.245 292.059 770.947 292.303 770.664 292.586C770.391 292.859 770.137 293.162 769.903 293.494L769.712 291.15H767.28V307ZM814.031 307H816.858V306.766C816.682 306.326 816.545 305.813 816.448 305.228C816.35 304.632 816.301 304.07 816.301 303.543V296.175C816.301 295.286 816.14 294.51 815.818 293.846C815.496 293.182 815.056 292.625 814.499 292.176C813.933 291.736 813.264 291.409 812.493 291.194C811.721 290.97 810.886 290.857 809.988 290.857C809.001 290.857 808.118 290.994 807.336 291.268C806.565 291.541 805.911 291.897 805.373 292.337C804.827 292.786 804.407 293.289 804.114 293.846C803.83 294.402 803.684 294.969 803.674 295.545H806.399C806.399 295.213 806.477 294.896 806.633 294.593C806.799 294.28 807.029 294.012 807.322 293.787C807.615 293.562 807.971 293.382 808.391 293.245C808.821 293.108 809.304 293.04 809.841 293.04C810.417 293.04 810.935 293.113 811.394 293.26C811.863 293.406 812.258 293.611 812.58 293.875C812.903 294.148 813.152 294.476 813.328 294.856C813.503 295.237 813.591 295.667 813.591 296.146V297.391H810.632C809.529 297.391 808.528 297.498 807.629 297.713C806.741 297.928 805.979 298.25 805.344 298.68C804.709 299.119 804.216 299.666 803.865 300.32C803.523 300.975 803.352 301.736 803.352 302.605C803.352 303.27 803.479 303.89 803.733 304.466C803.996 305.032 804.368 305.521 804.846 305.931C805.315 306.351 805.886 306.683 806.56 306.927C807.244 307.171 808.005 307.293 808.845 307.293C809.363 307.293 809.851 307.239 810.31 307.132C810.769 307.024 811.204 306.878 811.614 306.692C812.014 306.507 812.38 306.292 812.712 306.048C813.054 305.804 813.362 305.545 813.635 305.271C813.664 305.604 813.708 305.926 813.767 306.238C813.835 306.541 813.923 306.795 814.031 307ZM809.241 304.935C808.713 304.935 808.249 304.866 807.849 304.729C807.449 304.593 807.117 304.402 806.853 304.158C806.589 303.924 806.389 303.641 806.252 303.309C806.125 302.977 806.062 302.615 806.062 302.225C806.062 301.814 806.135 301.448 806.282 301.126C806.438 300.804 806.663 300.525 806.955 300.291C807.366 299.959 807.917 299.715 808.611 299.559C809.314 299.393 810.134 299.31 811.072 299.31H813.591V302.518C813.435 302.83 813.22 303.133 812.947 303.426C812.673 303.709 812.351 303.963 811.98 304.188C811.599 304.412 811.179 304.593 810.72 304.729C810.261 304.866 809.768 304.935 809.241 304.935ZM821.769 313.094H824.479V305.477C824.674 305.691 824.884 305.892 825.108 306.077C825.333 306.253 825.572 306.414 825.826 306.561C826.246 306.795 826.715 306.976 827.232 307.103C827.76 307.229 828.326 307.293 828.932 307.293C829.928 307.293 830.812 307.088 831.583 306.678C832.364 306.268 833.019 305.701 833.546 304.979C834.073 304.256 834.474 303.406 834.747 302.43C835.021 301.443 835.157 300.384 835.157 299.251V298.943C835.157 297.762 835.021 296.678 834.747 295.691C834.474 294.695 834.073 293.841 833.546 293.128C833.019 292.415 832.364 291.858 831.583 291.458C830.802 291.058 829.903 290.857 828.888 290.857C828.312 290.857 827.77 290.921 827.262 291.048C826.764 291.165 826.31 291.341 825.899 291.575C825.606 291.731 825.333 291.922 825.079 292.146C824.825 292.361 824.591 292.605 824.376 292.879L824.244 291.15H821.769V313.094ZM832.447 298.943V299.251C832.447 300.022 832.359 300.76 832.184 301.463C832.018 302.166 831.759 302.786 831.407 303.323C831.056 303.86 830.606 304.29 830.06 304.612C829.513 304.925 828.863 305.081 828.111 305.081C827.643 305.081 827.213 305.022 826.822 304.905C826.441 304.788 826.095 304.627 825.782 304.422C825.509 304.246 825.265 304.031 825.05 303.777C824.835 303.523 824.645 303.25 824.479 302.957V295.325C824.664 294.993 824.879 294.69 825.123 294.417C825.367 294.144 825.646 293.914 825.958 293.729C826.241 293.543 826.559 293.401 826.91 293.304C827.271 293.206 827.662 293.157 828.082 293.157C828.844 293.157 829.498 293.313 830.045 293.626C830.592 293.938 831.046 294.358 831.407 294.886C831.759 295.423 832.018 296.043 832.184 296.746C832.359 297.439 832.447 298.172 832.447 298.943ZM839.936 313.094H842.646V305.477C842.841 305.691 843.051 305.892 843.276 306.077C843.501 306.253 843.74 306.414 843.994 306.561C844.414 306.795 844.882 306.976 845.4 307.103C845.927 307.229 846.494 307.293 847.099 307.293C848.095 307.293 848.979 307.088 849.751 306.678C850.532 306.268 851.186 305.701 851.714 304.979C852.241 304.256 852.641 303.406 852.915 302.43C853.188 301.443 853.325 300.384 853.325 299.251V298.943C853.325 297.762 853.188 296.678 852.915 295.691C852.641 294.695 852.241 293.841 851.714 293.128C851.186 292.415 850.532 291.858 849.751 291.458C848.969 291.058 848.071 290.857 847.055 290.857C846.479 290.857 845.937 290.921 845.429 291.048C844.931 291.165 844.477 291.341 844.067 291.575C843.774 291.731 843.501 291.922 843.247 292.146C842.993 292.361 842.758 292.605 842.544 292.879L842.412 291.15H839.936V313.094ZM850.615 298.943V299.251C850.615 300.022 850.527 300.76 850.351 301.463C850.185 302.166 849.926 302.786 849.575 303.323C849.223 303.86 848.774 304.29 848.227 304.612C847.68 304.925 847.031 305.081 846.279 305.081C845.81 305.081 845.38 305.022 844.99 304.905C844.609 304.788 844.262 304.627 843.95 304.422C843.676 304.246 843.432 304.031 843.217 303.777C843.003 303.523 842.812 303.25 842.646 302.957V295.325C842.832 294.993 843.047 294.69 843.291 294.417C843.535 294.144 843.813 293.914 844.126 293.729C844.409 293.543 844.726 293.401 845.078 293.304C845.439 293.206 845.83 293.157 846.25 293.157C847.011 293.157 847.666 293.313 848.213 293.626C848.759 293.938 849.214 294.358 849.575 294.886C849.926 295.423 850.185 296.043 850.351 296.746C850.527 297.439 850.615 298.172 850.615 298.943ZM877.809 307H879.948L882.394 297.288L882.79 294.827L883.2 297.288L885.676 307H887.814L891.183 291.15H888.781L887.023 301.258L886.628 303.748L886.203 301.258L883.683 291.15H881.94L879.406 301.258L879.011 303.528L878.688 301.258L876.843 291.15H874.44L877.809 307ZM894.878 291.15V293.509H900.269V304.656H894.878V307H908.15V304.656H902.979V291.15H894.878ZM899.917 286.99C899.917 287.43 900.049 287.796 900.313 288.089C900.586 288.382 900.996 288.528 901.543 288.528C902.08 288.528 902.486 288.382 902.759 288.089C903.033 287.796 903.169 287.43 903.169 286.99C903.169 286.746 903.13 286.521 903.052 286.316C902.974 286.111 902.857 285.94 902.701 285.804C902.574 285.677 902.412 285.579 902.217 285.511C902.022 285.433 901.797 285.394 901.543 285.394C901.289 285.394 901.06 285.433 900.855 285.511C900.66 285.579 900.498 285.677 900.371 285.804C900.215 285.95 900.098 286.126 900.02 286.331C899.952 286.536 899.917 286.756 899.917 286.99ZM919.037 287.312H916.312V291.15H912.152V293.245H916.312V301.858C916.312 302.835 916.439 303.67 916.693 304.363C916.957 305.047 917.313 305.604 917.763 306.033C918.212 306.473 918.739 306.795 919.345 307C919.96 307.195 920.619 307.293 921.322 307.293C921.742 307.293 922.162 307.273 922.582 307.234C923.012 307.195 923.417 307.137 923.798 307.059C924.179 306.99 924.53 306.907 924.853 306.81C925.175 306.702 925.448 306.58 925.673 306.443L925.292 304.524C925.126 304.563 924.911 304.612 924.647 304.671C924.394 304.72 924.12 304.769 923.827 304.817C923.524 304.866 923.217 304.91 922.904 304.949C922.592 304.979 922.289 304.993 921.996 304.993C921.596 304.993 921.215 304.944 920.854 304.847C920.502 304.749 920.189 304.578 919.916 304.334C919.643 304.1 919.428 303.782 919.271 303.382C919.115 302.981 919.037 302.474 919.037 301.858V293.245H925.072V291.15H919.037V287.312ZM933.499 293.509V284.5H930.789V307H933.499V295.486C933.694 295.174 933.914 294.891 934.158 294.637C934.412 294.373 934.685 294.144 934.978 293.948C935.349 293.694 935.755 293.499 936.194 293.362C936.633 293.226 937.097 293.157 937.586 293.157C938.181 293.147 938.709 293.23 939.168 293.406C939.627 293.572 940.007 293.826 940.31 294.168C940.593 294.48 940.808 294.876 940.955 295.354C941.101 295.823 941.174 296.37 941.174 296.995V307H943.884V297.024C943.884 295.96 943.753 295.042 943.489 294.271C943.235 293.489 942.869 292.845 942.39 292.337C941.912 291.829 941.331 291.458 940.647 291.224C939.973 290.979 939.221 290.857 938.391 290.857C937.756 290.867 937.156 290.96 936.589 291.136C936.033 291.312 935.52 291.57 935.051 291.912C934.758 292.117 934.48 292.356 934.216 292.63C933.953 292.894 933.714 293.187 933.499 293.509ZM973.54 287.312H970.815V291.15H966.655V293.245H970.815V301.858C970.815 302.835 970.942 303.67 971.196 304.363C971.46 305.047 971.816 305.604 972.265 306.033C972.715 306.473 973.242 306.795 973.847 307C974.463 307.195 975.122 307.293 975.825 307.293C976.245 307.293 976.665 307.273 977.085 307.234C977.514 307.195 977.92 307.137 978.301 307.059C978.681 306.99 979.033 306.907 979.355 306.81C979.678 306.702 979.951 306.58 980.176 306.443L979.795 304.524C979.629 304.563 979.414 304.612 979.15 304.671C978.896 304.72 978.623 304.769 978.33 304.817C978.027 304.866 977.72 304.91 977.407 304.949C977.095 304.979 976.792 304.993 976.499 304.993C976.098 304.993 975.718 304.944 975.356 304.847C975.005 304.749 974.692 304.578 974.419 304.334C974.145 304.1 973.93 303.782 973.774 303.382C973.618 302.981 973.54 302.474 973.54 301.858V293.245H979.575V291.15H973.54V287.312ZM992.293 307.293C993.836 307.293 995.13 306.985 996.175 306.37C997.23 305.745 998.021 305.032 998.548 304.231L996.893 302.942C996.395 303.587 995.77 304.104 995.018 304.495C994.266 304.886 993.407 305.081 992.44 305.081C991.707 305.081 991.038 304.944 990.433 304.671C989.828 304.397 989.31 304.021 988.88 303.543C988.46 303.094 988.128 302.576 987.884 301.99C987.65 301.404 987.498 300.726 987.43 299.954V299.852H998.753V298.636C998.753 297.532 998.612 296.507 998.328 295.56C998.055 294.612 997.635 293.787 997.069 293.084C996.502 292.391 995.789 291.849 994.93 291.458C994.08 291.058 993.084 290.857 991.942 290.857C991.034 290.857 990.145 291.043 989.276 291.414C988.416 291.785 987.65 292.317 986.976 293.011C986.292 293.714 985.745 294.573 985.335 295.589C984.925 296.595 984.72 297.737 984.72 299.017V299.632C984.72 300.735 984.906 301.756 985.277 302.693C985.648 303.631 986.165 304.441 986.829 305.125C987.494 305.809 988.289 306.341 989.217 306.722C990.155 307.103 991.18 307.293 992.293 307.293ZM991.942 293.084C992.635 293.084 993.231 293.211 993.729 293.465C994.237 293.719 994.657 294.051 994.989 294.461C995.321 294.871 995.579 295.359 995.765 295.926C995.951 296.482 996.043 297.005 996.043 297.493V297.625H987.518C987.625 296.893 987.811 296.248 988.075 295.691C988.348 295.125 988.68 294.646 989.071 294.256C989.461 293.875 989.901 293.587 990.389 293.392C990.877 293.187 991.395 293.084 991.942 293.084ZM1004.7 291.15H1002.27V307H1004.85V294.388C1004.91 294.231 1004.98 294.085 1005.07 293.948C1005.17 293.812 1005.28 293.689 1005.41 293.582C1005.57 293.445 1005.77 293.343 1006.01 293.274C1006.25 293.196 1006.54 293.157 1006.86 293.157C1007.15 293.157 1007.4 293.196 1007.62 293.274C1007.84 293.343 1008.03 293.455 1008.18 293.611C1008.33 293.777 1008.44 293.987 1008.51 294.241C1008.59 294.495 1008.63 294.788 1008.63 295.12V307H1011.21V295.135C1011.21 295.076 1011.21 295.027 1011.21 294.988C1011.21 294.939 1011.21 294.891 1011.21 294.842C1011.24 294.598 1011.3 294.378 1011.38 294.183C1011.47 293.978 1011.59 293.797 1011.75 293.641C1011.91 293.494 1012.1 293.377 1012.34 293.289C1012.57 293.201 1012.85 293.157 1013.17 293.157C1013.47 293.157 1013.74 293.196 1013.96 293.274C1014.2 293.353 1014.39 293.47 1014.55 293.626C1014.69 293.792 1014.81 294.002 1014.88 294.256C1014.96 294.51 1015 294.803 1015 295.135V307H1017.58V295.164C1017.58 294.402 1017.49 293.743 1017.32 293.187C1017.14 292.62 1016.89 292.161 1016.55 291.81C1016.25 291.497 1015.88 291.263 1015.44 291.106C1015 290.94 1014.51 290.857 1013.96 290.857C1013.56 290.867 1013.19 290.921 1012.85 291.019C1012.52 291.116 1012.21 291.248 1011.94 291.414C1011.73 291.561 1011.53 291.731 1011.34 291.927C1011.15 292.122 1010.99 292.332 1010.86 292.557C1010.75 292.312 1010.62 292.093 1010.46 291.897C1010.31 291.702 1010.15 291.536 1009.96 291.399C1009.71 291.224 1009.41 291.092 1009.07 291.004C1008.74 290.906 1008.36 290.857 1007.94 290.857C1007.2 290.867 1006.56 291.028 1006.04 291.341C1005.52 291.653 1005.1 292.088 1004.78 292.645L1004.7 291.15ZM1021.61 313.094H1024.32V305.477C1024.52 305.691 1024.73 305.892 1024.95 306.077C1025.18 306.253 1025.42 306.414 1025.67 306.561C1026.09 306.795 1026.56 306.976 1027.08 307.103C1027.6 307.229 1028.17 307.293 1028.78 307.293C1029.77 307.293 1030.65 307.088 1031.43 306.678C1032.21 306.268 1032.86 305.701 1033.39 304.979C1033.92 304.256 1034.32 303.406 1034.59 302.43C1034.86 301.443 1035 300.384 1035 299.251V298.943C1035 297.762 1034.86 296.678 1034.59 295.691C1034.32 294.695 1033.92 293.841 1033.39 293.128C1032.86 292.415 1032.21 291.858 1031.43 291.458C1030.65 291.058 1029.75 290.857 1028.73 290.857C1028.15 290.857 1027.61 290.921 1027.11 291.048C1026.61 291.165 1026.15 291.341 1025.74 291.575C1025.45 291.731 1025.18 291.922 1024.92 292.146C1024.67 292.361 1024.43 292.605 1024.22 292.879L1024.09 291.15H1021.61V313.094ZM1032.29 298.943V299.251C1032.29 300.022 1032.2 300.76 1032.03 301.463C1031.86 302.166 1031.6 302.786 1031.25 303.323C1030.9 303.86 1030.45 304.29 1029.9 304.612C1029.36 304.925 1028.71 305.081 1027.95 305.081C1027.49 305.081 1027.06 305.022 1026.67 304.905C1026.28 304.788 1025.94 304.627 1025.63 304.422C1025.35 304.246 1025.11 304.031 1024.89 303.777C1024.68 303.523 1024.49 303.25 1024.32 302.957V295.325C1024.51 294.993 1024.72 294.69 1024.97 294.417C1025.21 294.144 1025.49 293.914 1025.8 293.729C1026.08 293.543 1026.4 293.401 1026.75 293.304C1027.11 293.206 1027.51 293.157 1027.93 293.157C1028.69 293.157 1029.34 293.313 1029.89 293.626C1030.44 293.938 1030.89 294.358 1031.25 294.886C1031.6 295.423 1031.86 296.043 1032.03 296.746C1032.2 297.439 1032.29 298.172 1032.29 298.943ZM1039.03 298.929V299.251C1039.03 300.394 1039.2 301.453 1039.53 302.43C1039.86 303.406 1040.34 304.256 1040.97 304.979C1041.58 305.701 1042.33 306.268 1043.22 306.678C1044.12 307.088 1045.13 307.293 1046.25 307.293C1047.37 307.293 1048.37 307.088 1049.26 306.678C1050.15 306.268 1050.9 305.701 1051.53 304.979C1052.14 304.256 1052.62 303.406 1052.95 302.43C1053.28 301.453 1053.45 300.394 1053.45 299.251V298.929C1053.45 297.786 1053.28 296.727 1052.95 295.75C1052.62 294.764 1052.14 293.909 1051.53 293.187C1050.9 292.464 1050.14 291.897 1049.24 291.487C1048.35 291.067 1047.35 290.857 1046.22 290.857C1045.11 290.857 1044.11 291.067 1043.22 291.487C1042.33 291.897 1041.58 292.464 1040.97 293.187C1040.34 293.909 1039.86 294.764 1039.53 295.75C1039.2 296.727 1039.03 297.786 1039.03 298.929ZM1041.74 299.251V298.929C1041.74 298.157 1041.84 297.42 1042.02 296.717C1042.21 296.004 1042.49 295.379 1042.87 294.842C1043.24 294.305 1043.71 293.88 1044.26 293.567C1044.82 293.245 1045.47 293.084 1046.22 293.084C1046.98 293.084 1047.63 293.245 1048.19 293.567C1048.75 293.88 1049.23 294.305 1049.61 294.842C1049.98 295.379 1050.26 296.004 1050.44 296.717C1050.64 297.42 1050.74 298.157 1050.74 298.929V299.251C1050.74 300.032 1050.64 300.779 1050.46 301.492C1050.27 302.195 1049.99 302.815 1049.62 303.353C1049.24 303.89 1048.77 304.314 1048.2 304.627C1047.65 304.939 1047 305.096 1046.25 305.096C1045.5 305.096 1044.84 304.939 1044.28 304.627C1043.71 304.314 1043.24 303.89 1042.87 303.353C1042.49 302.815 1042.21 302.195 1042.02 301.492C1041.84 300.779 1041.74 300.032 1041.74 299.251ZM1068.35 290.857C1067.2 290.857 1066.16 291.111 1065.26 291.619C1064.36 292.117 1063.59 292.801 1062.94 293.67L1062.93 293.274L1062.81 291.15H1060.23V307H1062.96V296.834C1063.13 296.346 1063.35 295.906 1063.62 295.516C1063.89 295.115 1064.21 294.778 1064.57 294.505C1064.97 294.192 1065.44 293.958 1065.97 293.802C1066.51 293.636 1067.11 293.553 1067.78 293.553C1068.29 293.553 1068.79 293.582 1069.26 293.641C1069.73 293.689 1070.24 293.772 1070.76 293.89L1071.13 291.238C1070.86 291.121 1070.45 291.028 1069.9 290.96C1069.36 290.892 1068.85 290.857 1068.35 290.857ZM1086.54 307H1089.37V306.766C1089.2 306.326 1089.06 305.813 1088.96 305.228C1088.86 304.632 1088.81 304.07 1088.81 303.543V296.175C1088.81 295.286 1088.65 294.51 1088.33 293.846C1088.01 293.182 1087.57 292.625 1087.01 292.176C1086.45 291.736 1085.78 291.409 1085.01 291.194C1084.23 290.97 1083.4 290.857 1082.5 290.857C1081.52 290.857 1080.63 290.994 1079.85 291.268C1079.08 291.541 1078.42 291.897 1077.89 292.337C1077.34 292.786 1076.92 293.289 1076.63 293.846C1076.34 294.402 1076.2 294.969 1076.19 295.545H1078.91C1078.91 295.213 1078.99 294.896 1079.15 294.593C1079.31 294.28 1079.54 294.012 1079.84 293.787C1080.13 293.562 1080.48 293.382 1080.9 293.245C1081.33 293.108 1081.82 293.04 1082.35 293.04C1082.93 293.04 1083.45 293.113 1083.91 293.26C1084.38 293.406 1084.77 293.611 1085.09 293.875C1085.42 294.148 1085.67 294.476 1085.84 294.856C1086.02 295.237 1086.1 295.667 1086.1 296.146V297.391H1083.15C1082.04 297.391 1081.04 297.498 1080.14 297.713C1079.25 297.928 1078.49 298.25 1077.86 298.68C1077.22 299.119 1076.73 299.666 1076.38 300.32C1076.04 300.975 1075.87 301.736 1075.87 302.605C1075.87 303.27 1075.99 303.89 1076.25 304.466C1076.51 305.032 1076.88 305.521 1077.36 305.931C1077.83 306.351 1078.4 306.683 1079.07 306.927C1079.76 307.171 1080.52 307.293 1081.36 307.293C1081.88 307.293 1082.36 307.239 1082.82 307.132C1083.28 307.024 1083.72 306.878 1084.13 306.692C1084.53 306.507 1084.89 306.292 1085.23 306.048C1085.57 305.804 1085.88 305.545 1086.15 305.271C1086.18 305.604 1086.22 305.926 1086.28 306.238C1086.35 306.541 1086.44 306.795 1086.54 307ZM1081.75 304.935C1081.23 304.935 1080.76 304.866 1080.36 304.729C1079.96 304.593 1079.63 304.402 1079.37 304.158C1079.1 303.924 1078.9 303.641 1078.77 303.309C1078.64 302.977 1078.58 302.615 1078.58 302.225C1078.58 301.814 1078.65 301.448 1078.8 301.126C1078.95 300.804 1079.18 300.525 1079.47 300.291C1079.88 299.959 1080.43 299.715 1081.12 299.559C1081.83 299.393 1082.65 299.31 1083.59 299.31H1086.1V302.518C1085.95 302.83 1085.73 303.133 1085.46 303.426C1085.19 303.709 1084.86 303.963 1084.49 304.188C1084.11 304.412 1083.69 304.593 1083.23 304.729C1082.77 304.866 1082.28 304.935 1081.75 304.935ZM1104.68 290.857C1103.53 290.857 1102.5 291.111 1101.59 291.619C1100.69 292.117 1099.92 292.801 1099.28 293.67L1099.26 293.274L1099.15 291.15H1096.57V307H1099.29V296.834C1099.47 296.346 1099.69 295.906 1099.95 295.516C1100.22 295.115 1100.54 294.778 1100.9 294.505C1101.3 294.192 1101.77 293.958 1102.31 293.802C1102.85 293.636 1103.45 293.553 1104.11 293.553C1104.63 293.553 1105.12 293.582 1105.59 293.641C1106.07 293.689 1106.57 293.772 1107.1 293.89L1107.47 291.238C1107.19 291.121 1106.78 291.028 1106.24 290.96C1105.7 290.892 1105.18 290.857 1104.68 290.857ZM1113.74 313.401C1114.45 313.401 1115.08 313.27 1115.63 313.006C1116.18 312.742 1116.65 312.415 1117.06 312.024C1117.47 311.634 1117.82 311.209 1118.1 310.75C1118.4 310.291 1118.64 309.856 1118.82 309.446L1126.86 291.15H1123.83L1119.74 301.434L1119 303.294L1118.29 301.375L1113.94 291.15H1110.91L1117.74 306.253L1116.65 308.362C1116.56 308.558 1116.42 308.807 1116.24 309.109C1116.08 309.412 1115.88 309.705 1115.64 309.988C1115.4 310.271 1115.12 310.516 1114.81 310.721C1114.51 310.926 1114.17 311.028 1113.8 311.028C1113.66 311.028 1113.47 311.019 1113.23 310.999C1112.99 310.989 1112.75 310.975 1112.51 310.955L1112.07 313.167C1112.24 313.206 1112.5 313.255 1112.85 313.313C1113.19 313.372 1113.48 313.401 1113.74 313.401ZM1153.55 299.603L1159.36 307H1162.8L1155.41 297.757L1161.82 291.15H1158.53L1153.33 296.365L1151.55 298.27V284.5H1148.83V307H1151.55V301.521L1153.55 299.603ZM1173.97 307.293C1175.51 307.293 1176.81 306.985 1177.85 306.37C1178.91 305.745 1179.7 305.032 1180.22 304.231L1178.57 302.942C1178.07 303.587 1177.45 304.104 1176.69 304.495C1175.94 304.886 1175.08 305.081 1174.12 305.081C1173.38 305.081 1172.71 304.944 1172.11 304.671C1171.5 304.397 1170.99 304.021 1170.56 303.543C1170.14 303.094 1169.8 302.576 1169.56 301.99C1169.33 301.404 1169.17 300.726 1169.11 299.954V299.852H1180.43V298.636C1180.43 297.532 1180.29 296.507 1180 295.56C1179.73 294.612 1179.31 293.787 1178.74 293.084C1178.18 292.391 1177.47 291.849 1176.61 291.458C1175.76 291.058 1174.76 290.857 1173.62 290.857C1172.71 290.857 1171.82 291.043 1170.95 291.414C1170.09 291.785 1169.33 292.317 1168.65 293.011C1167.97 293.714 1167.42 294.573 1167.01 295.589C1166.6 296.595 1166.4 297.737 1166.4 299.017V299.632C1166.4 300.735 1166.58 301.756 1166.95 302.693C1167.32 303.631 1167.84 304.441 1168.51 305.125C1169.17 305.809 1169.97 306.341 1170.89 306.722C1171.83 307.103 1172.86 307.293 1173.97 307.293ZM1173.62 293.084C1174.31 293.084 1174.91 293.211 1175.4 293.465C1175.91 293.719 1176.33 294.051 1176.66 294.461C1177 294.871 1177.26 295.359 1177.44 295.926C1177.63 296.482 1177.72 297.005 1177.72 297.493V297.625H1169.19C1169.3 296.893 1169.49 296.248 1169.75 295.691C1170.02 295.125 1170.36 294.646 1170.75 294.256C1171.14 293.875 1171.58 293.587 1172.06 293.392C1172.55 293.187 1173.07 293.084 1173.62 293.084ZM1186.41 313.401C1187.12 313.401 1187.75 313.27 1188.3 313.006C1188.85 312.742 1189.32 312.415 1189.73 312.024C1190.14 311.634 1190.49 311.209 1190.77 310.75C1191.07 310.291 1191.31 309.856 1191.49 309.446L1199.53 291.15H1196.5L1192.42 301.434L1191.67 303.294L1190.96 301.375L1186.61 291.15H1183.58L1190.41 306.253L1189.32 308.362C1189.23 308.558 1189.09 308.807 1188.91 309.109C1188.75 309.412 1188.55 309.705 1188.31 309.988C1188.07 310.271 1187.79 310.516 1187.48 310.721C1187.18 310.926 1186.84 311.028 1186.47 311.028C1186.33 311.028 1186.14 311.019 1185.9 310.999C1185.66 310.989 1185.42 310.975 1185.18 310.955L1184.74 313.167C1184.92 313.206 1185.17 313.255 1185.52 313.313C1185.86 313.372 1186.16 313.401 1186.41 313.401ZM1213.83 302.796C1213.83 303.05 1213.79 303.289 1213.69 303.514C1213.59 303.738 1213.45 303.943 1213.26 304.129C1212.96 304.432 1212.54 304.671 1212 304.847C1211.47 305.013 1210.84 305.096 1210.11 305.096C1209.65 305.096 1209.19 305.047 1208.72 304.949C1208.25 304.852 1207.83 304.686 1207.45 304.451C1207.06 304.217 1206.73 303.909 1206.47 303.528C1206.21 303.147 1206.07 302.679 1206.03 302.122H1203.32C1203.32 302.796 1203.47 303.445 1203.77 304.07C1204.08 304.695 1204.53 305.242 1205.12 305.711C1205.69 306.189 1206.4 306.575 1207.24 306.868C1208.08 307.151 1209.04 307.293 1210.11 307.293C1211.05 307.293 1211.92 307.181 1212.71 306.956C1213.5 306.731 1214.18 306.414 1214.74 306.004C1215.31 305.594 1215.75 305.101 1216.06 304.524C1216.38 303.948 1216.54 303.309 1216.54 302.605C1216.54 301.951 1216.4 301.375 1216.12 300.877C1215.85 300.379 1215.45 299.939 1214.92 299.559C1214.39 299.188 1213.74 298.87 1212.97 298.606C1212.2 298.333 1211.32 298.094 1210.35 297.889C1209.61 297.742 1208.99 297.591 1208.5 297.435C1208.02 297.278 1207.64 297.103 1207.36 296.907C1207.07 296.712 1206.86 296.492 1206.74 296.248C1206.63 296.004 1206.57 295.726 1206.57 295.413C1206.57 295.11 1206.64 294.817 1206.79 294.534C1206.94 294.251 1207.15 294.002 1207.45 293.787C1207.73 293.572 1208.09 293.401 1208.52 293.274C1208.96 293.147 1209.46 293.084 1210.04 293.084C1210.6 293.084 1211.1 293.162 1211.53 293.318C1211.98 293.475 1212.36 293.68 1212.68 293.934C1212.99 294.188 1213.23 294.48 1213.41 294.812C1213.59 295.135 1213.67 295.467 1213.67 295.809H1216.38C1216.38 295.115 1216.23 294.471 1215.93 293.875C1215.64 293.27 1215.22 292.742 1214.67 292.293C1214.12 291.844 1213.46 291.492 1212.68 291.238C1211.9 290.984 1211.02 290.857 1210.04 290.857C1209.13 290.857 1208.3 290.979 1207.54 291.224C1206.78 291.468 1206.13 291.8 1205.59 292.22C1205.04 292.64 1204.62 293.133 1204.31 293.699C1204.01 294.256 1203.86 294.856 1203.86 295.501C1203.86 296.155 1204.01 296.731 1204.3 297.229C1204.59 297.718 1205.01 298.143 1205.54 298.504C1206.07 298.875 1206.71 299.192 1207.45 299.456C1208.2 299.72 1209.03 299.944 1209.94 300.13C1210.68 300.276 1211.3 300.442 1211.8 300.628C1212.3 300.804 1212.7 300.999 1213 301.214C1213.3 301.429 1213.52 301.668 1213.64 301.932C1213.77 302.186 1213.83 302.474 1213.83 302.796Z" fill="white"/>
<path d="M699.004 369.531C699.004 370.234 698.852 370.844 698.547 371.359C698.242 371.863 697.85 372.279 697.369 372.607C696.889 372.947 696.338 373.199 695.717 373.363C695.107 373.516 694.486 373.592 693.854 373.592C693.057 373.592 692.318 373.486 691.639 373.275C690.971 373.053 690.379 372.725 689.863 372.291C689.348 371.869 688.926 371.354 688.598 370.744C688.27 370.123 688.053 369.414 687.947 368.617H684.625C684.66 369.719 684.9 370.721 685.346 371.623C685.803 372.514 686.418 373.293 687.191 373.961C688.059 374.734 689.078 375.326 690.25 375.736C691.434 376.146 692.635 376.352 693.854 376.352C694.873 376.352 695.893 376.211 696.912 375.93C697.932 375.637 698.846 375.203 699.654 374.629C700.463 374.066 701.119 373.357 701.623 372.502C702.139 371.646 702.396 370.645 702.396 369.496C702.396 368.359 702.156 367.357 701.676 366.49C701.207 365.623 700.586 364.891 699.812 364.293C699.027 363.648 698.16 363.121 697.211 362.711C696.262 362.289 695.312 361.932 694.363 361.639C693.789 361.463 693.174 361.258 692.518 361.023C691.873 360.789 691.275 360.496 690.725 360.145C690.162 359.793 689.699 359.365 689.336 358.861C688.973 358.346 688.785 357.719 688.773 356.98C688.773 356.301 688.908 355.703 689.178 355.188C689.459 354.672 689.834 354.238 690.303 353.887C690.76 353.535 691.281 353.271 691.867 353.096C692.465 352.92 693.074 352.832 693.695 352.832C694.469 352.832 695.16 352.955 695.77 353.201C696.391 353.436 696.924 353.77 697.369 354.203C697.814 354.637 698.172 355.158 698.441 355.768C698.711 356.365 698.893 357.033 698.986 357.771H702.326C702.303 356.6 702.051 355.539 701.57 354.59C701.09 353.641 700.451 352.832 699.654 352.164C698.857 351.496 697.943 350.98 696.912 350.617C695.881 350.242 694.809 350.055 693.695 350.055C692.688 350.055 691.686 350.213 690.689 350.529C689.693 350.834 688.803 351.285 688.018 351.883C687.232 352.48 686.594 353.213 686.102 354.08C685.621 354.947 685.381 355.932 685.381 357.033C685.381 358.135 685.621 359.096 686.102 359.916C686.594 360.725 687.227 361.428 688 362.025C688.762 362.611 689.605 363.115 690.531 363.537C691.469 363.947 692.389 364.299 693.291 364.592C693.912 364.791 694.557 365.014 695.225 365.26C695.904 365.506 696.525 365.811 697.088 366.174C697.65 366.549 698.107 367.006 698.459 367.545C698.822 368.084 699.004 368.746 699.004 369.531ZM719.879 376H723.271V375.719C723.06 375.191 722.896 374.576 722.779 373.873C722.662 373.158 722.603 372.484 722.603 371.852V363.01C722.603 361.943 722.41 361.012 722.023 360.215C721.636 359.418 721.109 358.75 720.441 358.211C719.761 357.684 718.959 357.291 718.033 357.033C717.107 356.764 716.105 356.629 715.027 356.629C713.843 356.629 712.783 356.793 711.845 357.121C710.92 357.449 710.134 357.877 709.49 358.404C708.834 358.943 708.33 359.547 707.978 360.215C707.638 360.883 707.462 361.562 707.451 362.254H710.72C710.72 361.855 710.814 361.475 711.002 361.111C711.201 360.736 711.476 360.414 711.828 360.145C712.179 359.875 712.607 359.658 713.111 359.494C713.627 359.33 714.207 359.248 714.851 359.248C715.543 359.248 716.164 359.336 716.714 359.512C717.277 359.688 717.752 359.934 718.138 360.25C718.525 360.578 718.824 360.971 719.035 361.428C719.246 361.885 719.351 362.4 719.351 362.975V364.469H715.8C714.476 364.469 713.275 364.598 712.197 364.855C711.13 365.113 710.216 365.5 709.455 366.016C708.693 366.543 708.101 367.199 707.679 367.984C707.269 368.77 707.064 369.684 707.064 370.727C707.064 371.523 707.216 372.268 707.521 372.959C707.837 373.639 708.283 374.225 708.857 374.717C709.42 375.221 710.105 375.619 710.914 375.912C711.734 376.205 712.648 376.352 713.656 376.352C714.277 376.352 714.863 376.287 715.414 376.158C715.964 376.029 716.486 375.854 716.978 375.631C717.459 375.408 717.898 375.15 718.296 374.857C718.707 374.564 719.076 374.254 719.404 373.926C719.439 374.324 719.492 374.711 719.562 375.086C719.644 375.449 719.75 375.754 719.879 376ZM714.13 373.521C713.498 373.521 712.941 373.439 712.461 373.275C711.98 373.111 711.582 372.883 711.265 372.59C710.949 372.309 710.709 371.969 710.545 371.57C710.392 371.172 710.316 370.738 710.316 370.27C710.316 369.777 710.404 369.338 710.58 368.951C710.767 368.564 711.037 368.23 711.388 367.949C711.88 367.551 712.543 367.258 713.375 367.07C714.218 366.871 715.203 366.771 716.328 366.771H719.351V370.621C719.164 370.996 718.906 371.359 718.578 371.711C718.25 372.051 717.863 372.355 717.418 372.625C716.961 372.895 716.457 373.111 715.906 373.275C715.355 373.439 714.763 373.521 714.13 373.521ZM741.614 356.629C740.232 356.629 738.995 356.934 737.905 357.543C736.827 358.141 735.902 358.961 735.128 360.004L735.111 359.529L734.97 356.98H731.876V376H735.146V363.801C735.357 363.215 735.62 362.688 735.937 362.219C736.265 361.738 736.646 361.334 737.079 361.006C737.56 360.631 738.122 360.35 738.767 360.162C739.411 359.963 740.132 359.863 740.929 359.863C741.55 359.863 742.142 359.898 742.704 359.969C743.279 360.027 743.882 360.127 744.515 360.268L744.954 357.086C744.626 356.945 744.134 356.834 743.478 356.752C742.833 356.67 742.212 356.629 741.614 356.629ZM763.421 376H766.813V375.719C766.602 375.191 766.438 374.576 766.321 373.873C766.204 373.158 766.145 372.484 766.145 371.852V363.01C766.145 361.943 765.952 361.012 765.565 360.215C765.179 359.418 764.651 358.75 763.983 358.211C763.304 357.684 762.501 357.291 761.575 357.033C760.649 356.764 759.647 356.629 758.569 356.629C757.386 356.629 756.325 356.793 755.388 357.121C754.462 357.449 753.677 357.877 753.032 358.404C752.376 358.943 751.872 359.547 751.52 360.215C751.18 360.883 751.005 361.562 750.993 362.254H754.263C754.263 361.855 754.356 361.475 754.544 361.111C754.743 360.736 755.018 360.414 755.37 360.145C755.721 359.875 756.149 359.658 756.653 359.494C757.169 359.33 757.749 359.248 758.393 359.248C759.085 359.248 759.706 359.336 760.257 359.512C760.819 359.688 761.294 359.934 761.68 360.25C762.067 360.578 762.366 360.971 762.577 361.428C762.788 361.885 762.893 362.4 762.893 362.975V364.469H759.343C758.018 364.469 756.817 364.598 755.739 364.855C754.673 365.113 753.759 365.5 752.997 366.016C752.235 366.543 751.643 367.199 751.221 367.984C750.811 368.77 750.606 369.684 750.606 370.727C750.606 371.523 750.759 372.268 751.063 372.959C751.38 373.639 751.825 374.225 752.399 374.717C752.962 375.221 753.647 375.619 754.456 375.912C755.276 376.205 756.19 376.352 757.198 376.352C757.819 376.352 758.405 376.287 758.956 376.158C759.507 376.029 760.028 375.854 760.52 375.631C761.001 375.408 761.44 375.15 761.839 374.857C762.249 374.564 762.618 374.254 762.946 373.926C762.981 374.324 763.034 374.711 763.104 375.086C763.186 375.449 763.292 375.754 763.421 376ZM757.673 373.521C757.04 373.521 756.483 373.439 756.003 373.275C755.522 373.111 755.124 372.883 754.807 372.59C754.491 372.309 754.251 371.969 754.087 371.57C753.934 371.172 753.858 370.738 753.858 370.27C753.858 369.777 753.946 369.338 754.122 368.951C754.309 368.564 754.579 368.23 754.93 367.949C755.423 367.551 756.085 367.258 756.917 367.07C757.761 366.871 758.745 366.771 759.87 366.771H762.893V370.621C762.706 370.996 762.448 371.359 762.12 371.711C761.792 372.051 761.405 372.355 760.96 372.625C760.503 372.895 759.999 373.111 759.448 373.275C758.897 373.439 758.305 373.521 757.673 373.521ZM800.6 364.117L808.334 376H812.289L802.744 361.604L811.691 350.406H807.736L800.23 359.811L797.752 362.904V350.406H794.43V376H797.752V367.352L800.6 364.117ZM816.746 356.98V359.811H823.214V373.188H816.746V376H832.671V373.188H826.466V356.98H816.746ZM822.793 351.988C822.793 352.516 822.951 352.955 823.267 353.307C823.595 353.658 824.087 353.834 824.744 353.834C825.388 353.834 825.875 353.658 826.203 353.307C826.531 352.955 826.695 352.516 826.695 351.988C826.695 351.695 826.648 351.426 826.554 351.18C826.461 350.934 826.32 350.729 826.132 350.564C825.98 350.412 825.787 350.295 825.552 350.213C825.318 350.119 825.048 350.072 824.744 350.072C824.439 350.072 824.164 350.119 823.918 350.213C823.683 350.295 823.49 350.412 823.337 350.564C823.15 350.74 823.009 350.951 822.916 351.197C822.834 351.443 822.793 351.707 822.793 351.988ZM845.706 352.375H842.437V356.98H837.445V359.494H842.437V369.83C842.437 371.002 842.589 372.004 842.894 372.836C843.21 373.656 843.638 374.324 844.177 374.84C844.716 375.367 845.349 375.754 846.075 376C846.814 376.234 847.605 376.352 848.448 376.352C848.952 376.352 849.456 376.328 849.96 376.281C850.476 376.234 850.962 376.164 851.419 376.07C851.876 375.988 852.298 375.889 852.685 375.771C853.071 375.643 853.4 375.496 853.669 375.332L853.212 373.029C853.013 373.076 852.755 373.135 852.439 373.205C852.134 373.264 851.806 373.322 851.454 373.381C851.091 373.439 850.722 373.492 850.347 373.539C849.972 373.574 849.609 373.592 849.257 373.592C848.777 373.592 848.32 373.533 847.886 373.416C847.464 373.299 847.089 373.094 846.761 372.801C846.433 372.52 846.175 372.139 845.987 371.658C845.8 371.178 845.706 370.568 845.706 369.83V359.494H852.948V356.98H845.706V352.375ZM863.68 373.346L875.159 359.283V356.98H859.69V359.67H870.888L859.532 373.609V376H875.792V373.346H863.68ZM882.059 356.98V359.811H888.528V373.188H882.059V376H897.985V373.188H891.78V356.98H882.059ZM888.106 351.988C888.106 352.516 888.264 352.955 888.58 353.307C888.909 353.658 889.401 353.834 890.057 353.834C890.702 353.834 891.188 353.658 891.516 353.307C891.844 352.955 892.008 352.516 892.008 351.988C892.008 351.695 891.961 351.426 891.868 351.18C891.774 350.934 891.633 350.729 891.446 350.564C891.293 350.412 891.1 350.295 890.866 350.213C890.631 350.119 890.362 350.072 890.057 350.072C889.752 350.072 889.477 350.119 889.231 350.213C888.996 350.295 888.803 350.412 888.651 350.564C888.463 350.74 888.323 350.951 888.229 351.197C888.147 351.443 888.106 351.707 888.106 351.988ZM903.32 376H906.572V362.359C906.795 361.949 907.053 361.574 907.346 361.234C907.65 360.895 907.979 360.596 908.33 360.338C908.764 360.045 909.238 359.816 909.754 359.652C910.27 359.477 910.826 359.389 911.424 359.389C912.115 359.389 912.725 359.471 913.252 359.635C913.791 359.799 914.248 360.062 914.623 360.426C914.986 360.789 915.262 361.264 915.449 361.85C915.637 362.436 915.73 363.15 915.73 363.994V376H918.982V363.924C918.982 362.658 918.824 361.568 918.508 360.654C918.203 359.729 917.764 358.967 917.189 358.369C916.615 357.771 915.918 357.332 915.098 357.051C914.289 356.77 913.387 356.629 912.391 356.629C911.652 356.641 910.949 356.752 910.281 356.963C909.625 357.162 909.016 357.449 908.453 357.824C908.078 358.07 907.721 358.363 907.381 358.703C907.053 359.031 906.748 359.395 906.467 359.793L906.238 356.98H903.32V376ZM924.494 366.332V366.701C924.494 368.061 924.67 369.332 925.021 370.516C925.373 371.688 925.877 372.707 926.533 373.574C927.177 374.441 927.968 375.121 928.906 375.613C929.843 376.105 930.892 376.352 932.052 376.352C932.744 376.352 933.388 376.275 933.986 376.123C934.584 375.982 935.129 375.777 935.621 375.508C935.937 375.332 936.23 375.127 936.5 374.893C936.781 374.658 937.045 374.4 937.291 374.119V375.754C937.291 376.574 937.173 377.301 936.939 377.934C936.705 378.566 936.371 379.094 935.937 379.516C935.492 379.949 934.959 380.277 934.337 380.5C933.716 380.723 933.019 380.834 932.246 380.834C931.812 380.834 931.379 380.787 930.945 380.693C930.511 380.611 930.078 380.471 929.644 380.271C929.211 380.072 928.783 379.803 928.361 379.463C927.939 379.135 927.529 378.73 927.13 378.25L925.443 380.201C925.877 380.822 926.392 381.344 926.99 381.766C927.599 382.188 928.232 382.521 928.888 382.768C929.533 383.025 930.171 383.207 930.804 383.312C931.437 383.43 932 383.488 932.492 383.488C933.687 383.488 934.777 383.312 935.761 382.961C936.746 382.609 937.595 382.094 938.31 381.414C939.013 380.734 939.558 379.908 939.945 378.936C940.343 377.963 940.543 376.85 940.543 375.596V356.98H937.589L937.431 359.055C937.209 358.773 936.968 358.516 936.711 358.281C936.464 358.047 936.201 357.842 935.92 357.666C935.404 357.326 934.824 357.068 934.179 356.893C933.546 356.717 932.849 356.629 932.087 356.629C930.904 356.629 929.843 356.869 928.906 357.35C927.968 357.83 927.171 358.498 926.515 359.354C925.859 360.209 925.355 361.234 925.004 362.43C924.664 363.613 924.494 364.914 924.494 366.332ZM927.746 366.701V366.332C927.746 365.406 927.839 364.527 928.027 363.695C928.226 362.852 928.537 362.107 928.959 361.463C929.369 360.83 929.896 360.326 930.541 359.951C931.197 359.576 931.982 359.389 932.896 359.389C933.435 359.389 933.927 359.459 934.373 359.6C934.818 359.729 935.222 359.91 935.586 360.145C935.949 360.391 936.271 360.678 936.552 361.006C936.834 361.334 937.08 361.697 937.291 362.096V370.814C937.08 371.225 936.834 371.6 936.552 371.939C936.271 372.279 935.955 372.572 935.603 372.818C935.24 373.064 934.83 373.258 934.373 373.398C933.927 373.527 933.423 373.592 932.861 373.592C931.959 373.592 931.185 373.41 930.541 373.047C929.896 372.672 929.369 372.168 928.959 371.535C928.537 370.902 928.226 370.17 928.027 369.338C927.839 368.506 927.746 367.627 927.746 366.701ZM967.456 369.443C967.456 370.451 967.632 371.383 967.983 372.238C968.346 373.082 968.856 373.809 969.513 374.418C970.169 375.027 970.966 375.502 971.903 375.842C972.841 376.182 973.889 376.352 975.05 376.352C975.764 376.352 976.456 376.275 977.124 376.123C977.804 375.971 978.454 375.748 979.075 375.455C979.45 375.279 979.813 375.074 980.165 374.84C980.528 374.605 980.874 374.348 981.202 374.066L982.661 376H986.546L983.364 371.834C984.184 370.803 984.805 369.648 985.227 368.371C985.661 367.082 985.878 365.688 985.878 364.188H982.942C982.93 365.219 982.807 366.18 982.573 367.07C982.339 367.961 982.016 368.781 981.606 369.531L976.21 362.447L977.862 361.041C978.378 360.654 978.858 360.262 979.304 359.863C979.749 359.465 980.136 359.043 980.464 358.598C980.78 358.152 981.026 357.678 981.202 357.174C981.389 356.658 981.483 356.09 981.483 355.469C981.483 354.742 981.354 354.051 981.096 353.395C980.839 352.738 980.475 352.158 980.007 351.654C979.526 351.162 978.946 350.77 978.266 350.477C977.587 350.184 976.831 350.037 975.999 350.037C975.038 350.037 974.171 350.172 973.397 350.441C972.624 350.711 971.962 351.104 971.411 351.619C970.86 352.146 970.432 352.797 970.128 353.57C969.835 354.332 969.688 355.211 969.688 356.207C969.688 356.676 969.735 357.133 969.829 357.578C969.934 358.023 970.075 358.463 970.251 358.896C970.473 359.424 970.755 359.963 971.095 360.514C971.434 361.053 971.821 361.615 972.255 362.201L971.622 362.658C971.048 363.092 970.52 363.531 970.04 363.977C969.571 364.422 969.155 364.891 968.792 365.383C968.37 365.969 968.042 366.596 967.807 367.264C967.573 367.932 967.456 368.658 967.456 369.443ZM975.05 373.715C974.335 373.715 973.708 373.604 973.169 373.381C972.63 373.158 972.179 372.854 971.815 372.467C971.452 372.08 971.177 371.629 970.989 371.113C970.802 370.598 970.708 370.041 970.708 369.443C970.708 369.221 970.737 368.945 970.796 368.617C970.866 368.277 971.001 367.902 971.2 367.492C971.388 367.094 971.663 366.666 972.026 366.209C972.389 365.752 972.864 365.283 973.45 364.803L973.942 364.381L979.62 371.957C979.339 372.191 979.046 372.408 978.741 372.607C978.448 372.795 978.143 372.959 977.827 373.1C977.393 373.299 976.942 373.451 976.473 373.557C976.005 373.662 975.53 373.715 975.05 373.715ZM972.958 356.172C972.958 355.703 973.022 355.264 973.151 354.854C973.28 354.432 973.473 354.062 973.731 353.746C973.977 353.43 974.288 353.178 974.663 352.99C975.05 352.803 975.495 352.709 975.999 352.709C976.386 352.709 976.731 352.791 977.036 352.955C977.341 353.107 977.604 353.307 977.827 353.553C978.038 353.811 978.196 354.109 978.302 354.449C978.419 354.777 978.477 355.117 978.477 355.469C978.477 355.738 978.448 356.014 978.389 356.295C978.343 356.576 978.255 356.852 978.126 357.121C977.997 357.402 977.815 357.678 977.581 357.947C977.346 358.217 977.048 358.475 976.684 358.721L974.628 360.355C974.335 359.934 974.077 359.523 973.854 359.125C973.632 358.727 973.45 358.334 973.309 357.947C973.192 357.654 973.104 357.361 973.046 357.068C972.987 356.764 972.958 356.465 972.958 356.172ZM1026.26 364.17V361.41H1015.57V353.184H1027.87V350.406H1012.32V376H1028.03V373.24H1015.57V364.17H1026.26ZM1046.41 356.629C1045.03 356.629 1043.79 356.934 1042.7 357.543C1041.62 358.141 1040.7 358.961 1039.92 360.004L1039.91 359.529L1039.77 356.98H1036.67V376H1039.94V363.801C1040.15 363.215 1040.42 362.688 1040.73 362.219C1041.06 361.738 1041.44 361.334 1041.87 361.006C1042.36 360.631 1042.92 360.35 1043.56 360.162C1044.21 359.963 1044.93 359.863 1045.72 359.863C1046.35 359.863 1046.94 359.898 1047.5 359.969C1048.07 360.027 1048.68 360.127 1049.31 360.268L1049.75 357.086C1049.42 356.945 1048.93 356.834 1048.27 356.752C1047.63 356.67 1047.01 356.629 1046.41 356.629ZM1056.23 356.98V359.811H1062.7V373.188H1056.23V376H1072.15V373.188H1065.95V356.98H1056.23ZM1062.27 351.988C1062.27 352.516 1062.43 352.955 1062.75 353.307C1063.08 353.658 1063.57 353.834 1064.23 353.834C1064.87 353.834 1065.36 353.658 1065.68 353.307C1066.01 352.955 1066.18 352.516 1066.18 351.988C1066.18 351.695 1066.13 351.426 1066.04 351.18C1065.94 350.934 1065.8 350.729 1065.61 350.564C1065.46 350.412 1065.27 350.295 1065.03 350.213C1064.8 350.119 1064.53 350.072 1064.23 350.072C1063.92 350.072 1063.65 350.119 1063.4 350.213C1063.17 350.295 1062.97 350.412 1062.82 350.564C1062.63 350.74 1062.49 350.951 1062.4 351.197C1062.32 351.443 1062.27 351.707 1062.27 351.988ZM1083.18 367.123L1090.16 376H1094.29L1085.42 364.908L1093.12 356.98H1089.16L1082.92 363.238L1080.79 365.523V349H1077.52V376H1080.79V369.426L1083.18 367.123ZM1124.71 373.24V350.406H1121.45V376H1137.22V373.24H1124.71ZM1155.34 376H1158.29V356.98H1155.02V370.621C1154.84 371.031 1154.62 371.412 1154.35 371.764C1154.09 372.104 1153.79 372.396 1153.44 372.643C1153.02 372.947 1152.52 373.188 1151.94 373.363C1151.37 373.527 1150.72 373.609 1149.99 373.609C1149.37 373.609 1148.82 373.527 1148.34 373.363C1147.87 373.199 1147.47 372.912 1147.14 372.502C1146.82 372.104 1146.57 371.564 1146.41 370.885C1146.24 370.205 1146.16 369.35 1146.16 368.318V356.98H1142.91V368.283C1142.91 369.701 1143.06 370.92 1143.36 371.939C1143.68 372.947 1144.13 373.779 1144.7 374.436C1145.28 375.092 1145.97 375.578 1146.78 375.895C1147.58 376.199 1148.49 376.352 1149.48 376.352C1150.72 376.352 1151.82 376.094 1152.77 375.578C1153.72 375.051 1154.51 374.318 1155.14 373.381L1155.34 376ZM1164.57 376H1167.83V362.359C1168.05 361.949 1168.31 361.574 1168.6 361.234C1168.9 360.895 1169.23 360.596 1169.58 360.338C1170.02 360.045 1170.49 359.816 1171.01 359.652C1171.52 359.477 1172.08 359.389 1172.68 359.389C1173.37 359.389 1173.98 359.471 1174.51 359.635C1175.04 359.799 1175.5 360.062 1175.88 360.426C1176.24 360.789 1176.51 361.264 1176.7 361.85C1176.89 362.436 1176.98 363.15 1176.98 363.994V376H1180.24V363.924C1180.24 362.658 1180.08 361.568 1179.76 360.654C1179.46 359.729 1179.02 358.967 1178.44 358.369C1177.87 357.771 1177.17 357.332 1176.35 357.051C1175.54 356.77 1174.64 356.629 1173.64 356.629C1172.91 356.641 1172.2 356.752 1171.53 356.963C1170.88 357.162 1170.27 357.449 1169.71 357.824C1169.33 358.07 1168.97 358.363 1168.63 358.703C1168.31 359.031 1168 359.395 1167.72 359.793L1167.49 356.98H1164.57V376ZM1185.73 366.332V366.701C1185.73 368.061 1185.91 369.332 1186.27 370.516C1186.64 371.688 1187.15 372.707 1187.8 373.574C1188.46 374.441 1189.25 375.121 1190.18 375.613C1191.11 376.105 1192.16 376.352 1193.31 376.352C1194.48 376.352 1195.5 376.152 1196.38 375.754C1197.26 375.355 1198.02 374.77 1198.65 373.996L1198.79 376H1201.78V349H1198.53V358.861C1197.91 358.135 1197.17 357.584 1196.31 357.209C1195.47 356.822 1194.48 356.629 1193.34 356.629C1192.18 356.629 1191.13 356.869 1190.19 357.35C1189.26 357.83 1188.46 358.498 1187.8 359.354C1187.14 360.209 1186.62 361.234 1186.26 362.43C1185.91 363.613 1185.73 364.914 1185.73 366.332ZM1188.98 366.701V366.332C1188.98 365.406 1189.08 364.527 1189.28 363.695C1189.48 362.852 1189.79 362.107 1190.21 361.463C1190.62 360.83 1191.15 360.326 1191.79 359.951C1192.45 359.576 1193.24 359.389 1194.15 359.389C1195.22 359.389 1196.11 359.641 1196.82 360.145C1197.54 360.637 1198.1 361.27 1198.53 362.043V370.867C1198.1 371.699 1197.54 372.361 1196.82 372.854C1196.11 373.346 1195.2 373.592 1194.11 373.592C1193.21 373.592 1192.44 373.41 1191.79 373.047C1191.15 372.672 1190.62 372.168 1190.21 371.535C1189.79 370.902 1189.48 370.17 1189.28 369.338C1189.08 368.506 1188.98 367.627 1188.98 366.701ZM1208.63 356.98V359.811H1215.09V373.188H1208.63V376H1224.55V373.188H1218.35V356.98H1208.63ZM1214.67 351.988C1214.67 352.516 1214.83 352.955 1215.15 353.307C1215.47 353.658 1215.97 353.834 1216.62 353.834C1217.27 353.834 1217.75 353.658 1218.08 353.307C1218.41 352.955 1218.57 352.516 1218.57 351.988C1218.57 351.695 1218.53 351.426 1218.43 351.18C1218.34 350.934 1218.2 350.729 1218.01 350.564C1217.86 350.412 1217.67 350.295 1217.43 350.213C1217.2 350.119 1216.93 350.072 1216.62 350.072C1216.32 350.072 1216.04 350.119 1215.8 350.213C1215.56 350.295 1215.37 350.412 1215.22 350.564C1215.03 350.74 1214.89 350.951 1214.8 351.197C1214.71 351.443 1214.67 351.707 1214.67 351.988ZM1229.89 376H1233.14V362.359C1233.36 361.949 1233.62 361.574 1233.91 361.234C1234.22 360.895 1234.54 360.596 1234.9 360.338C1235.33 360.045 1235.8 359.816 1236.32 359.652C1236.84 359.477 1237.39 359.389 1237.99 359.389C1238.68 359.389 1239.29 359.471 1239.82 359.635C1240.36 359.799 1240.81 360.062 1241.19 360.426C1241.55 360.789 1241.83 361.264 1242.02 361.85C1242.2 362.436 1242.3 363.15 1242.3 363.994V376H1245.55V363.924C1245.55 362.658 1245.39 361.568 1245.07 360.654C1244.77 359.729 1244.33 358.967 1243.76 358.369C1243.18 357.771 1242.48 357.332 1241.66 357.051C1240.86 356.77 1239.95 356.629 1238.96 356.629C1238.22 356.641 1237.52 356.752 1236.85 356.963C1236.19 357.162 1235.58 357.449 1235.02 357.824C1234.64 358.07 1234.29 358.363 1233.95 358.703C1233.62 359.031 1233.31 359.395 1233.03 359.793L1232.8 356.98H1229.89V376Z" fill="white"/>
<path d="M963.191 149.957C959.165 136.145 948.267 126.245 935.455 126.245C919.205 126.245 906 142.191 906 161.813C906 181.436 919.205 197.382 935.455 197.382C948.267 197.382 959.165 187.482 963.191 173.67H984.545V197.382H1004.18V173.67H1014V149.957H963.191ZM935.455 173.67C930.055 173.67 925.636 168.334 925.636 161.813C925.636 155.293 930.055 149.957 935.455 149.957C940.855 149.957 945.273 155.293 945.273 161.813C945.273 168.334 940.855 173.67 935.455 173.67Z" fill="white"/>
</svg>
