<svg width="1920" height="559" viewBox="0 0 1920 559" fill="none" xmlns="http://www.w3.org/2000/svg">
<path d="M0 206.614H1920L978.5 559L0 206.614Z" fill="#A5D6A7"/>
<rect y="-43" width="1920" height="250.614" fill="#A5D6A7"/>
<path d="M963.191 149.957C959.165 136.145 948.267 126.245 935.455 126.245C919.205 126.245 906 142.191 906 161.813C906 181.436 919.205 197.382 935.455 197.382C948.267 197.382 959.165 187.482 963.191 173.67H984.545V197.382H1004.18V173.67H1014V149.957H963.191ZM935.455 173.67C930.055 173.67 925.636 168.334 925.636 161.813C925.636 155.293 930.055 149.957 935.455 149.957C940.855 149.957 945.273 155.293 945.273 161.813C945.273 168.334 940.855 173.67 935.455 173.67Z" fill="white"/>
</svg>
