<svg width="1916" height="353" viewBox="0 0 1916 353" fill="none" xmlns="http://www.w3.org/2000/svg">
<path d="M-4 352.386H1916L974.5 -9.15527e-05L-4 352.386Z" fill="#A5D6A7"/>
<path d="M769.828 187.625H783.281C786.344 187.594 789.234 187.125 791.953 186.219C794.703 185.312 797.109 184 799.172 182.281C801.234 180.562 802.859 178.453 804.047 175.953C805.266 173.422 805.875 170.516 805.875 167.234C805.875 163.953 805.266 161.047 804.047 158.516C802.859 155.984 801.234 153.859 799.172 152.141C797.109 150.422 794.703 149.109 791.953 148.203C789.234 147.297 786.344 146.812 783.281 146.75H761.156V215H769.828V187.625ZM769.828 180.5V153.875H783.281C785.281 153.906 787.125 154.234 788.812 154.859C790.531 155.484 792.016 156.375 793.266 157.531C794.484 158.688 795.438 160.094 796.125 161.75C796.844 163.406 797.203 165.266 797.203 167.328C797.203 169.391 796.844 171.234 796.125 172.859C795.438 174.453 794.469 175.812 793.219 176.938C791.969 178.062 790.5 178.938 788.812 179.562C787.125 180.156 785.281 180.469 783.281 180.5H769.828ZM851.25 163.344C847.562 163.344 844.266 164.156 841.359 165.781C838.484 167.375 836.016 169.562 833.953 172.344L833.906 171.078L833.531 164.281H825.281V215H834V182.469C834.562 180.906 835.266 179.5 836.109 178.25C836.984 176.969 838 175.891 839.156 175.016C840.438 174.016 841.938 173.266 843.656 172.766C845.375 172.234 847.297 171.969 849.422 171.969C851.078 171.969 852.656 172.062 854.156 172.25C855.688 172.406 857.297 172.672 858.984 173.047L860.156 164.562C859.281 164.188 857.969 163.891 856.219 163.672C854.5 163.453 852.844 163.344 851.25 163.344ZM873.234 189.172V190.203C873.234 193.859 873.766 197.25 874.828 200.375C875.891 203.5 877.422 206.219 879.422 208.531C881.391 210.844 883.797 212.656 886.641 213.969C889.516 215.281 892.75 215.938 896.344 215.938C899.906 215.938 903.109 215.281 905.953 213.969C908.797 212.656 911.219 210.844 913.219 208.531C915.188 206.219 916.703 203.5 917.766 200.375C918.828 197.25 919.359 193.859 919.359 190.203V189.172C919.359 185.516 918.828 182.125 917.766 179C916.703 175.844 915.188 173.109 913.219 170.797C911.219 168.484 908.781 166.672 905.906 165.359C903.062 164.016 899.844 163.344 896.25 163.344C892.688 163.344 889.484 164.016 886.641 165.359C883.797 166.672 881.391 168.484 879.422 170.797C877.422 173.109 875.891 175.844 874.828 179C873.766 182.125 873.234 185.516 873.234 189.172ZM881.906 190.203V189.172C881.906 186.703 882.203 184.344 882.797 182.094C883.391 179.812 884.297 177.812 885.516 176.094C886.703 174.375 888.188 173.016 889.969 172.016C891.75 170.984 893.844 170.469 896.25 170.469C898.656 170.469 900.75 170.984 902.531 172.016C904.344 173.016 905.859 174.375 907.078 176.094C908.266 177.812 909.156 179.812 909.75 182.094C910.375 184.344 910.688 186.703 910.688 189.172V190.203C910.688 192.703 910.391 195.094 909.797 197.375C909.203 199.625 908.312 201.609 907.125 203.328C905.906 205.047 904.391 206.406 902.578 207.406C900.797 208.406 898.719 208.906 896.344 208.906C893.938 208.906 891.828 208.406 890.016 207.406C888.203 206.406 886.703 205.047 885.516 203.328C884.297 201.609 883.391 199.625 882.797 197.375C882.203 195.094 881.906 192.703 881.906 190.203ZM954.938 208.906C952.219 208.906 949.938 208.375 948.094 207.312C946.281 206.219 944.828 204.797 943.734 203.047C942.609 201.328 941.797 199.391 941.297 197.234C940.828 195.047 940.594 192.844 940.594 190.625V188.656C940.594 186.469 940.828 184.297 941.297 182.141C941.797 179.984 942.609 178.031 943.734 176.281C944.859 174.562 946.328 173.172 948.141 172.109C949.984 171.016 952.25 170.469 954.938 170.469C956.688 170.469 958.312 170.766 959.812 171.359C961.344 171.953 962.656 172.766 963.75 173.797C964.844 174.828 965.703 176.031 966.328 177.406C966.984 178.75 967.328 180.188 967.359 181.719H975.562C975.562 179.156 975.047 176.75 974.016 174.5C972.984 172.25 971.562 170.297 969.75 168.641C967.906 167.016 965.719 165.734 963.188 164.797C960.688 163.828 957.938 163.344 954.938 163.344C951.094 163.344 947.734 164.031 944.859 165.406C941.984 166.781 939.594 168.625 937.688 170.938C935.75 173.281 934.297 175.984 933.328 179.047C932.359 182.109 931.875 185.312 931.875 188.656V190.625C931.875 194 932.359 197.219 933.328 200.281C934.297 203.312 935.75 205.984 937.688 208.297C939.594 210.641 941.984 212.5 944.859 213.875C947.734 215.25 951.094 215.938 954.938 215.938C957.625 215.938 960.203 215.484 962.672 214.578C965.141 213.641 967.328 212.391 969.234 210.828C971.141 209.297 972.656 207.516 973.781 205.484C974.938 203.422 975.531 201.266 975.562 199.016H967.359C967.328 200.422 966.953 201.734 966.234 202.953C965.547 204.141 964.625 205.172 963.469 206.047C962.312 206.953 960.984 207.656 959.484 208.156C958.016 208.656 956.5 208.906 954.938 208.906ZM1013.39 215.938C1018.33 215.938 1022.47 214.953 1025.81 212.984C1029.19 210.984 1031.72 208.703 1033.41 206.141L1028.11 202.016C1026.52 204.078 1024.52 205.734 1022.11 206.984C1019.7 208.234 1016.95 208.859 1013.86 208.859C1011.52 208.859 1009.38 208.422 1007.44 207.547C1005.5 206.672 1003.84 205.469 1002.47 203.938C1001.12 202.5 1000.06 200.844 999.281 198.969C998.531 197.094 998.047 194.922 997.828 192.453V192.125H1034.06V188.234C1034.06 184.703 1033.61 181.422 1032.7 178.391C1031.83 175.359 1030.48 172.719 1028.67 170.469C1026.86 168.25 1024.58 166.516 1021.83 165.266C1019.11 163.984 1015.92 163.344 1012.27 163.344C1009.36 163.344 1006.52 163.938 1003.73 165.125C1000.98 166.312 998.531 168.016 996.375 170.234C994.188 172.484 992.438 175.234 991.125 178.484C989.812 181.703 989.156 185.359 989.156 189.453V191.422C989.156 194.953 989.75 198.219 990.938 201.219C992.125 204.219 993.781 206.812 995.906 209C998.031 211.188 1000.58 212.891 1003.55 214.109C1006.55 215.328 1009.83 215.938 1013.39 215.938ZM1012.27 170.469C1014.48 170.469 1016.39 170.875 1017.98 171.688C1019.61 172.5 1020.95 173.562 1022.02 174.875C1023.08 176.188 1023.91 177.75 1024.5 179.562C1025.09 181.344 1025.39 183.016 1025.39 184.578V185H998.109C998.453 182.656 999.047 180.594 999.891 178.812C1000.77 177 1001.83 175.469 1003.08 174.219C1004.33 173 1005.73 172.078 1007.3 171.453C1008.86 170.797 1010.52 170.469 1012.27 170.469ZM1082.34 201.547C1082.34 202.359 1082.19 203.125 1081.88 203.844C1081.56 204.562 1081.11 205.219 1080.52 205.812C1079.55 206.781 1078.2 207.547 1076.48 208.109C1074.77 208.641 1072.75 208.906 1070.44 208.906C1068.97 208.906 1067.48 208.75 1065.98 208.438C1064.48 208.125 1063.12 207.594 1061.91 206.844C1060.66 206.094 1059.61 205.109 1058.77 203.891C1057.95 202.672 1057.48 201.172 1057.36 199.391H1048.69C1048.69 201.547 1049.17 203.625 1050.14 205.625C1051.14 207.625 1052.58 209.375 1054.45 210.875C1056.3 212.406 1058.56 213.641 1061.25 214.578C1063.94 215.484 1067 215.938 1070.44 215.938C1073.44 215.938 1076.2 215.578 1078.73 214.859C1081.27 214.141 1083.44 213.125 1085.25 211.812C1087.06 210.5 1088.47 208.922 1089.47 207.078C1090.5 205.234 1091.02 203.188 1091.02 200.938C1091.02 198.844 1090.56 197 1089.66 195.406C1088.78 193.812 1087.5 192.406 1085.81 191.188C1084.12 190 1082.05 188.984 1079.58 188.141C1077.11 187.266 1074.31 186.5 1071.19 185.844C1068.81 185.375 1066.84 184.891 1065.28 184.391C1063.75 183.891 1062.53 183.328 1061.62 182.703C1060.69 182.078 1060.03 181.375 1059.66 180.594C1059.28 179.812 1059.09 178.922 1059.09 177.922C1059.09 176.953 1059.33 176.016 1059.8 175.109C1060.27 174.203 1060.97 173.406 1061.91 172.719C1062.81 172.031 1063.95 171.484 1065.33 171.078C1066.73 170.672 1068.36 170.469 1070.2 170.469C1071.98 170.469 1073.58 170.719 1074.98 171.219C1076.42 171.719 1077.64 172.375 1078.64 173.188C1079.64 174 1080.42 174.938 1080.98 176C1081.55 177.031 1081.83 178.094 1081.83 179.188H1090.5C1090.5 176.969 1090.02 174.906 1089.05 173C1088.11 171.062 1086.77 169.375 1085.02 167.938C1083.27 166.5 1081.14 165.375 1078.64 164.562C1076.14 163.75 1073.33 163.344 1070.2 163.344C1067.3 163.344 1064.62 163.734 1062.19 164.516C1059.78 165.297 1057.7 166.359 1055.95 167.703C1054.2 169.047 1052.84 170.625 1051.88 172.438C1050.91 174.219 1050.42 176.141 1050.42 178.203C1050.42 180.297 1050.89 182.141 1051.83 183.734C1052.77 185.297 1054.09 186.656 1055.81 187.812C1057.5 189 1059.53 190.016 1061.91 190.859C1064.31 191.703 1066.97 192.422 1069.88 193.016C1072.25 193.484 1074.23 194.016 1075.83 194.609C1077.42 195.172 1078.7 195.797 1079.67 196.484C1080.64 197.172 1081.33 197.938 1081.73 198.781C1082.14 199.594 1082.34 200.516 1082.34 201.547ZM1140 201.547C1140 202.359 1139.84 203.125 1139.53 203.844C1139.22 204.562 1138.77 205.219 1138.17 205.812C1137.2 206.781 1135.86 207.547 1134.14 208.109C1132.42 208.641 1130.41 208.906 1128.09 208.906C1126.62 208.906 1125.14 208.75 1123.64 208.438C1122.14 208.125 1120.78 207.594 1119.56 206.844C1118.31 206.094 1117.27 205.109 1116.42 203.891C1115.61 202.672 1115.14 201.172 1115.02 199.391H1106.34C1106.34 201.547 1106.83 203.625 1107.8 205.625C1108.8 207.625 1110.23 209.375 1112.11 210.875C1113.95 212.406 1116.22 213.641 1118.91 214.578C1121.59 215.484 1124.66 215.938 1128.09 215.938C1131.09 215.938 1133.86 215.578 1136.39 214.859C1138.92 214.141 1141.09 213.125 1142.91 211.812C1144.72 210.5 1146.12 208.922 1147.12 207.078C1148.16 205.234 1148.67 203.188 1148.67 200.938C1148.67 198.844 1148.22 197 1147.31 195.406C1146.44 193.812 1145.16 192.406 1143.47 191.188C1141.78 190 1139.7 188.984 1137.23 188.141C1134.77 187.266 1131.97 186.5 1128.84 185.844C1126.47 185.375 1124.5 184.891 1122.94 184.391C1121.41 183.891 1120.19 183.328 1119.28 182.703C1118.34 182.078 1117.69 181.375 1117.31 180.594C1116.94 179.812 1116.75 178.922 1116.75 177.922C1116.75 176.953 1116.98 176.016 1117.45 175.109C1117.92 174.203 1118.62 173.406 1119.56 172.719C1120.47 172.031 1121.61 171.484 1122.98 171.078C1124.39 170.672 1126.02 170.469 1127.86 170.469C1129.64 170.469 1131.23 170.719 1132.64 171.219C1134.08 171.719 1135.3 172.375 1136.3 173.188C1137.3 174 1138.08 174.938 1138.64 176C1139.2 177.031 1139.48 178.094 1139.48 179.188H1148.16C1148.16 176.969 1147.67 174.906 1146.7 173C1145.77 171.062 1144.42 169.375 1142.67 167.938C1140.92 166.5 1138.8 165.375 1136.3 164.562C1133.8 163.75 1130.98 163.344 1127.86 163.344C1124.95 163.344 1122.28 163.734 1119.84 164.516C1117.44 165.297 1115.36 166.359 1113.61 167.703C1111.86 169.047 1110.5 170.625 1109.53 172.438C1108.56 174.219 1108.08 176.141 1108.08 178.203C1108.08 180.297 1108.55 182.141 1109.48 183.734C1110.42 185.297 1111.75 186.656 1113.47 187.812C1115.16 189 1117.19 190.016 1119.56 190.859C1121.97 191.703 1124.62 192.422 1127.53 193.016C1129.91 193.484 1131.89 194.016 1133.48 194.609C1135.08 195.172 1136.36 195.797 1137.33 196.484C1138.3 197.172 1138.98 197.938 1139.39 198.781C1139.8 199.594 1140 200.516 1140 201.547Z" fill="white"/>
</svg>
