<svg width="900" height="1189" viewBox="0 0 900 1189" fill="none" xmlns="http://www.w3.org/2000/svg">
<path d="M496.055 251H508.5C510.375 251 512.062 250.789 513.562 250.367C515.062 249.945 516.336 249.312 517.383 248.469C518.43 247.625 519.234 246.578 519.797 245.328C520.359 244.078 520.641 242.633 520.641 240.992C520.641 240.133 520.523 239.305 520.289 238.508C520.07 237.695 519.727 236.945 519.258 236.258C518.805 235.617 518.242 235.055 517.57 234.57C516.914 234.086 516.023 233.688 514.898 233.375V233.352C515.477 233.133 516 232.867 516.469 232.555C516.953 232.242 517.383 231.898 517.758 231.523C518.445 230.836 518.961 230.039 519.305 229.133C519.664 228.211 519.852 227.234 519.867 226.203C519.867 224.609 519.57 223.227 518.977 222.055C518.398 220.883 517.57 219.914 516.492 219.148C515.414 218.383 514.109 217.812 512.578 217.438C511.062 217.062 509.375 216.875 507.516 216.875H496.055V251ZM502.664 235.953H508.805C509.727 235.969 510.523 236.094 511.195 236.328C511.867 236.562 512.414 236.898 512.836 237.336C513.258 237.758 513.562 238.273 513.75 238.883C513.953 239.492 514.055 240.18 514.055 240.945C514.055 241.68 513.922 242.344 513.656 242.938C513.406 243.531 513.031 244.039 512.531 244.461C512.078 244.836 511.508 245.133 510.82 245.352C510.148 245.57 509.383 245.68 508.523 245.68H502.664V235.953ZM502.664 231.195V222.242H507.539C508.602 222.258 509.523 222.375 510.305 222.594C511.102 222.812 511.734 223.164 512.203 223.648C512.562 223.992 512.828 224.422 513 224.938C513.188 225.453 513.281 226.055 513.281 226.742C513.281 227.398 513.172 227.984 512.953 228.5C512.75 229.016 512.453 229.453 512.062 229.812C511.594 230.266 510.977 230.609 510.211 230.844C509.445 231.062 508.562 231.18 507.562 231.195H502.664ZM543.375 225.172C541.672 225.172 540.102 225.586 538.664 226.414C537.227 227.227 535.992 228.352 534.961 229.789L534.914 229.227L534.656 225.641H528.586V251H535.102V235.766C535.398 235.047 535.773 234.422 536.227 233.891C536.68 233.359 537.227 232.922 537.867 232.578C538.398 232.281 539 232.062 539.672 231.922C540.359 231.766 541.125 231.688 541.969 231.688C542.781 231.688 543.633 231.742 544.523 231.852C545.43 231.945 546.312 232.094 547.172 232.297L548.133 225.805C547.617 225.648 546.938 225.508 546.094 225.383C545.266 225.242 544.359 225.172 543.375 225.172ZM569.836 251H576.445V250.602C576.117 249.961 575.867 249.195 575.695 248.305C575.523 247.414 575.438 246.289 575.438 244.93V234.055C575.438 232.586 575.164 231.297 574.617 230.188C574.07 229.062 573.312 228.133 572.344 227.398C571.375 226.664 570.227 226.109 568.898 225.734C567.586 225.359 566.164 225.172 564.633 225.172C562.93 225.172 561.414 225.391 560.086 225.828C558.773 226.25 557.664 226.828 556.758 227.562C555.836 228.297 555.133 229.148 554.648 230.117C554.18 231.086 553.945 232.109 553.945 233.188H560.461C560.461 232.734 560.523 232.32 560.648 231.945C560.789 231.57 561 231.25 561.281 230.984C561.594 230.688 562 230.461 562.5 230.305C563 230.133 563.594 230.047 564.281 230.047C565.062 230.047 565.742 230.148 566.32 230.352C566.914 230.539 567.406 230.812 567.797 231.172C568.172 231.516 568.453 231.93 568.641 232.414C568.828 232.883 568.922 233.414 568.922 234.008V235.508H565.289C563.414 235.508 561.75 235.68 560.297 236.023C558.859 236.352 557.648 236.836 556.664 237.477C555.57 238.18 554.75 239.078 554.203 240.172C553.656 241.25 553.383 242.492 553.383 243.898C553.383 244.992 553.602 246.008 554.039 246.945C554.477 247.867 555.086 248.664 555.867 249.336C556.648 250.008 557.578 250.531 558.656 250.906C559.75 251.281 560.945 251.469 562.242 251.469C563.039 251.469 563.781 251.391 564.469 251.234C565.156 251.094 565.789 250.891 566.367 250.625C566.93 250.375 567.445 250.078 567.914 249.734C568.383 249.391 568.797 249.023 569.156 248.633C569.234 249.086 569.328 249.516 569.438 249.922C569.547 250.328 569.68 250.688 569.836 251ZM563.625 246.43C563.016 246.43 562.477 246.359 562.008 246.219C561.555 246.062 561.172 245.859 560.859 245.609C560.547 245.344 560.305 245.023 560.133 244.648C559.977 244.258 559.898 243.836 559.898 243.383C559.898 242.805 560.008 242.273 560.227 241.789C560.445 241.289 560.781 240.859 561.234 240.5C561.688 240.156 562.273 239.891 562.992 239.703C563.711 239.5 564.578 239.398 565.594 239.398H568.922V243.758C568.734 244.086 568.477 244.414 568.148 244.742C567.82 245.055 567.43 245.336 566.977 245.586C566.523 245.836 566.016 246.039 565.453 246.195C564.891 246.352 564.281 246.43 563.625 246.43ZM584.555 225.641V230.961H591.773V245.703H584.555V251H605.227V245.703H598.359V225.641H584.555ZM591.305 219.148C591.305 219.648 591.391 220.117 591.562 220.555C591.75 220.977 592.008 221.336 592.336 221.633C592.664 221.945 593.055 222.188 593.508 222.359C593.977 222.531 594.492 222.617 595.055 222.617C596.211 222.617 597.125 222.297 597.797 221.656C598.484 221 598.828 220.164 598.828 219.148C598.828 218.133 598.484 217.305 597.797 216.664C597.125 216.008 596.211 215.68 595.055 215.68C594.492 215.68 593.977 215.766 593.508 215.938C593.055 216.109 592.664 216.344 592.336 216.641C592.008 216.953 591.75 217.328 591.562 217.766C591.391 218.188 591.305 218.648 591.305 219.148ZM611.648 251H618.188V232.977C618.406 232.633 618.648 232.32 618.914 232.039C619.18 231.758 619.477 231.516 619.805 231.312C620.211 231.031 620.672 230.82 621.188 230.68C621.719 230.539 622.297 230.469 622.922 230.469C623.672 230.469 624.344 230.547 624.938 230.703C625.531 230.844 626.039 231.102 626.461 231.477C626.883 231.852 627.203 232.367 627.422 233.023C627.656 233.664 627.773 234.484 627.773 235.484V251H634.289V235.391C634.289 233.547 634.07 231.984 633.633 230.703C633.211 229.406 632.617 228.344 631.852 227.516C631.07 226.703 630.148 226.109 629.086 225.734C628.023 225.359 626.852 225.172 625.57 225.172C624.57 225.172 623.625 225.312 622.734 225.594C621.844 225.875 621.023 226.281 620.273 226.812C619.836 227.125 619.422 227.477 619.031 227.867C618.641 228.258 618.281 228.688 617.953 229.156L617.555 225.641H611.648V251ZM642.352 251H648.07L650.766 237.453L651.281 234.875L651.82 237.453L654.609 251H660.328L664.875 225.641H658.898L657.023 240.594L656.695 243.055L656.25 240.641L653.508 225.641H649.148L646.406 240.711L645.961 243.125L645.656 240.711L643.758 225.641H637.805L642.352 251ZM687.516 225.172C685.812 225.172 684.242 225.586 682.805 226.414C681.367 227.227 680.133 228.352 679.102 229.789L679.055 229.227L678.797 225.641H672.727V251H679.242V235.766C679.539 235.047 679.914 234.422 680.367 233.891C680.82 233.359 681.367 232.922 682.008 232.578C682.539 232.281 683.141 232.062 683.812 231.922C684.5 231.766 685.266 231.688 686.109 231.688C686.922 231.688 687.773 231.742 688.664 231.852C689.57 231.945 690.453 232.094 691.312 232.297L692.273 225.805C691.758 225.648 691.078 225.508 690.234 225.383C689.406 225.242 688.5 225.172 687.516 225.172ZM699.867 225.641V230.961H707.086V245.703H699.867V251H720.539V245.703H713.672V225.641H699.867ZM706.617 219.148C706.617 219.648 706.703 220.117 706.875 220.555C707.062 220.977 707.32 221.336 707.648 221.633C707.977 221.945 708.367 222.188 708.82 222.359C709.289 222.531 709.805 222.617 710.367 222.617C711.523 222.617 712.438 222.297 713.109 221.656C713.797 221 714.141 220.164 714.141 219.148C714.141 218.133 713.797 217.305 713.109 216.664C712.438 216.008 711.523 215.68 710.367 215.68C709.805 215.68 709.289 215.766 708.82 215.938C708.367 216.109 707.977 216.344 707.648 216.641C707.32 216.953 707.062 217.328 706.875 217.766C706.703 218.188 706.617 218.648 706.617 219.148ZM738.914 219.43H732.398V225.641H726.609V230.445H732.398V241.977C732.398 243.648 732.617 245.086 733.055 246.289C733.492 247.477 734.117 248.453 734.93 249.219C735.727 250 736.688 250.578 737.812 250.953C738.953 251.312 740.219 251.492 741.609 251.492C742.328 251.492 743.055 251.453 743.789 251.375C744.539 251.312 745.258 251.219 745.945 251.094C746.633 250.969 747.281 250.812 747.891 250.625C748.5 250.422 749.031 250.188 749.484 249.922L748.852 245.445C748.555 245.523 748.195 245.602 747.773 245.68C747.367 245.758 746.93 245.828 746.461 245.891C745.977 245.969 745.469 246.031 744.938 246.078C744.422 246.125 743.914 246.148 743.414 246.148C742.727 246.148 742.102 246.07 741.539 245.914C740.992 245.758 740.523 245.492 740.133 245.117C739.742 244.758 739.438 244.273 739.219 243.664C739.016 243.039 738.914 242.266 738.914 241.344V230.445H748.383V225.641H738.914V219.43ZM757.523 225.641V230.961H764.742V245.703H757.523V251H778.195V245.703H771.328V225.641H757.523ZM764.273 219.148C764.273 219.648 764.359 220.117 764.531 220.555C764.719 220.977 764.977 221.336 765.305 221.633C765.633 221.945 766.023 222.188 766.477 222.359C766.945 222.531 767.461 222.617 768.023 222.617C769.18 222.617 770.094 222.297 770.766 221.656C771.453 221 771.797 220.164 771.797 219.148C771.797 218.133 771.453 217.305 770.766 216.664C770.094 216.008 769.18 215.68 768.023 215.68C767.461 215.68 766.945 215.766 766.477 215.938C766.023 216.109 765.633 216.344 765.305 216.641C764.977 216.953 764.719 217.328 764.531 217.766C764.359 218.188 764.273 218.648 764.273 219.148ZM784.617 251H791.156V232.977C791.375 232.633 791.617 232.32 791.883 232.039C792.148 231.758 792.445 231.516 792.773 231.312C793.18 231.031 793.641 230.82 794.156 230.68C794.688 230.539 795.266 230.469 795.891 230.469C796.641 230.469 797.312 230.547 797.906 230.703C798.5 230.844 799.008 231.102 799.43 231.477C799.852 231.852 800.172 232.367 800.391 233.023C800.625 233.664 800.742 234.484 800.742 235.484V251H807.258V235.391C807.258 233.547 807.039 231.984 806.602 230.703C806.18 229.406 805.586 228.344 804.82 227.516C804.039 226.703 803.117 226.109 802.055 225.734C800.992 225.359 799.82 225.172 798.539 225.172C797.539 225.172 796.594 225.312 795.703 225.594C794.812 225.875 793.992 226.281 793.242 226.812C792.805 227.125 792.391 227.477 792 227.867C791.609 228.258 791.25 228.688 790.922 229.156L790.523 225.641H784.617V251ZM812.789 238.133V238.625C812.789 240.469 813.023 242.18 813.492 243.758C813.977 245.32 814.664 246.672 815.555 247.812C816.445 248.953 817.516 249.852 818.766 250.508C820.031 251.148 821.453 251.469 823.031 251.469C823.828 251.469 824.57 251.383 825.258 251.211C825.961 251.039 826.602 250.797 827.18 250.484C827.57 250.266 827.938 250.016 828.281 249.734C828.625 249.453 828.953 249.141 829.266 248.797V250.25C829.266 251.109 829.141 251.883 828.891 252.57C828.656 253.258 828.312 253.836 827.859 254.305C827.359 254.82 826.734 255.211 825.984 255.477C825.25 255.742 824.406 255.875 823.453 255.875C822.859 255.875 822.281 255.812 821.719 255.688C821.172 255.578 820.641 255.406 820.125 255.172C819.594 254.938 819.086 254.633 818.602 254.258C818.117 253.898 817.664 253.477 817.242 252.992L814.312 256.953C814.859 257.656 815.516 258.258 816.281 258.758C817.047 259.273 817.859 259.695 818.719 260.023C819.578 260.352 820.445 260.594 821.32 260.75C822.195 260.906 823.016 260.984 823.781 260.984C825.562 260.984 827.188 260.742 828.656 260.258C830.141 259.789 831.414 259.094 832.477 258.172C833.523 257.25 834.336 256.117 834.914 254.773C835.508 253.43 835.805 251.898 835.805 250.18V225.641H829.875L829.617 228.055C829.305 227.664 828.961 227.312 828.586 227C828.211 226.672 827.805 226.391 827.367 226.156C826.789 225.828 826.141 225.586 825.422 225.43C824.719 225.258 823.938 225.172 823.078 225.172C821.484 225.172 820.055 225.484 818.789 226.109C817.523 226.734 816.445 227.617 815.555 228.758C814.664 229.898 813.977 231.266 813.492 232.859C813.023 234.453 812.789 236.211 812.789 238.133ZM819.328 238.625V238.133C819.328 237.07 819.438 236.078 819.656 235.156C819.875 234.219 820.211 233.398 820.664 232.695C821.102 232.008 821.656 231.469 822.328 231.078C823 230.672 823.797 230.469 824.719 230.469C825.219 230.469 825.68 230.516 826.102 230.609C826.539 230.703 826.938 230.836 827.297 231.008C827.719 231.211 828.094 231.477 828.422 231.805C828.75 232.133 829.031 232.516 829.266 232.953V243.688C829.047 244.078 828.789 244.43 828.492 244.742C828.195 245.055 827.852 245.32 827.461 245.539C827.086 245.742 826.664 245.898 826.195 246.008C825.742 246.117 825.234 246.172 824.672 246.172C823.75 246.172 822.953 245.977 822.281 245.586C821.609 245.195 821.055 244.656 820.617 243.969C820.18 243.297 819.852 242.508 819.633 241.602C819.43 240.68 819.328 239.688 819.328 238.625Z" fill="white"/>
<path d="M550.443 434.15L434.887 234L550.443 33.85H781.557L897.113 234L781.557 434.15H550.443Z" stroke="#3949AB" stroke-width="5"/>
<path d="M79.9688 536.875V542.195H86.4609V565.703H79.9688V571H99.7031V565.703H93.0469V542.195H99.7031V536.875H79.9688ZM107.578 571H114.117V552.977C114.336 552.633 114.578 552.32 114.844 552.039C115.109 551.758 115.406 551.516 115.734 551.312C116.141 551.031 116.602 550.82 117.117 550.68C117.648 550.539 118.227 550.469 118.852 550.469C119.602 550.469 120.273 550.547 120.867 550.703C121.461 550.844 121.969 551.102 122.391 551.477C122.812 551.852 123.133 552.367 123.352 553.023C123.586 553.664 123.703 554.484 123.703 555.484V571H130.219V555.391C130.219 553.547 130 551.984 129.562 550.703C129.141 549.406 128.547 548.344 127.781 547.516C127 546.703 126.078 546.109 125.016 545.734C123.953 545.359 122.781 545.172 121.5 545.172C120.5 545.172 119.555 545.312 118.664 545.594C117.773 545.875 116.953 546.281 116.203 546.812C115.766 547.125 115.352 547.477 114.961 547.867C114.57 548.258 114.211 548.688 113.883 549.156L113.484 545.641H107.578V571ZM148.359 539.43H141.844V545.641H136.055V550.445H141.844V561.977C141.844 563.648 142.062 565.086 142.5 566.289C142.938 567.477 143.562 568.453 144.375 569.219C145.172 570 146.133 570.578 147.258 570.953C148.398 571.312 149.664 571.492 151.055 571.492C151.773 571.492 152.5 571.453 153.234 571.375C153.984 571.312 154.703 571.219 155.391 571.094C156.078 570.969 156.727 570.812 157.336 570.625C157.945 570.422 158.477 570.188 158.93 569.922L158.297 565.445C158 565.523 157.641 565.602 157.219 565.68C156.812 565.758 156.375 565.828 155.906 565.891C155.422 565.969 154.914 566.031 154.383 566.078C153.867 566.125 153.359 566.148 152.859 566.148C152.172 566.148 151.547 566.07 150.984 565.914C150.438 565.758 149.969 565.492 149.578 565.117C149.188 564.758 148.883 564.273 148.664 563.664C148.461 563.039 148.359 562.266 148.359 561.344V550.445H157.828V545.641H148.359V539.43ZM177.539 571.469C179.992 571.469 182.117 570.992 183.914 570.039C185.711 569.086 187.023 568.023 187.852 566.852L184.594 563.336C183.844 564.305 182.867 565.031 181.664 565.516C180.461 566 179.219 566.242 177.938 566.242C177.031 566.242 176.195 566.102 175.43 565.82C174.664 565.539 173.984 565.141 173.391 564.625C172.812 564.125 172.352 563.57 172.008 562.961C171.664 562.336 171.383 561.516 171.164 560.5V560.43H188.367V557.664C188.367 555.805 188.109 554.109 187.594 552.578C187.078 551.031 186.328 549.711 185.344 548.617C184.344 547.523 183.125 546.68 181.688 546.086C180.266 545.477 178.641 545.172 176.812 545.172C175.047 545.172 173.414 545.492 171.914 546.133C170.414 546.773 169.117 547.672 168.023 548.828C166.93 549.984 166.078 551.367 165.469 552.977C164.859 554.57 164.555 556.336 164.555 558.273V559.211C164.555 560.914 164.859 562.516 165.469 564.016C166.094 565.5 166.977 566.789 168.117 567.883C169.258 568.992 170.625 569.867 172.219 570.508C173.812 571.148 175.586 571.469 177.539 571.469ZM176.766 550.445C177.594 550.445 178.32 550.578 178.945 550.844C179.586 551.094 180.125 551.438 180.562 551.875C181 552.328 181.344 552.859 181.594 553.469C181.844 554.078 181.969 554.727 181.969 555.414V555.93H171.281C171.438 555.102 171.672 554.352 171.984 553.68C172.297 553.008 172.688 552.43 173.156 551.945C173.609 551.461 174.141 551.094 174.75 550.844C175.359 550.578 176.031 550.445 176.766 550.445ZM212.273 545.172C210.57 545.172 209 545.586 207.562 546.414C206.125 547.227 204.891 548.352 203.859 549.789L203.812 549.227L203.555 545.641H197.484V571H204V555.766C204.297 555.047 204.672 554.422 205.125 553.891C205.578 553.359 206.125 552.922 206.766 552.578C207.297 552.281 207.898 552.062 208.57 551.922C209.258 551.766 210.023 551.688 210.867 551.688C211.68 551.688 212.531 551.742 213.422 551.852C214.328 551.945 215.211 552.094 216.07 552.297L217.031 545.805C216.516 545.648 215.836 545.508 214.992 545.383C214.164 545.242 213.258 545.172 212.273 545.172ZM238.734 571H245.344V570.602C245.016 569.961 244.766 569.195 244.594 568.305C244.422 567.414 244.336 566.289 244.336 564.93V554.055C244.336 552.586 244.062 551.297 243.516 550.188C242.969 549.062 242.211 548.133 241.242 547.398C240.273 546.664 239.125 546.109 237.797 545.734C236.484 545.359 235.062 545.172 233.531 545.172C231.828 545.172 230.312 545.391 228.984 545.828C227.672 546.25 226.562 546.828 225.656 547.562C224.734 548.297 224.031 549.148 223.547 550.117C223.078 551.086 222.844 552.109 222.844 553.188H229.359C229.359 552.734 229.422 552.32 229.547 551.945C229.688 551.57 229.898 551.25 230.18 550.984C230.492 550.688 230.898 550.461 231.398 550.305C231.898 550.133 232.492 550.047 233.18 550.047C233.961 550.047 234.641 550.148 235.219 550.352C235.812 550.539 236.305 550.812 236.695 551.172C237.07 551.516 237.352 551.93 237.539 552.414C237.727 552.883 237.82 553.414 237.82 554.008V555.508H234.188C232.312 555.508 230.648 555.68 229.195 556.023C227.758 556.352 226.547 556.836 225.562 557.477C224.469 558.18 223.648 559.078 223.102 560.172C222.555 561.25 222.281 562.492 222.281 563.898C222.281 564.992 222.5 566.008 222.938 566.945C223.375 567.867 223.984 568.664 224.766 569.336C225.547 570.008 226.477 570.531 227.555 570.906C228.648 571.281 229.844 571.469 231.141 571.469C231.938 571.469 232.68 571.391 233.367 571.234C234.055 571.094 234.688 570.891 235.266 570.625C235.828 570.375 236.344 570.078 236.812 569.734C237.281 569.391 237.695 569.023 238.055 568.633C238.133 569.086 238.227 569.516 238.336 569.922C238.445 570.328 238.578 570.688 238.734 571ZM232.523 566.43C231.914 566.43 231.375 566.359 230.906 566.219C230.453 566.062 230.07 565.859 229.758 565.609C229.445 565.344 229.203 565.023 229.031 564.648C228.875 564.258 228.797 563.836 228.797 563.383C228.797 562.805 228.906 562.273 229.125 561.789C229.344 561.289 229.68 560.859 230.133 560.5C230.586 560.156 231.172 559.891 231.891 559.703C232.609 559.5 233.477 559.398 234.492 559.398H237.82V563.758C237.633 564.086 237.375 564.414 237.047 564.742C236.719 565.055 236.328 565.336 235.875 565.586C235.422 565.836 234.914 566.039 234.352 566.195C233.789 566.352 233.18 566.43 232.523 566.43ZM262.945 566.266C261.898 566.266 261.031 566.055 260.344 565.633C259.672 565.211 259.141 564.648 258.75 563.945C258.344 563.258 258.062 562.461 257.906 561.555C257.75 560.633 257.672 559.68 257.672 558.695V557.992C257.672 557.023 257.75 556.086 257.906 555.18C258.078 554.273 258.367 553.469 258.773 552.766C259.164 552.062 259.695 551.5 260.367 551.078C261.039 550.656 261.891 550.445 262.922 550.445C263.625 550.445 264.273 550.57 264.867 550.82C265.461 551.055 265.969 551.375 266.391 551.781C266.812 552.188 267.133 552.672 267.352 553.234C267.57 553.797 267.664 554.391 267.633 555.016H273.773C273.805 553.516 273.555 552.164 273.023 550.961C272.492 549.742 271.75 548.703 270.797 547.844C269.828 547 268.68 546.344 267.352 545.875C266.023 545.406 264.578 545.172 263.016 545.172C261.062 545.172 259.344 545.508 257.859 546.18C256.391 546.852 255.156 547.766 254.156 548.922C253.156 550.078 252.406 551.438 251.906 553C251.406 554.547 251.156 556.211 251.156 557.992V558.695C251.156 560.477 251.406 562.148 251.906 563.711C252.422 565.258 253.18 566.609 254.18 567.766C255.164 568.922 256.398 569.836 257.883 570.508C259.367 571.164 261.094 571.492 263.062 571.492C264.516 571.492 265.891 571.266 267.188 570.812C268.5 570.344 269.648 569.703 270.633 568.891C271.617 568.078 272.391 567.109 272.953 565.984C273.531 564.859 273.805 563.641 273.773 562.328H267.633C267.664 562.922 267.555 563.461 267.305 563.945C267.07 564.43 266.734 564.844 266.297 565.188C265.859 565.531 265.352 565.797 264.773 565.984C264.195 566.172 263.586 566.266 262.945 566.266ZM292.5 539.43H285.984V545.641H280.195V550.445H285.984V561.977C285.984 563.648 286.203 565.086 286.641 566.289C287.078 567.477 287.703 568.453 288.516 569.219C289.312 570 290.273 570.578 291.398 570.953C292.539 571.312 293.805 571.492 295.195 571.492C295.914 571.492 296.641 571.453 297.375 571.375C298.125 571.312 298.844 571.219 299.531 571.094C300.219 570.969 300.867 570.812 301.477 570.625C302.086 570.422 302.617 570.188 303.07 569.922L302.438 565.445C302.141 565.523 301.781 565.602 301.359 565.68C300.953 565.758 300.516 565.828 300.047 565.891C299.562 565.969 299.055 566.031 298.523 566.078C298.008 566.125 297.5 566.148 297 566.148C296.312 566.148 295.688 566.07 295.125 565.914C294.578 565.758 294.109 565.492 293.719 565.117C293.328 564.758 293.023 564.273 292.805 563.664C292.602 563.039 292.5 562.266 292.5 561.344V550.445H301.969V545.641H292.5V539.43ZM311.109 545.641V550.961H318.328V565.703H311.109V571H331.781V565.703H324.914V545.641H311.109ZM317.859 539.148C317.859 539.648 317.945 540.117 318.117 540.555C318.305 540.977 318.562 541.336 318.891 541.633C319.219 541.945 319.609 542.188 320.062 542.359C320.531 542.531 321.047 542.617 321.609 542.617C322.766 542.617 323.68 542.297 324.352 541.656C325.039 541 325.383 540.164 325.383 539.148C325.383 538.133 325.039 537.305 324.352 536.664C323.68 536.008 322.766 535.68 321.609 535.68C321.047 535.68 320.531 535.766 320.062 535.938C319.609 536.109 319.219 536.344 318.891 536.641C318.562 536.953 318.305 537.328 318.117 537.766C317.945 538.188 317.859 538.648 317.859 539.148ZM346.266 571H352.383L362.016 545.641H355.219L349.664 563.523L349.312 565.305L348.961 563.523L343.383 545.641H336.586L346.266 571ZM379.336 571.469C381.789 571.469 383.914 570.992 385.711 570.039C387.508 569.086 388.82 568.023 389.648 566.852L386.391 563.336C385.641 564.305 384.664 565.031 383.461 565.516C382.258 566 381.016 566.242 379.734 566.242C378.828 566.242 377.992 566.102 377.227 565.82C376.461 565.539 375.781 565.141 375.188 564.625C374.609 564.125 374.148 563.57 373.805 562.961C373.461 562.336 373.18 561.516 372.961 560.5V560.43H390.164V557.664C390.164 555.805 389.906 554.109 389.391 552.578C388.875 551.031 388.125 549.711 387.141 548.617C386.141 547.523 384.922 546.68 383.484 546.086C382.062 545.477 380.438 545.172 378.609 545.172C376.844 545.172 375.211 545.492 373.711 546.133C372.211 546.773 370.914 547.672 369.82 548.828C368.727 549.984 367.875 551.367 367.266 552.977C366.656 554.57 366.352 556.336 366.352 558.273V559.211C366.352 560.914 366.656 562.516 367.266 564.016C367.891 565.5 368.773 566.789 369.914 567.883C371.055 568.992 372.422 569.867 374.016 570.508C375.609 571.148 377.383 571.469 379.336 571.469ZM378.562 550.445C379.391 550.445 380.117 550.578 380.742 550.844C381.383 551.094 381.922 551.438 382.359 551.875C382.797 552.328 383.141 552.859 383.391 553.469C383.641 554.078 383.766 554.727 383.766 555.414V555.93H373.078C373.234 555.102 373.469 554.352 373.781 553.68C374.094 553.008 374.484 552.43 374.953 551.945C375.406 551.461 375.938 551.094 376.547 550.844C377.156 550.578 377.828 550.445 378.562 550.445ZM107.672 643.75H114.188V631.797C114.484 632.125 114.797 632.422 115.125 632.688C115.453 632.953 115.797 633.195 116.156 633.414C116.766 633.758 117.422 634.016 118.125 634.188C118.844 634.375 119.625 634.469 120.469 634.469C122.062 634.469 123.477 634.141 124.711 633.484C125.945 632.828 126.984 631.922 127.828 630.766C128.656 629.625 129.281 628.266 129.703 626.688C130.141 625.109 130.359 623.398 130.359 621.555V621.062C130.359 619.141 130.141 617.391 129.703 615.812C129.281 614.219 128.648 612.852 127.805 611.711C126.961 610.586 125.922 609.719 124.688 609.109C123.453 608.484 122.031 608.172 120.422 608.172C119.641 608.172 118.906 608.258 118.219 608.43C117.547 608.586 116.93 608.812 116.367 609.109C115.898 609.359 115.461 609.656 115.055 610C114.648 610.328 114.273 610.703 113.93 611.125L113.695 608.641H107.672V643.75ZM123.844 621.062V621.555C123.844 622.602 123.75 623.594 123.562 624.531C123.375 625.453 123.078 626.266 122.672 626.969C122.266 627.672 121.734 628.227 121.078 628.633C120.438 629.039 119.656 629.242 118.734 629.242C118.156 629.242 117.633 629.188 117.164 629.078C116.695 628.953 116.281 628.781 115.922 628.562C115.547 628.328 115.211 628.047 114.914 627.719C114.633 627.391 114.391 627.023 114.188 626.617V616.023C114.406 615.586 114.664 615.203 114.961 614.875C115.273 614.547 115.633 614.273 116.039 614.055C116.398 613.867 116.797 613.727 117.234 613.633C117.672 613.523 118.156 613.469 118.688 613.469C119.609 613.469 120.391 613.664 121.031 614.055C121.688 614.445 122.227 614.977 122.648 615.648C123.055 616.336 123.352 617.148 123.539 618.086C123.742 619.008 123.844 620 123.844 621.062ZM154.617 608.172C152.914 608.172 151.344 608.586 149.906 609.414C148.469 610.227 147.234 611.352 146.203 612.789L146.156 612.227L145.898 608.641H139.828V634H146.344V618.766C146.641 618.047 147.016 617.422 147.469 616.891C147.922 616.359 148.469 615.922 149.109 615.578C149.641 615.281 150.242 615.062 150.914 614.922C151.602 614.766 152.367 614.688 153.211 614.688C154.023 614.688 154.875 614.742 155.766 614.852C156.672 614.945 157.555 615.094 158.414 615.297L159.375 608.805C158.859 608.648 158.18 608.508 157.336 608.383C156.508 608.242 155.602 608.172 154.617 608.172ZM164.344 621.086V621.578C164.344 623.438 164.609 625.156 165.141 626.734C165.672 628.297 166.453 629.656 167.484 630.812C168.5 631.969 169.75 632.875 171.234 633.531C172.734 634.172 174.438 634.492 176.344 634.492C178.234 634.492 179.922 634.172 181.406 633.531C182.891 632.875 184.141 631.969 185.156 630.812C186.172 629.656 186.945 628.297 187.477 626.734C188.008 625.156 188.273 623.438 188.273 621.578V621.086C188.273 619.242 188.008 617.539 187.477 615.977C186.945 614.398 186.172 613.031 185.156 611.875C184.125 610.719 182.867 609.812 181.383 609.156C179.898 608.5 178.203 608.172 176.297 608.172C174.391 608.172 172.695 608.5 171.211 609.156C169.742 609.812 168.5 610.719 167.484 611.875C166.453 613.031 165.672 614.398 165.141 615.977C164.609 617.539 164.344 619.242 164.344 621.086ZM170.859 621.578V621.086C170.859 620.055 170.961 619.078 171.164 618.156C171.367 617.234 171.688 616.422 172.125 615.719C172.562 615.016 173.125 614.461 173.812 614.055C174.5 613.648 175.328 613.445 176.297 613.445C177.281 613.445 178.117 613.648 178.805 614.055C179.492 614.461 180.055 615.016 180.492 615.719C180.914 616.422 181.227 617.234 181.43 618.156C181.633 619.078 181.734 620.055 181.734 621.086V621.578C181.734 622.641 181.633 623.641 181.43 624.578C181.227 625.5 180.914 626.305 180.492 626.992C180.055 627.695 179.492 628.25 178.805 628.656C178.117 629.062 177.297 629.266 176.344 629.266C175.359 629.266 174.516 629.062 173.812 628.656C173.125 628.25 172.562 627.695 172.125 626.992C171.688 626.305 171.367 625.5 171.164 624.578C170.961 623.641 170.859 622.641 170.859 621.578ZM206.016 602.43H199.5V608.641H193.711V613.445H199.5V624.977C199.5 626.648 199.719 628.086 200.156 629.289C200.594 630.477 201.219 631.453 202.031 632.219C202.828 633 203.789 633.578 204.914 633.953C206.055 634.312 207.32 634.492 208.711 634.492C209.43 634.492 210.156 634.453 210.891 634.375C211.641 634.312 212.359 634.219 213.047 634.094C213.734 633.969 214.383 633.812 214.992 633.625C215.602 633.422 216.133 633.188 216.586 632.922L215.953 628.445C215.656 628.523 215.297 628.602 214.875 628.68C214.469 628.758 214.031 628.828 213.562 628.891C213.078 628.969 212.57 629.031 212.039 629.078C211.523 629.125 211.016 629.148 210.516 629.148C209.828 629.148 209.203 629.07 208.641 628.914C208.094 628.758 207.625 628.492 207.234 628.117C206.844 627.758 206.539 627.273 206.32 626.664C206.117 626.039 206.016 625.266 206.016 624.344V613.445H215.484V608.641H206.016V602.43ZM222 621.086V621.578C222 623.438 222.266 625.156 222.797 626.734C223.328 628.297 224.109 629.656 225.141 630.812C226.156 631.969 227.406 632.875 228.891 633.531C230.391 634.172 232.094 634.492 234 634.492C235.891 634.492 237.578 634.172 239.062 633.531C240.547 632.875 241.797 631.969 242.812 630.812C243.828 629.656 244.602 628.297 245.133 626.734C245.664 625.156 245.93 623.438 245.93 621.578V621.086C245.93 619.242 245.664 617.539 245.133 615.977C244.602 614.398 243.828 613.031 242.812 611.875C241.781 610.719 240.523 609.812 239.039 609.156C237.555 608.5 235.859 608.172 233.953 608.172C232.047 608.172 230.352 608.5 228.867 609.156C227.398 609.812 226.156 610.719 225.141 611.875C224.109 613.031 223.328 614.398 222.797 615.977C222.266 617.539 222 619.242 222 621.086ZM228.516 621.578V621.086C228.516 620.055 228.617 619.078 228.82 618.156C229.023 617.234 229.344 616.422 229.781 615.719C230.219 615.016 230.781 614.461 231.469 614.055C232.156 613.648 232.984 613.445 233.953 613.445C234.938 613.445 235.773 613.648 236.461 614.055C237.148 614.461 237.711 615.016 238.148 615.719C238.57 616.422 238.883 617.234 239.086 618.156C239.289 619.078 239.391 620.055 239.391 621.086V621.578C239.391 622.641 239.289 623.641 239.086 624.578C238.883 625.5 238.57 626.305 238.148 626.992C237.711 627.695 237.148 628.25 236.461 628.656C235.773 629.062 234.953 629.266 234 629.266C233.016 629.266 232.172 629.062 231.469 628.656C230.781 628.25 230.219 627.695 229.781 626.992C229.344 626.305 229.023 625.5 228.82 624.578C228.617 623.641 228.516 622.641 228.516 621.578ZM263.672 602.43H257.156V608.641H251.367V613.445H257.156V624.977C257.156 626.648 257.375 628.086 257.812 629.289C258.25 630.477 258.875 631.453 259.688 632.219C260.484 633 261.445 633.578 262.57 633.953C263.711 634.312 264.977 634.492 266.367 634.492C267.086 634.492 267.812 634.453 268.547 634.375C269.297 634.312 270.016 634.219 270.703 634.094C271.391 633.969 272.039 633.812 272.648 633.625C273.258 633.422 273.789 633.188 274.242 632.922L273.609 628.445C273.312 628.523 272.953 628.602 272.531 628.68C272.125 628.758 271.688 628.828 271.219 628.891C270.734 628.969 270.227 629.031 269.695 629.078C269.18 629.125 268.672 629.148 268.172 629.148C267.484 629.148 266.859 629.07 266.297 628.914C265.75 628.758 265.281 628.492 264.891 628.117C264.5 627.758 264.195 627.273 263.977 626.664C263.773 626.039 263.672 625.266 263.672 624.344V613.445H273.141V608.641H263.672V602.43ZM284.555 644.242C285.867 644.242 287 644.023 287.953 643.586C288.922 643.148 289.742 642.609 290.414 641.969C291.086 641.328 291.641 640.633 292.078 639.883C292.531 639.133 292.898 638.438 293.18 637.797L306.047 608.641H298.852L293.062 623.547L292.102 626.078L291.398 623.5L285.586 608.641H278.461L289.195 632.922L287.695 635.711C287.508 636.055 287.344 636.32 287.203 636.508C287.078 636.695 286.875 636.977 286.594 637.352C286.312 637.727 285.969 638.07 285.562 638.383C285.172 638.711 284.719 638.875 284.203 638.875C283.953 638.875 283.617 638.859 283.195 638.828C282.789 638.812 282.453 638.805 282.188 638.805L281.391 643.773C281.953 643.93 282.461 644.047 282.914 644.125C283.383 644.203 283.93 644.242 284.555 644.242ZM309.469 643.75H315.984V631.797C316.281 632.125 316.594 632.422 316.922 632.688C317.25 632.953 317.594 633.195 317.953 633.414C318.562 633.758 319.219 634.016 319.922 634.188C320.641 634.375 321.422 634.469 322.266 634.469C323.859 634.469 325.273 634.141 326.508 633.484C327.742 632.828 328.781 631.922 329.625 630.766C330.453 629.625 331.078 628.266 331.5 626.688C331.938 625.109 332.156 623.398 332.156 621.555V621.062C332.156 619.141 331.938 617.391 331.5 615.812C331.078 614.219 330.445 612.852 329.602 611.711C328.758 610.586 327.719 609.719 326.484 609.109C325.25 608.484 323.828 608.172 322.219 608.172C321.438 608.172 320.703 608.258 320.016 608.43C319.344 608.586 318.727 608.812 318.164 609.109C317.695 609.359 317.258 609.656 316.852 610C316.445 610.328 316.07 610.703 315.727 611.125L315.492 608.641H309.469V643.75ZM325.641 621.062V621.555C325.641 622.602 325.547 623.594 325.359 624.531C325.172 625.453 324.875 626.266 324.469 626.969C324.062 627.672 323.531 628.227 322.875 628.633C322.234 629.039 321.453 629.242 320.531 629.242C319.953 629.242 319.43 629.188 318.961 629.078C318.492 628.953 318.078 628.781 317.719 628.562C317.344 628.328 317.008 628.047 316.711 627.719C316.43 627.391 316.188 627.023 315.984 626.617V616.023C316.203 615.586 316.461 615.203 316.758 614.875C317.07 614.547 317.43 614.273 317.836 614.055C318.195 613.867 318.594 613.727 319.031 613.633C319.469 613.523 319.953 613.469 320.484 613.469C321.406 613.469 322.188 613.664 322.828 614.055C323.484 614.445 324.023 614.977 324.445 615.648C324.852 616.336 325.148 617.148 325.336 618.086C325.539 619.008 325.641 620 325.641 621.062ZM350.508 634.469C352.961 634.469 355.086 633.992 356.883 633.039C358.68 632.086 359.992 631.023 360.82 629.852L357.562 626.336C356.812 627.305 355.836 628.031 354.633 628.516C353.43 629 352.188 629.242 350.906 629.242C350 629.242 349.164 629.102 348.398 628.82C347.633 628.539 346.953 628.141 346.359 627.625C345.781 627.125 345.32 626.57 344.977 625.961C344.633 625.336 344.352 624.516 344.133 623.5V623.43H361.336V620.664C361.336 618.805 361.078 617.109 360.562 615.578C360.047 614.031 359.297 612.711 358.312 611.617C357.312 610.523 356.094 609.68 354.656 609.086C353.234 608.477 351.609 608.172 349.781 608.172C348.016 608.172 346.383 608.492 344.883 609.133C343.383 609.773 342.086 610.672 340.992 611.828C339.898 612.984 339.047 614.367 338.438 615.977C337.828 617.57 337.523 619.336 337.523 621.273V622.211C337.523 623.914 337.828 625.516 338.438 627.016C339.062 628.5 339.945 629.789 341.086 630.883C342.227 631.992 343.594 632.867 345.188 633.508C346.781 634.148 348.555 634.469 350.508 634.469ZM349.734 613.445C350.562 613.445 351.289 613.578 351.914 613.844C352.555 614.094 353.094 614.438 353.531 614.875C353.969 615.328 354.312 615.859 354.562 616.469C354.812 617.078 354.938 617.727 354.938 618.414V618.93H344.25C344.406 618.102 344.641 617.352 344.953 616.68C345.266 616.008 345.656 615.43 346.125 614.945C346.578 614.461 347.109 614.094 347.719 613.844C348.328 613.578 349 613.445 349.734 613.445Z" fill="white"/>
<path d="M118.443 785.15L2.88675 585L118.443 384.85H349.557L465.113 585L349.557 785.15H118.443Z" stroke="#3949AB" stroke-width="5"/>
<path d="M545.93 924.047V918.844H531.914V910.242H548.227V904.875H525.305V939H548.297V933.68H531.914V924.047H545.93ZM562.055 939H568.172L577.805 913.641H571.008L565.453 931.523L565.102 933.305L564.75 931.523L559.172 913.641H552.375L562.055 939ZM598.664 939H605.273V938.602C604.945 937.961 604.695 937.195 604.523 936.305C604.352 935.414 604.266 934.289 604.266 932.93V922.055C604.266 920.586 603.992 919.297 603.445 918.188C602.898 917.062 602.141 916.133 601.172 915.398C600.203 914.664 599.055 914.109 597.727 913.734C596.414 913.359 594.992 913.172 593.461 913.172C591.758 913.172 590.242 913.391 588.914 913.828C587.602 914.25 586.492 914.828 585.586 915.562C584.664 916.297 583.961 917.148 583.477 918.117C583.008 919.086 582.773 920.109 582.773 921.188H589.289C589.289 920.734 589.352 920.32 589.477 919.945C589.617 919.57 589.828 919.25 590.109 918.984C590.422 918.688 590.828 918.461 591.328 918.305C591.828 918.133 592.422 918.047 593.109 918.047C593.891 918.047 594.57 918.148 595.148 918.352C595.742 918.539 596.234 918.812 596.625 919.172C597 919.516 597.281 919.93 597.469 920.414C597.656 920.883 597.75 921.414 597.75 922.008V923.508H594.117C592.242 923.508 590.578 923.68 589.125 924.023C587.688 924.352 586.477 924.836 585.492 925.477C584.398 926.18 583.578 927.078 583.031 928.172C582.484 929.25 582.211 930.492 582.211 931.898C582.211 932.992 582.43 934.008 582.867 934.945C583.305 935.867 583.914 936.664 584.695 937.336C585.477 938.008 586.406 938.531 587.484 938.906C588.578 939.281 589.773 939.469 591.07 939.469C591.867 939.469 592.609 939.391 593.297 939.234C593.984 939.094 594.617 938.891 595.195 938.625C595.758 938.375 596.273 938.078 596.742 937.734C597.211 937.391 597.625 937.023 597.984 936.633C598.062 937.086 598.156 937.516 598.266 937.922C598.375 938.328 598.508 938.688 598.664 939ZM592.453 934.43C591.844 934.43 591.305 934.359 590.836 934.219C590.383 934.062 590 933.859 589.688 933.609C589.375 933.344 589.133 933.023 588.961 932.648C588.805 932.258 588.727 931.836 588.727 931.383C588.727 930.805 588.836 930.273 589.055 929.789C589.273 929.289 589.609 928.859 590.062 928.5C590.516 928.156 591.102 927.891 591.82 927.703C592.539 927.5 593.406 927.398 594.422 927.398H597.75V931.758C597.562 932.086 597.305 932.414 596.977 932.742C596.648 933.055 596.258 933.336 595.805 933.586C595.352 933.836 594.844 934.039 594.281 934.195C593.719 934.352 593.109 934.43 592.453 934.43ZM613.008 903V908.32H620.602V933.703H613.008V939H634.453V933.703H627.188V903H613.008ZM657.023 939H662.93V913.641H656.391V931.43C656.188 931.836 655.945 932.203 655.664 932.531C655.383 932.859 655.062 933.141 654.703 933.375C654.281 933.641 653.789 933.844 653.227 933.984C652.68 934.125 652.062 934.195 651.375 934.195C650.609 934.195 649.961 934.102 649.43 933.914C648.898 933.727 648.469 933.414 648.141 932.977C647.812 932.555 647.57 931.992 647.414 931.289C647.273 930.586 647.203 929.719 647.203 928.688V913.641H640.688V928.641C640.688 930.562 640.898 932.211 641.32 933.586C641.758 934.945 642.367 936.062 643.148 936.938C643.93 937.828 644.867 938.477 645.961 938.883C647.055 939.289 648.258 939.492 649.57 939.492C651.008 939.492 652.328 939.133 653.531 938.414C654.75 937.695 655.789 936.703 656.648 935.438L657.023 939ZM685.148 939H691.758V938.602C691.43 937.961 691.18 937.195 691.008 936.305C690.836 935.414 690.75 934.289 690.75 932.93V922.055C690.75 920.586 690.477 919.297 689.93 918.188C689.383 917.062 688.625 916.133 687.656 915.398C686.688 914.664 685.539 914.109 684.211 913.734C682.898 913.359 681.477 913.172 679.945 913.172C678.242 913.172 676.727 913.391 675.398 913.828C674.086 914.25 672.977 914.828 672.07 915.562C671.148 916.297 670.445 917.148 669.961 918.117C669.492 919.086 669.258 920.109 669.258 921.188H675.773C675.773 920.734 675.836 920.32 675.961 919.945C676.102 919.57 676.312 919.25 676.594 918.984C676.906 918.688 677.312 918.461 677.812 918.305C678.312 918.133 678.906 918.047 679.594 918.047C680.375 918.047 681.055 918.148 681.633 918.352C682.227 918.539 682.719 918.812 683.109 919.172C683.484 919.516 683.766 919.93 683.953 920.414C684.141 920.883 684.234 921.414 684.234 922.008V923.508H680.602C678.727 923.508 677.062 923.68 675.609 924.023C674.172 924.352 672.961 924.836 671.977 925.477C670.883 926.18 670.062 927.078 669.516 928.172C668.969 929.25 668.695 930.492 668.695 931.898C668.695 932.992 668.914 934.008 669.352 934.945C669.789 935.867 670.398 936.664 671.18 937.336C671.961 938.008 672.891 938.531 673.969 938.906C675.062 939.281 676.258 939.469 677.555 939.469C678.352 939.469 679.094 939.391 679.781 939.234C680.469 939.094 681.102 938.891 681.68 938.625C682.242 938.375 682.758 938.078 683.227 937.734C683.695 937.391 684.109 937.023 684.469 936.633C684.547 937.086 684.641 937.516 684.75 937.922C684.859 938.328 684.992 938.688 685.148 939ZM678.938 934.43C678.328 934.43 677.789 934.359 677.32 934.219C676.867 934.062 676.484 933.859 676.172 933.609C675.859 933.344 675.617 933.023 675.445 932.648C675.289 932.258 675.211 931.836 675.211 931.383C675.211 930.805 675.32 930.273 675.539 929.789C675.758 929.289 676.094 928.859 676.547 928.5C677 928.156 677.586 927.891 678.305 927.703C679.023 927.5 679.891 927.398 680.906 927.398H684.234V931.758C684.047 932.086 683.789 932.414 683.461 932.742C683.133 933.055 682.742 933.336 682.289 933.586C681.836 933.836 681.328 934.039 680.766 934.195C680.203 934.352 679.594 934.43 678.938 934.43ZM710.086 907.43H703.57V913.641H697.781V918.445H703.57V929.977C703.57 931.648 703.789 933.086 704.227 934.289C704.664 935.477 705.289 936.453 706.102 937.219C706.898 938 707.859 938.578 708.984 938.953C710.125 939.312 711.391 939.492 712.781 939.492C713.5 939.492 714.227 939.453 714.961 939.375C715.711 939.312 716.43 939.219 717.117 939.094C717.805 938.969 718.453 938.812 719.062 938.625C719.672 938.422 720.203 938.188 720.656 937.922L720.023 933.445C719.727 933.523 719.367 933.602 718.945 933.68C718.539 933.758 718.102 933.828 717.633 933.891C717.148 933.969 716.641 934.031 716.109 934.078C715.594 934.125 715.086 934.148 714.586 934.148C713.898 934.148 713.273 934.07 712.711 933.914C712.164 933.758 711.695 933.492 711.305 933.117C710.914 932.758 710.609 932.273 710.391 931.664C710.188 931.039 710.086 930.266 710.086 929.344V918.445H719.555V913.641H710.086V907.43ZM728.695 913.641V918.961H735.914V933.703H728.695V939H749.367V933.703H742.5V913.641H728.695ZM735.445 907.148C735.445 907.648 735.531 908.117 735.703 908.555C735.891 908.977 736.148 909.336 736.477 909.633C736.805 909.945 737.195 910.188 737.648 910.359C738.117 910.531 738.633 910.617 739.195 910.617C740.352 910.617 741.266 910.297 741.938 909.656C742.625 909 742.969 908.164 742.969 907.148C742.969 906.133 742.625 905.305 741.938 904.664C741.266 904.008 740.352 903.68 739.195 903.68C738.633 903.68 738.117 903.766 737.648 903.938C737.195 904.109 736.805 904.344 736.477 904.641C736.148 904.953 735.891 905.328 735.703 905.766C735.531 906.188 735.445 906.648 735.445 907.148ZM754.898 926.086V926.578C754.898 928.438 755.164 930.156 755.695 931.734C756.227 933.297 757.008 934.656 758.039 935.812C759.055 936.969 760.305 937.875 761.789 938.531C763.289 939.172 764.992 939.492 766.898 939.492C768.789 939.492 770.477 939.172 771.961 938.531C773.445 937.875 774.695 936.969 775.711 935.812C776.727 934.656 777.5 933.297 778.031 931.734C778.562 930.156 778.828 928.438 778.828 926.578V926.086C778.828 924.242 778.562 922.539 778.031 920.977C777.5 919.398 776.727 918.031 775.711 916.875C774.68 915.719 773.422 914.812 771.938 914.156C770.453 913.5 768.758 913.172 766.852 913.172C764.945 913.172 763.25 913.5 761.766 914.156C760.297 914.812 759.055 915.719 758.039 916.875C757.008 918.031 756.227 919.398 755.695 920.977C755.164 922.539 754.898 924.242 754.898 926.086ZM761.414 926.578V926.086C761.414 925.055 761.516 924.078 761.719 923.156C761.922 922.234 762.242 921.422 762.68 920.719C763.117 920.016 763.68 919.461 764.367 919.055C765.055 918.648 765.883 918.445 766.852 918.445C767.836 918.445 768.672 918.648 769.359 919.055C770.047 919.461 770.609 920.016 771.047 920.719C771.469 921.422 771.781 922.234 771.984 923.156C772.188 924.078 772.289 925.055 772.289 926.086V926.578C772.289 927.641 772.188 928.641 771.984 929.578C771.781 930.5 771.469 931.305 771.047 931.992C770.609 932.695 770.047 933.25 769.359 933.656C768.672 934.062 767.852 934.266 766.898 934.266C765.914 934.266 765.07 934.062 764.367 933.656C763.68 933.25 763.117 932.695 762.68 931.992C762.242 931.305 761.922 930.5 761.719 929.578C761.516 928.641 761.414 927.641 761.414 926.578ZM784.617 939H791.156V920.977C791.375 920.633 791.617 920.32 791.883 920.039C792.148 919.758 792.445 919.516 792.773 919.312C793.18 919.031 793.641 918.82 794.156 918.68C794.688 918.539 795.266 918.469 795.891 918.469C796.641 918.469 797.312 918.547 797.906 918.703C798.5 918.844 799.008 919.102 799.43 919.477C799.852 919.852 800.172 920.367 800.391 921.023C800.625 921.664 800.742 922.484 800.742 923.484V939H807.258V923.391C807.258 921.547 807.039 919.984 806.602 918.703C806.18 917.406 805.586 916.344 804.82 915.516C804.039 914.703 803.117 914.109 802.055 913.734C800.992 913.359 799.82 913.172 798.539 913.172C797.539 913.172 796.594 913.312 795.703 913.594C794.812 913.875 793.992 914.281 793.242 914.812C792.805 915.125 792.391 915.477 792 915.867C791.609 916.258 791.25 916.688 790.922 917.156L790.523 913.641H784.617V939ZM541.312 976.641V981.961H548.531V996.703H541.312V1002H561.984V996.703H555.117V976.641H541.312ZM548.062 970.148C548.062 970.648 548.148 971.117 548.32 971.555C548.508 971.977 548.766 972.336 549.094 972.633C549.422 972.945 549.812 973.188 550.266 973.359C550.734 973.531 551.25 973.617 551.812 973.617C552.969 973.617 553.883 973.297 554.555 972.656C555.242 972 555.586 971.164 555.586 970.148C555.586 969.133 555.242 968.305 554.555 967.664C553.883 967.008 552.969 966.68 551.812 966.68C551.25 966.68 550.734 966.766 550.266 966.938C549.812 967.109 549.422 967.344 549.094 967.641C548.766 967.953 548.508 968.328 548.32 968.766C548.148 969.188 548.062 969.648 548.062 970.148ZM568.406 1002H574.945V983.977C575.164 983.633 575.406 983.32 575.672 983.039C575.938 982.758 576.234 982.516 576.562 982.312C576.969 982.031 577.43 981.82 577.945 981.68C578.477 981.539 579.055 981.469 579.68 981.469C580.43 981.469 581.102 981.547 581.695 981.703C582.289 981.844 582.797 982.102 583.219 982.477C583.641 982.852 583.961 983.367 584.18 984.023C584.414 984.664 584.531 985.484 584.531 986.484V1002H591.047V986.391C591.047 984.547 590.828 982.984 590.391 981.703C589.969 980.406 589.375 979.344 588.609 978.516C587.828 977.703 586.906 977.109 585.844 976.734C584.781 976.359 583.609 976.172 582.328 976.172C581.328 976.172 580.383 976.312 579.492 976.594C578.602 976.875 577.781 977.281 577.031 977.812C576.594 978.125 576.18 978.477 575.789 978.867C575.398 979.258 575.039 979.688 574.711 980.156L574.312 976.641H568.406V1002ZM609.188 970.43H602.672V976.641H596.883V981.445H602.672V992.977C602.672 994.648 602.891 996.086 603.328 997.289C603.766 998.477 604.391 999.453 605.203 1000.22C606 1001 606.961 1001.58 608.086 1001.95C609.227 1002.31 610.492 1002.49 611.883 1002.49C612.602 1002.49 613.328 1002.45 614.062 1002.38C614.812 1002.31 615.531 1002.22 616.219 1002.09C616.906 1001.97 617.555 1001.81 618.164 1001.62C618.773 1001.42 619.305 1001.19 619.758 1000.92L619.125 996.445C618.828 996.523 618.469 996.602 618.047 996.68C617.641 996.758 617.203 996.828 616.734 996.891C616.25 996.969 615.742 997.031 615.211 997.078C614.695 997.125 614.188 997.148 613.688 997.148C613 997.148 612.375 997.07 611.812 996.914C611.266 996.758 610.797 996.492 610.406 996.117C610.016 995.758 609.711 995.273 609.492 994.664C609.289 994.039 609.188 993.266 609.188 992.344V981.445H618.656V976.641H609.188V970.43ZM638.367 1002.47C640.82 1002.47 642.945 1001.99 644.742 1001.04C646.539 1000.09 647.852 999.023 648.68 997.852L645.422 994.336C644.672 995.305 643.695 996.031 642.492 996.516C641.289 997 640.047 997.242 638.766 997.242C637.859 997.242 637.023 997.102 636.258 996.82C635.492 996.539 634.812 996.141 634.219 995.625C633.641 995.125 633.18 994.57 632.836 993.961C632.492 993.336 632.211 992.516 631.992 991.5V991.43H649.195V988.664C649.195 986.805 648.938 985.109 648.422 983.578C647.906 982.031 647.156 980.711 646.172 979.617C645.172 978.523 643.953 977.68 642.516 977.086C641.094 976.477 639.469 976.172 637.641 976.172C635.875 976.172 634.242 976.492 632.742 977.133C631.242 977.773 629.945 978.672 628.852 979.828C627.758 980.984 626.906 982.367 626.297 983.977C625.688 985.57 625.383 987.336 625.383 989.273V990.211C625.383 991.914 625.688 993.516 626.297 995.016C626.922 996.5 627.805 997.789 628.945 998.883C630.086 999.992 631.453 1000.87 633.047 1001.51C634.641 1002.15 636.414 1002.47 638.367 1002.47ZM637.594 981.445C638.422 981.445 639.148 981.578 639.773 981.844C640.414 982.094 640.953 982.438 641.391 982.875C641.828 983.328 642.172 983.859 642.422 984.469C642.672 985.078 642.797 985.727 642.797 986.414V986.93H632.109C632.266 986.102 632.5 985.352 632.812 984.68C633.125 984.008 633.516 983.43 633.984 982.945C634.438 982.461 634.969 982.094 635.578 981.844C636.188 981.578 636.859 981.445 637.594 981.445ZM673.102 976.172C671.398 976.172 669.828 976.586 668.391 977.414C666.953 978.227 665.719 979.352 664.688 980.789L664.641 980.227L664.383 976.641H658.312V1002H664.828V986.766C665.125 986.047 665.5 985.422 665.953 984.891C666.406 984.359 666.953 983.922 667.594 983.578C668.125 983.281 668.727 983.062 669.398 982.922C670.086 982.766 670.852 982.688 671.695 982.688C672.508 982.688 673.359 982.742 674.25 982.852C675.156 982.945 676.039 983.094 676.898 983.297L677.859 976.805C677.344 976.648 676.664 976.508 675.82 976.383C674.992 976.242 674.086 976.172 673.102 976.172ZM691.781 1002H697.898L707.531 976.641H700.734L695.18 994.523L694.828 996.305L694.477 994.523L688.898 976.641H682.102L691.781 1002ZM714.281 976.641V981.961H721.5V996.703H714.281V1002H734.953V996.703H728.086V976.641H714.281ZM721.031 970.148C721.031 970.648 721.117 971.117 721.289 971.555C721.477 971.977 721.734 972.336 722.062 972.633C722.391 972.945 722.781 973.188 723.234 973.359C723.703 973.531 724.219 973.617 724.781 973.617C725.938 973.617 726.852 973.297 727.523 972.656C728.211 972 728.555 971.164 728.555 970.148C728.555 969.133 728.211 968.305 727.523 967.664C726.852 967.008 725.938 966.68 724.781 966.68C724.219 966.68 723.703 966.766 723.234 966.938C722.781 967.109 722.391 967.344 722.062 967.641C721.734 967.953 721.477 968.328 721.289 968.766C721.117 969.188 721.031 969.648 721.031 970.148ZM753.68 1002.47C756.133 1002.47 758.258 1001.99 760.055 1001.04C761.852 1000.09 763.164 999.023 763.992 997.852L760.734 994.336C759.984 995.305 759.008 996.031 757.805 996.516C756.602 997 755.359 997.242 754.078 997.242C753.172 997.242 752.336 997.102 751.57 996.82C750.805 996.539 750.125 996.141 749.531 995.625C748.953 995.125 748.492 994.57 748.148 993.961C747.805 993.336 747.523 992.516 747.305 991.5V991.43H764.508V988.664C764.508 986.805 764.25 985.109 763.734 983.578C763.219 982.031 762.469 980.711 761.484 979.617C760.484 978.523 759.266 977.68 757.828 977.086C756.406 976.477 754.781 976.172 752.953 976.172C751.188 976.172 749.555 976.492 748.055 977.133C746.555 977.773 745.258 978.672 744.164 979.828C743.07 980.984 742.219 982.367 741.609 983.977C741 985.57 740.695 987.336 740.695 989.273V990.211C740.695 991.914 741 993.516 741.609 995.016C742.234 996.5 743.117 997.789 744.258 998.883C745.398 999.992 746.766 1000.87 748.359 1001.51C749.953 1002.15 751.727 1002.47 753.68 1002.47ZM752.906 981.445C753.734 981.445 754.461 981.578 755.086 981.844C755.727 982.094 756.266 982.438 756.703 982.875C757.141 983.328 757.484 983.859 757.734 984.469C757.984 985.078 758.109 985.727 758.109 986.414V986.93H747.422C747.578 986.102 747.812 985.352 748.125 984.68C748.438 984.008 748.828 983.43 749.297 982.945C749.75 982.461 750.281 982.094 750.891 981.844C751.5 981.578 752.172 981.445 752.906 981.445ZM772.078 1002H777.797L780.492 988.453L781.008 985.875L781.547 988.453L784.336 1002H790.055L794.602 976.641H788.625L786.75 991.594L786.422 994.055L785.977 991.641L783.234 976.641H778.875L776.133 991.711L775.688 994.125L775.383 991.711L773.484 976.641H767.531L772.078 1002Z" fill="white"/>
<path d="M550.443 1155.15L434.887 955L550.443 754.85H781.557L897.113 955L781.557 1155.15H550.443Z" stroke="#3949AB" stroke-width="5"/>
</svg>
