<svg width="900" height="1245" viewBox="0 0 900 1245" fill="none" xmlns="http://www.w3.org/2000/svg">
<path d="M49.6406 254H62.0859C63.9609 254 65.6484 253.789 67.1484 253.367C68.6484 252.945 69.9219 252.312 70.9688 251.469C72.0156 250.625 72.8203 249.578 73.3828 248.328C73.9453 247.078 74.2266 245.633 74.2266 243.992C74.2266 243.133 74.1094 242.305 73.875 241.508C73.6562 240.695 73.3125 239.945 72.8438 239.258C72.3906 238.617 71.8281 238.055 71.1562 237.57C70.5 237.086 69.6094 236.688 68.4844 236.375V236.352C69.0625 236.133 69.5859 235.867 70.0547 235.555C70.5391 235.242 70.9688 234.898 71.3438 234.523C72.0312 233.836 72.5469 233.039 72.8906 232.133C73.25 231.211 73.4375 230.234 73.4531 229.203C73.4531 227.609 73.1562 226.227 72.5625 225.055C71.9844 223.883 71.1562 222.914 70.0781 222.148C69 221.383 67.6953 220.812 66.1641 220.438C64.6484 220.062 62.9609 219.875 61.1016 219.875H49.6406V254ZM56.25 238.953H62.3906C63.3125 238.969 64.1094 239.094 64.7812 239.328C65.4531 239.562 66 239.898 66.4219 240.336C66.8438 240.758 67.1484 241.273 67.3359 241.883C67.5391 242.492 67.6406 243.18 67.6406 243.945C67.6406 244.68 67.5078 245.344 67.2422 245.938C66.9922 246.531 66.6172 247.039 66.1172 247.461C65.6641 247.836 65.0938 248.133 64.4062 248.352C63.7344 248.57 62.9688 248.68 62.1094 248.68H56.25V238.953ZM56.25 234.195V225.242H61.125C62.1875 225.258 63.1094 225.375 63.8906 225.594C64.6875 225.812 65.3203 226.164 65.7891 226.648C66.1484 226.992 66.4141 227.422 66.5859 227.938C66.7734 228.453 66.8672 229.055 66.8672 229.742C66.8672 230.398 66.7578 230.984 66.5391 231.5C66.3359 232.016 66.0391 232.453 65.6484 232.812C65.1797 233.266 64.5625 233.609 63.7969 233.844C63.0312 234.062 62.1484 234.18 61.1484 234.195H56.25ZM96.9609 228.172C95.2578 228.172 93.6875 228.586 92.25 229.414C90.8125 230.227 89.5781 231.352 88.5469 232.789L88.5 232.227L88.2422 228.641H82.1719V254H88.6875V238.766C88.9844 238.047 89.3594 237.422 89.8125 236.891C90.2656 236.359 90.8125 235.922 91.4531 235.578C91.9844 235.281 92.5859 235.062 93.2578 234.922C93.9453 234.766 94.7109 234.688 95.5547 234.688C96.3672 234.688 97.2188 234.742 98.1094 234.852C99.0156 234.945 99.8984 235.094 100.758 235.297L101.719 228.805C101.203 228.648 100.523 228.508 99.6797 228.383C98.8516 228.242 97.9453 228.172 96.9609 228.172ZM123.422 254H130.031V253.602C129.703 252.961 129.453 252.195 129.281 251.305C129.109 250.414 129.023 249.289 129.023 247.93V237.055C129.023 235.586 128.75 234.297 128.203 233.188C127.656 232.062 126.898 231.133 125.93 230.398C124.961 229.664 123.812 229.109 122.484 228.734C121.172 228.359 119.75 228.172 118.219 228.172C116.516 228.172 115 228.391 113.672 228.828C112.359 229.25 111.25 229.828 110.344 230.562C109.422 231.297 108.719 232.148 108.234 233.117C107.766 234.086 107.531 235.109 107.531 236.188H114.047C114.047 235.734 114.109 235.32 114.234 234.945C114.375 234.57 114.586 234.25 114.867 233.984C115.18 233.688 115.586 233.461 116.086 233.305C116.586 233.133 117.18 233.047 117.867 233.047C118.648 233.047 119.328 233.148 119.906 233.352C120.5 233.539 120.992 233.812 121.383 234.172C121.758 234.516 122.039 234.93 122.227 235.414C122.414 235.883 122.508 236.414 122.508 237.008V238.508H118.875C117 238.508 115.336 238.68 113.883 239.023C112.445 239.352 111.234 239.836 110.25 240.477C109.156 241.18 108.336 242.078 107.789 243.172C107.242 244.25 106.969 245.492 106.969 246.898C106.969 247.992 107.188 249.008 107.625 249.945C108.062 250.867 108.672 251.664 109.453 252.336C110.234 253.008 111.164 253.531 112.242 253.906C113.336 254.281 114.531 254.469 115.828 254.469C116.625 254.469 117.367 254.391 118.055 254.234C118.742 254.094 119.375 253.891 119.953 253.625C120.516 253.375 121.031 253.078 121.5 252.734C121.969 252.391 122.383 252.023 122.742 251.633C122.82 252.086 122.914 252.516 123.023 252.922C123.133 253.328 123.266 253.688 123.422 254ZM117.211 249.43C116.602 249.43 116.062 249.359 115.594 249.219C115.141 249.062 114.758 248.859 114.445 248.609C114.133 248.344 113.891 248.023 113.719 247.648C113.562 247.258 113.484 246.836 113.484 246.383C113.484 245.805 113.594 245.273 113.812 244.789C114.031 244.289 114.367 243.859 114.82 243.5C115.273 243.156 115.859 242.891 116.578 242.703C117.297 242.5 118.164 242.398 119.18 242.398H122.508V246.758C122.32 247.086 122.062 247.414 121.734 247.742C121.406 248.055 121.016 248.336 120.562 248.586C120.109 248.836 119.602 249.039 119.039 249.195C118.477 249.352 117.867 249.43 117.211 249.43ZM138.141 228.641V233.961H145.359V248.703H138.141V254H158.812V248.703H151.945V228.641H138.141ZM144.891 222.148C144.891 222.648 144.977 223.117 145.148 223.555C145.336 223.977 145.594 224.336 145.922 224.633C146.25 224.945 146.641 225.188 147.094 225.359C147.562 225.531 148.078 225.617 148.641 225.617C149.797 225.617 150.711 225.297 151.383 224.656C152.07 224 152.414 223.164 152.414 222.148C152.414 221.133 152.07 220.305 151.383 219.664C150.711 219.008 149.797 218.68 148.641 218.68C148.078 218.68 147.562 218.766 147.094 218.938C146.641 219.109 146.25 219.344 145.922 219.641C145.594 219.953 145.336 220.328 145.148 220.766C144.977 221.188 144.891 221.648 144.891 222.148ZM165.234 254H171.773V235.977C171.992 235.633 172.234 235.32 172.5 235.039C172.766 234.758 173.062 234.516 173.391 234.312C173.797 234.031 174.258 233.82 174.773 233.68C175.305 233.539 175.883 233.469 176.508 233.469C177.258 233.469 177.93 233.547 178.523 233.703C179.117 233.844 179.625 234.102 180.047 234.477C180.469 234.852 180.789 235.367 181.008 236.023C181.242 236.664 181.359 237.484 181.359 238.484V254H187.875V238.391C187.875 236.547 187.656 234.984 187.219 233.703C186.797 232.406 186.203 231.344 185.438 230.516C184.656 229.703 183.734 229.109 182.672 228.734C181.609 228.359 180.438 228.172 179.156 228.172C178.156 228.172 177.211 228.312 176.32 228.594C175.43 228.875 174.609 229.281 173.859 229.812C173.422 230.125 173.008 230.477 172.617 230.867C172.227 231.258 171.867 231.688 171.539 232.156L171.141 228.641H165.234V254ZM210.422 247.039C210.422 247.43 210.32 247.789 210.117 248.117C209.93 248.445 209.641 248.734 209.25 248.984C208.844 249.234 208.32 249.438 207.68 249.594C207.055 249.734 206.32 249.805 205.477 249.805C204.773 249.805 204.086 249.734 203.414 249.594C202.758 249.453 202.172 249.227 201.656 248.914C201.141 248.617 200.719 248.227 200.391 247.742C200.062 247.242 199.875 246.648 199.828 245.961H193.617C193.617 246.992 193.867 248.023 194.367 249.055C194.883 250.07 195.633 250.977 196.617 251.773C197.602 252.586 198.82 253.242 200.273 253.742C201.742 254.242 203.43 254.492 205.336 254.492C207.07 254.492 208.641 254.305 210.047 253.93C211.453 253.539 212.656 253 213.656 252.312C214.641 251.625 215.398 250.812 215.93 249.875C216.477 248.922 216.75 247.883 216.75 246.758C216.75 245.539 216.477 244.492 215.93 243.617C215.398 242.727 214.656 241.969 213.703 241.344C212.75 240.734 211.617 240.234 210.305 239.844C208.992 239.453 207.57 239.133 206.039 238.883C204.977 238.727 204.102 238.547 203.414 238.344C202.727 238.125 202.188 237.883 201.797 237.617C201.391 237.367 201.109 237.086 200.953 236.773C200.797 236.445 200.719 236.094 200.719 235.719C200.719 235.344 200.805 234.992 200.977 234.664C201.164 234.32 201.43 234.023 201.773 233.773C202.148 233.492 202.633 233.273 203.227 233.117C203.82 232.961 204.516 232.883 205.312 232.883C206.25 232.883 207.047 233 207.703 233.234C208.375 233.469 208.906 233.781 209.297 234.172C209.578 234.469 209.789 234.805 209.93 235.18C210.07 235.539 210.141 235.93 210.141 236.352H216.656C216.656 235.18 216.398 234.094 215.883 233.094C215.367 232.094 214.625 231.227 213.656 230.492C212.672 229.773 211.477 229.211 210.07 228.805C208.664 228.383 207.078 228.172 205.312 228.172C203.625 228.172 202.109 228.383 200.766 228.805C199.422 229.227 198.281 229.797 197.344 230.516C196.406 231.234 195.688 232.07 195.188 233.023C194.688 233.977 194.438 234.977 194.438 236.023C194.438 237.102 194.68 238.055 195.164 238.883C195.664 239.711 196.352 240.438 197.227 241.062C198.102 241.703 199.148 242.25 200.367 242.703C201.602 243.141 202.961 243.508 204.445 243.805C205.617 244.023 206.586 244.242 207.352 244.461C208.117 244.68 208.734 244.914 209.203 245.164C209.656 245.43 209.969 245.711 210.141 246.008C210.328 246.305 210.422 246.648 210.422 247.039ZM234.844 222.43H228.328V228.641H222.539V233.445H228.328V244.977C228.328 246.648 228.547 248.086 228.984 249.289C229.422 250.477 230.047 251.453 230.859 252.219C231.656 253 232.617 253.578 233.742 253.953C234.883 254.312 236.148 254.492 237.539 254.492C238.258 254.492 238.984 254.453 239.719 254.375C240.469 254.312 241.188 254.219 241.875 254.094C242.562 253.969 243.211 253.812 243.82 253.625C244.43 253.422 244.961 253.188 245.414 252.922L244.781 248.445C244.484 248.523 244.125 248.602 243.703 248.68C243.297 248.758 242.859 248.828 242.391 248.891C241.906 248.969 241.398 249.031 240.867 249.078C240.352 249.125 239.844 249.148 239.344 249.148C238.656 249.148 238.031 249.07 237.469 248.914C236.922 248.758 236.453 248.492 236.062 248.117C235.672 247.758 235.367 247.273 235.148 246.664C234.945 246.039 234.844 245.266 234.844 244.344V233.445H244.312V228.641H234.844V222.43ZM250.828 241.086V241.578C250.828 243.438 251.094 245.156 251.625 246.734C252.156 248.297 252.938 249.656 253.969 250.812C254.984 251.969 256.234 252.875 257.719 253.531C259.219 254.172 260.922 254.492 262.828 254.492C264.719 254.492 266.406 254.172 267.891 253.531C269.375 252.875 270.625 251.969 271.641 250.812C272.656 249.656 273.43 248.297 273.961 246.734C274.492 245.156 274.758 243.438 274.758 241.578V241.086C274.758 239.242 274.492 237.539 273.961 235.977C273.43 234.398 272.656 233.031 271.641 231.875C270.609 230.719 269.352 229.812 267.867 229.156C266.383 228.5 264.688 228.172 262.781 228.172C260.875 228.172 259.18 228.5 257.695 229.156C256.227 229.812 254.984 230.719 253.969 231.875C252.938 233.031 252.156 234.398 251.625 235.977C251.094 237.539 250.828 239.242 250.828 241.086ZM257.344 241.578V241.086C257.344 240.055 257.445 239.078 257.648 238.156C257.852 237.234 258.172 236.422 258.609 235.719C259.047 235.016 259.609 234.461 260.297 234.055C260.984 233.648 261.812 233.445 262.781 233.445C263.766 233.445 264.602 233.648 265.289 234.055C265.977 234.461 266.539 235.016 266.977 235.719C267.398 236.422 267.711 237.234 267.914 238.156C268.117 239.078 268.219 240.055 268.219 241.086V241.578C268.219 242.641 268.117 243.641 267.914 244.578C267.711 245.5 267.398 246.305 266.977 246.992C266.539 247.695 265.977 248.25 265.289 248.656C264.602 249.062 263.781 249.266 262.828 249.266C261.844 249.266 261 249.062 260.297 248.656C259.609 248.25 259.047 247.695 258.609 246.992C258.172 246.305 257.852 245.5 257.648 244.578C257.445 243.641 257.344 242.641 257.344 241.578ZM298.758 228.172C297.055 228.172 295.484 228.586 294.047 229.414C292.609 230.227 291.375 231.352 290.344 232.789L290.297 232.227L290.039 228.641H283.969V254H290.484V238.766C290.781 238.047 291.156 237.422 291.609 236.891C292.062 236.359 292.609 235.922 293.25 235.578C293.781 235.281 294.383 235.062 295.055 234.922C295.742 234.766 296.508 234.688 297.352 234.688C298.164 234.688 299.016 234.742 299.906 234.852C300.812 234.945 301.695 235.094 302.555 235.297L303.516 228.805C303 228.648 302.32 228.508 301.477 228.383C300.648 228.242 299.742 228.172 298.758 228.172ZM313.43 228.641H307.828V254H313.758V235.016C313.836 234.812 313.922 234.625 314.016 234.453C314.109 234.281 314.219 234.133 314.344 234.008C314.516 233.836 314.711 233.703 314.93 233.609C315.148 233.516 315.398 233.469 315.68 233.469C315.93 233.469 316.164 233.508 316.383 233.586C316.602 233.648 316.797 233.766 316.969 233.938C317.125 234.109 317.25 234.352 317.344 234.664C317.438 234.977 317.484 235.375 317.484 235.859V254H323.227V235.297C323.227 235.109 323.227 234.961 323.227 234.852C323.227 234.742 323.227 234.672 323.227 234.641C323.305 234.469 323.398 234.32 323.508 234.195C323.617 234.055 323.742 233.93 323.883 233.82C324.055 233.711 324.234 233.625 324.422 233.562C324.625 233.5 324.852 233.469 325.102 233.469C325.336 233.469 325.562 233.508 325.781 233.586C326.016 233.648 326.219 233.766 326.391 233.938C326.562 234.125 326.695 234.375 326.789 234.688C326.898 235 326.953 235.398 326.953 235.883V254H332.883V235.906C332.883 234.5 332.742 233.312 332.461 232.344C332.195 231.359 331.82 230.555 331.336 229.93C330.836 229.32 330.25 228.875 329.578 228.594C328.922 228.312 328.211 228.172 327.445 228.172C326.836 228.172 326.273 228.25 325.758 228.406C325.242 228.562 324.781 228.781 324.375 229.062C324.047 229.281 323.742 229.547 323.461 229.859C323.195 230.156 322.953 230.492 322.734 230.867C322.594 230.477 322.422 230.133 322.219 229.836C322.031 229.523 321.805 229.258 321.539 229.039C321.195 228.742 320.789 228.523 320.32 228.383C319.852 228.242 319.32 228.172 318.727 228.172C317.508 228.172 316.469 228.492 315.609 229.133C314.766 229.758 314.102 230.617 313.617 231.711L313.43 228.641ZM339.938 228.641V233.961H347.156V248.703H339.938V254H360.609V248.703H353.742V228.641H339.938ZM346.688 222.148C346.688 222.648 346.773 223.117 346.945 223.555C347.133 223.977 347.391 224.336 347.719 224.633C348.047 224.945 348.438 225.188 348.891 225.359C349.359 225.531 349.875 225.617 350.438 225.617C351.594 225.617 352.508 225.297 353.18 224.656C353.867 224 354.211 223.164 354.211 222.148C354.211 221.133 353.867 220.305 353.18 219.664C352.508 219.008 351.594 218.68 350.438 218.68C349.875 218.68 349.359 218.766 348.891 218.938C348.438 219.109 348.047 219.344 347.719 219.641C347.391 219.953 347.133 220.328 346.945 220.766C346.773 221.188 346.688 221.648 346.688 222.148ZM367.031 254H373.57V235.977C373.789 235.633 374.031 235.32 374.297 235.039C374.562 234.758 374.859 234.516 375.188 234.312C375.594 234.031 376.055 233.82 376.57 233.68C377.102 233.539 377.68 233.469 378.305 233.469C379.055 233.469 379.727 233.547 380.32 233.703C380.914 233.844 381.422 234.102 381.844 234.477C382.266 234.852 382.586 235.367 382.805 236.023C383.039 236.664 383.156 237.484 383.156 238.484V254H389.672V238.391C389.672 236.547 389.453 234.984 389.016 233.703C388.594 232.406 388 231.344 387.234 230.516C386.453 229.703 385.531 229.109 384.469 228.734C383.406 228.359 382.234 228.172 380.953 228.172C379.953 228.172 379.008 228.312 378.117 228.594C377.227 228.875 376.406 229.281 375.656 229.812C375.219 230.125 374.805 230.477 374.414 230.867C374.023 231.258 373.664 231.688 373.336 232.156L372.938 228.641H367.031V254ZM395.203 241.133V241.625C395.203 243.469 395.438 245.18 395.906 246.758C396.391 248.32 397.078 249.672 397.969 250.812C398.859 251.953 399.93 252.852 401.18 253.508C402.445 254.148 403.867 254.469 405.445 254.469C406.242 254.469 406.984 254.383 407.672 254.211C408.375 254.039 409.016 253.797 409.594 253.484C409.984 253.266 410.352 253.016 410.695 252.734C411.039 252.453 411.367 252.141 411.68 251.797V253.25C411.68 254.109 411.555 254.883 411.305 255.57C411.07 256.258 410.727 256.836 410.273 257.305C409.773 257.82 409.148 258.211 408.398 258.477C407.664 258.742 406.82 258.875 405.867 258.875C405.273 258.875 404.695 258.812 404.133 258.688C403.586 258.578 403.055 258.406 402.539 258.172C402.008 257.938 401.5 257.633 401.016 257.258C400.531 256.898 400.078 256.477 399.656 255.992L396.727 259.953C397.273 260.656 397.93 261.258 398.695 261.758C399.461 262.273 400.273 262.695 401.133 263.023C401.992 263.352 402.859 263.594 403.734 263.75C404.609 263.906 405.43 263.984 406.195 263.984C407.977 263.984 409.602 263.742 411.07 263.258C412.555 262.789 413.828 262.094 414.891 261.172C415.938 260.25 416.75 259.117 417.328 257.773C417.922 256.43 418.219 254.898 418.219 253.18V228.641H412.289L412.031 231.055C411.719 230.664 411.375 230.312 411 230C410.625 229.672 410.219 229.391 409.781 229.156C409.203 228.828 408.555 228.586 407.836 228.43C407.133 228.258 406.352 228.172 405.492 228.172C403.898 228.172 402.469 228.484 401.203 229.109C399.938 229.734 398.859 230.617 397.969 231.758C397.078 232.898 396.391 234.266 395.906 235.859C395.438 237.453 395.203 239.211 395.203 241.133ZM401.742 241.625V241.133C401.742 240.07 401.852 239.078 402.07 238.156C402.289 237.219 402.625 236.398 403.078 235.695C403.516 235.008 404.07 234.469 404.742 234.078C405.414 233.672 406.211 233.469 407.133 233.469C407.633 233.469 408.094 233.516 408.516 233.609C408.953 233.703 409.352 233.836 409.711 234.008C410.133 234.211 410.508 234.477 410.836 234.805C411.164 235.133 411.445 235.516 411.68 235.953V246.688C411.461 247.078 411.203 247.43 410.906 247.742C410.609 248.055 410.266 248.32 409.875 248.539C409.5 248.742 409.078 248.898 408.609 249.008C408.156 249.117 407.648 249.172 407.086 249.172C406.164 249.172 405.367 248.977 404.695 248.586C404.023 248.195 403.469 247.656 403.031 246.969C402.594 246.297 402.266 245.508 402.047 244.602C401.844 243.68 401.742 242.688 401.742 241.625Z" fill="white"/>
<path d="M118.443 434.15L2.88675 234L118.443 33.85H349.557L465.113 234L349.557 434.15H118.443Z" stroke="#3949AB" stroke-width="5"/>
<path d="M589.641 620.68V591.875H583.031V626H605.625V620.68H589.641ZM610.758 613.086V613.578C610.758 615.438 611.023 617.156 611.555 618.734C612.086 620.297 612.867 621.656 613.898 622.812C614.914 623.969 616.164 624.875 617.648 625.531C619.148 626.172 620.852 626.492 622.758 626.492C624.648 626.492 626.336 626.172 627.82 625.531C629.305 624.875 630.555 623.969 631.57 622.812C632.586 621.656 633.359 620.297 633.891 618.734C634.422 617.156 634.688 615.438 634.688 613.578V613.086C634.688 611.242 634.422 609.539 633.891 607.977C633.359 606.398 632.586 605.031 631.57 603.875C630.539 602.719 629.281 601.812 627.797 601.156C626.312 600.5 624.617 600.172 622.711 600.172C620.805 600.172 619.109 600.5 617.625 601.156C616.156 601.812 614.914 602.719 613.898 603.875C612.867 605.031 612.086 606.398 611.555 607.977C611.023 609.539 610.758 611.242 610.758 613.086ZM617.273 613.578V613.086C617.273 612.055 617.375 611.078 617.578 610.156C617.781 609.234 618.102 608.422 618.539 607.719C618.977 607.016 619.539 606.461 620.227 606.055C620.914 605.648 621.742 605.445 622.711 605.445C623.695 605.445 624.531 605.648 625.219 606.055C625.906 606.461 626.469 607.016 626.906 607.719C627.328 608.422 627.641 609.234 627.844 610.156C628.047 611.078 628.148 612.055 628.148 613.086V613.578C628.148 614.641 628.047 615.641 627.844 616.578C627.641 617.5 627.328 618.305 626.906 618.992C626.469 619.695 625.906 620.25 625.219 620.656C624.531 621.062 623.711 621.266 622.758 621.266C621.773 621.266 620.93 621.062 620.227 620.656C619.539 620.25 618.977 619.695 618.539 618.992C618.102 618.305 617.781 617.5 617.578 616.578C617.375 615.641 617.273 614.641 617.273 613.578ZM663.305 613.578V608.305H643.781V613.578H663.305ZM675.609 626H682.148V605.445H691.289V600.641H682.148V599.258C682.148 598.508 682.242 597.836 682.43 597.242C682.633 596.648 682.938 596.148 683.344 595.742C683.797 595.258 684.406 594.891 685.172 594.641C685.938 594.391 686.867 594.266 687.961 594.266C688.977 594.266 689.859 594.312 690.609 594.406C691.359 594.5 692.031 594.609 692.625 594.734L693.047 589.625C692.516 589.531 692 589.445 691.5 589.367C691.016 589.289 690.531 589.219 690.047 589.156C689.562 589.094 689.062 589.047 688.547 589.016C688.047 588.969 687.523 588.945 686.977 588.945C685.242 588.945 683.672 589.172 682.266 589.625C680.859 590.062 679.664 590.719 678.68 591.594C677.695 592.469 676.938 593.547 676.406 594.828C675.875 596.109 675.609 597.586 675.609 599.258V600.641H668.953V605.445H675.609V626ZM699.867 600.641V605.961H707.086V620.703H699.867V626H720.539V620.703H713.672V600.641H699.867ZM706.617 594.148C706.617 594.648 706.703 595.117 706.875 595.555C707.062 595.977 707.32 596.336 707.648 596.633C707.977 596.945 708.367 597.188 708.82 597.359C709.289 597.531 709.805 597.617 710.367 597.617C711.523 597.617 712.438 597.297 713.109 596.656C713.797 596 714.141 595.164 714.141 594.148C714.141 593.133 713.797 592.305 713.109 591.664C712.438 591.008 711.523 590.68 710.367 590.68C709.805 590.68 709.289 590.766 708.82 590.938C708.367 591.109 707.977 591.344 707.648 591.641C707.32 591.953 707.062 592.328 706.875 592.766C706.703 593.188 706.617 593.648 706.617 594.148ZM525.258 698.75H531.773V686.797C532.07 687.125 532.383 687.422 532.711 687.688C533.039 687.953 533.383 688.195 533.742 688.414C534.352 688.758 535.008 689.016 535.711 689.188C536.43 689.375 537.211 689.469 538.055 689.469C539.648 689.469 541.062 689.141 542.297 688.484C543.531 687.828 544.57 686.922 545.414 685.766C546.242 684.625 546.867 683.266 547.289 681.688C547.727 680.109 547.945 678.398 547.945 676.555V676.062C547.945 674.141 547.727 672.391 547.289 670.812C546.867 669.219 546.234 667.852 545.391 666.711C544.547 665.586 543.508 664.719 542.273 664.109C541.039 663.484 539.617 663.172 538.008 663.172C537.227 663.172 536.492 663.258 535.805 663.43C535.133 663.586 534.516 663.812 533.953 664.109C533.484 664.359 533.047 664.656 532.641 665C532.234 665.328 531.859 665.703 531.516 666.125L531.281 663.641H525.258V698.75ZM541.43 676.062V676.555C541.43 677.602 541.336 678.594 541.148 679.531C540.961 680.453 540.664 681.266 540.258 681.969C539.852 682.672 539.32 683.227 538.664 683.633C538.023 684.039 537.242 684.242 536.32 684.242C535.742 684.242 535.219 684.188 534.75 684.078C534.281 683.953 533.867 683.781 533.508 683.562C533.133 683.328 532.797 683.047 532.5 682.719C532.219 682.391 531.977 682.023 531.773 681.617V671.023C531.992 670.586 532.25 670.203 532.547 669.875C532.859 669.547 533.219 669.273 533.625 669.055C533.984 668.867 534.383 668.727 534.82 668.633C535.258 668.523 535.742 668.469 536.273 668.469C537.195 668.469 537.977 668.664 538.617 669.055C539.273 669.445 539.812 669.977 540.234 670.648C540.641 671.336 540.938 672.148 541.125 673.086C541.328 674.008 541.43 675 541.43 676.062ZM572.203 663.172C570.5 663.172 568.93 663.586 567.492 664.414C566.055 665.227 564.82 666.352 563.789 667.789L563.742 667.227L563.484 663.641H557.414V689H563.93V673.766C564.227 673.047 564.602 672.422 565.055 671.891C565.508 671.359 566.055 670.922 566.695 670.578C567.227 670.281 567.828 670.062 568.5 669.922C569.188 669.766 569.953 669.688 570.797 669.688C571.609 669.688 572.461 669.742 573.352 669.852C574.258 669.945 575.141 670.094 576 670.297L576.961 663.805C576.445 663.648 575.766 663.508 574.922 663.383C574.094 663.242 573.188 663.172 572.203 663.172ZM581.93 676.086V676.578C581.93 678.438 582.195 680.156 582.727 681.734C583.258 683.297 584.039 684.656 585.07 685.812C586.086 686.969 587.336 687.875 588.82 688.531C590.32 689.172 592.023 689.492 593.93 689.492C595.82 689.492 597.508 689.172 598.992 688.531C600.477 687.875 601.727 686.969 602.742 685.812C603.758 684.656 604.531 683.297 605.062 681.734C605.594 680.156 605.859 678.438 605.859 676.578V676.086C605.859 674.242 605.594 672.539 605.062 670.977C604.531 669.398 603.758 668.031 602.742 666.875C601.711 665.719 600.453 664.812 598.969 664.156C597.484 663.5 595.789 663.172 593.883 663.172C591.977 663.172 590.281 663.5 588.797 664.156C587.328 664.812 586.086 665.719 585.07 666.875C584.039 668.031 583.258 669.398 582.727 670.977C582.195 672.539 581.93 674.242 581.93 676.086ZM588.445 676.578V676.086C588.445 675.055 588.547 674.078 588.75 673.156C588.953 672.234 589.273 671.422 589.711 670.719C590.148 670.016 590.711 669.461 591.398 669.055C592.086 668.648 592.914 668.445 593.883 668.445C594.867 668.445 595.703 668.648 596.391 669.055C597.078 669.461 597.641 670.016 598.078 670.719C598.5 671.422 598.812 672.234 599.016 673.156C599.219 674.078 599.32 675.055 599.32 676.086V676.578C599.32 677.641 599.219 678.641 599.016 679.578C598.812 680.5 598.5 681.305 598.078 681.992C597.641 682.695 597.078 683.25 596.391 683.656C595.703 684.062 594.883 684.266 593.93 684.266C592.945 684.266 592.102 684.062 591.398 683.656C590.711 683.25 590.148 682.695 589.711 681.992C589.273 681.305 588.953 680.5 588.75 679.578C588.547 678.641 588.445 677.641 588.445 676.578ZM623.602 657.43H617.086V663.641H611.297V668.445H617.086V679.977C617.086 681.648 617.305 683.086 617.742 684.289C618.18 685.477 618.805 686.453 619.617 687.219C620.414 688 621.375 688.578 622.5 688.953C623.641 689.312 624.906 689.492 626.297 689.492C627.016 689.492 627.742 689.453 628.477 689.375C629.227 689.312 629.945 689.219 630.633 689.094C631.32 688.969 631.969 688.812 632.578 688.625C633.188 688.422 633.719 688.188 634.172 687.922L633.539 683.445C633.242 683.523 632.883 683.602 632.461 683.68C632.055 683.758 631.617 683.828 631.148 683.891C630.664 683.969 630.156 684.031 629.625 684.078C629.109 684.125 628.602 684.148 628.102 684.148C627.414 684.148 626.789 684.07 626.227 683.914C625.68 683.758 625.211 683.492 624.82 683.117C624.43 682.758 624.125 682.273 623.906 681.664C623.703 681.039 623.602 680.266 623.602 679.344V668.445H633.07V663.641H623.602V657.43ZM639.586 676.086V676.578C639.586 678.438 639.852 680.156 640.383 681.734C640.914 683.297 641.695 684.656 642.727 685.812C643.742 686.969 644.992 687.875 646.477 688.531C647.977 689.172 649.68 689.492 651.586 689.492C653.477 689.492 655.164 689.172 656.648 688.531C658.133 687.875 659.383 686.969 660.398 685.812C661.414 684.656 662.188 683.297 662.719 681.734C663.25 680.156 663.516 678.438 663.516 676.578V676.086C663.516 674.242 663.25 672.539 662.719 670.977C662.188 669.398 661.414 668.031 660.398 666.875C659.367 665.719 658.109 664.812 656.625 664.156C655.141 663.5 653.445 663.172 651.539 663.172C649.633 663.172 647.938 663.5 646.453 664.156C644.984 664.812 643.742 665.719 642.727 666.875C641.695 668.031 640.914 669.398 640.383 670.977C639.852 672.539 639.586 674.242 639.586 676.086ZM646.102 676.578V676.086C646.102 675.055 646.203 674.078 646.406 673.156C646.609 672.234 646.93 671.422 647.367 670.719C647.805 670.016 648.367 669.461 649.055 669.055C649.742 668.648 650.57 668.445 651.539 668.445C652.523 668.445 653.359 668.648 654.047 669.055C654.734 669.461 655.297 670.016 655.734 670.719C656.156 671.422 656.469 672.234 656.672 673.156C656.875 674.078 656.977 675.055 656.977 676.086V676.578C656.977 677.641 656.875 678.641 656.672 679.578C656.469 680.5 656.156 681.305 655.734 681.992C655.297 682.695 654.734 683.25 654.047 683.656C653.359 684.062 652.539 684.266 651.586 684.266C650.602 684.266 649.758 684.062 649.055 683.656C648.367 683.25 647.805 682.695 647.367 681.992C646.93 681.305 646.609 680.5 646.406 679.578C646.203 678.641 646.102 677.641 646.102 676.578ZM673.312 699.242C674.625 699.242 675.758 699.023 676.711 698.586C677.68 698.148 678.5 697.609 679.172 696.969C679.844 696.328 680.398 695.633 680.836 694.883C681.289 694.133 681.656 693.438 681.938 692.797L694.805 663.641H687.609L681.82 678.547L680.859 681.078L680.156 678.5L674.344 663.641H667.219L677.953 687.922L676.453 690.711C676.266 691.055 676.102 691.32 675.961 691.508C675.836 691.695 675.633 691.977 675.352 692.352C675.07 692.727 674.727 693.07 674.32 693.383C673.93 693.711 673.477 693.875 672.961 693.875C672.711 693.875 672.375 693.859 671.953 693.828C671.547 693.812 671.211 693.805 670.945 693.805L670.148 698.773C670.711 698.93 671.219 699.047 671.672 699.125C672.141 699.203 672.688 699.242 673.312 699.242ZM698.227 698.75H704.742V686.797C705.039 687.125 705.352 687.422 705.68 687.688C706.008 687.953 706.352 688.195 706.711 688.414C707.32 688.758 707.977 689.016 708.68 689.188C709.398 689.375 710.18 689.469 711.023 689.469C712.617 689.469 714.031 689.141 715.266 688.484C716.5 687.828 717.539 686.922 718.383 685.766C719.211 684.625 719.836 683.266 720.258 681.688C720.695 680.109 720.914 678.398 720.914 676.555V676.062C720.914 674.141 720.695 672.391 720.258 670.812C719.836 669.219 719.203 667.852 718.359 666.711C717.516 665.586 716.477 664.719 715.242 664.109C714.008 663.484 712.586 663.172 710.977 663.172C710.195 663.172 709.461 663.258 708.773 663.43C708.102 663.586 707.484 663.812 706.922 664.109C706.453 664.359 706.016 664.656 705.609 665C705.203 665.328 704.828 665.703 704.484 666.125L704.25 663.641H698.227V698.75ZM714.398 676.062V676.555C714.398 677.602 714.305 678.594 714.117 679.531C713.93 680.453 713.633 681.266 713.227 681.969C712.82 682.672 712.289 683.227 711.633 683.633C710.992 684.039 710.211 684.242 709.289 684.242C708.711 684.242 708.188 684.188 707.719 684.078C707.25 683.953 706.836 683.781 706.477 683.562C706.102 683.328 705.766 683.047 705.469 682.719C705.188 682.391 704.945 682.023 704.742 681.617V671.023C704.961 670.586 705.219 670.203 705.516 669.875C705.828 669.547 706.188 669.273 706.594 669.055C706.953 668.867 707.352 668.727 707.789 668.633C708.227 668.523 708.711 668.469 709.242 668.469C710.164 668.469 710.945 668.664 711.586 669.055C712.242 669.445 712.781 669.977 713.203 670.648C713.609 671.336 713.906 672.148 714.094 673.086C714.297 674.008 714.398 675 714.398 676.062ZM728.695 663.641V668.961H735.914V683.703H728.695V689H749.367V683.703H742.5V663.641H728.695ZM735.445 657.148C735.445 657.648 735.531 658.117 735.703 658.555C735.891 658.977 736.148 659.336 736.477 659.633C736.805 659.945 737.195 660.188 737.648 660.359C738.117 660.531 738.633 660.617 739.195 660.617C740.352 660.617 741.266 660.297 741.938 659.656C742.625 659 742.969 658.164 742.969 657.148C742.969 656.133 742.625 655.305 741.938 654.664C741.266 654.008 740.352 653.68 739.195 653.68C738.633 653.68 738.117 653.766 737.648 653.938C737.195 654.109 736.805 654.344 736.477 654.641C736.148 654.953 735.891 655.328 735.703 655.766C735.531 656.188 735.445 656.648 735.445 657.148ZM755.789 689H762.328V670.977C762.547 670.633 762.789 670.32 763.055 670.039C763.32 669.758 763.617 669.516 763.945 669.312C764.352 669.031 764.812 668.82 765.328 668.68C765.859 668.539 766.438 668.469 767.062 668.469C767.812 668.469 768.484 668.547 769.078 668.703C769.672 668.844 770.18 669.102 770.602 669.477C771.023 669.852 771.344 670.367 771.562 671.023C771.797 671.664 771.914 672.484 771.914 673.484V689H778.43V673.391C778.43 671.547 778.211 669.984 777.773 668.703C777.352 667.406 776.758 666.344 775.992 665.516C775.211 664.703 774.289 664.109 773.227 663.734C772.164 663.359 770.992 663.172 769.711 663.172C768.711 663.172 767.766 663.312 766.875 663.594C765.984 663.875 765.164 664.281 764.414 664.812C763.977 665.125 763.562 665.477 763.172 665.867C762.781 666.258 762.422 666.688 762.094 667.156L761.695 663.641H755.789V689ZM783.961 676.133V676.625C783.961 678.469 784.195 680.18 784.664 681.758C785.148 683.32 785.836 684.672 786.727 685.812C787.617 686.953 788.688 687.852 789.938 688.508C791.203 689.148 792.625 689.469 794.203 689.469C795 689.469 795.742 689.383 796.43 689.211C797.133 689.039 797.773 688.797 798.352 688.484C798.742 688.266 799.109 688.016 799.453 687.734C799.797 687.453 800.125 687.141 800.438 686.797V688.25C800.438 689.109 800.312 689.883 800.062 690.57C799.828 691.258 799.484 691.836 799.031 692.305C798.531 692.82 797.906 693.211 797.156 693.477C796.422 693.742 795.578 693.875 794.625 693.875C794.031 693.875 793.453 693.812 792.891 693.688C792.344 693.578 791.812 693.406 791.297 693.172C790.766 692.938 790.258 692.633 789.773 692.258C789.289 691.898 788.836 691.477 788.414 690.992L785.484 694.953C786.031 695.656 786.688 696.258 787.453 696.758C788.219 697.273 789.031 697.695 789.891 698.023C790.75 698.352 791.617 698.594 792.492 698.75C793.367 698.906 794.188 698.984 794.953 698.984C796.734 698.984 798.359 698.742 799.828 698.258C801.312 697.789 802.586 697.094 803.648 696.172C804.695 695.25 805.508 694.117 806.086 692.773C806.68 691.43 806.977 689.898 806.977 688.18V663.641H801.047L800.789 666.055C800.477 665.664 800.133 665.312 799.758 665C799.383 664.672 798.977 664.391 798.539 664.156C797.961 663.828 797.312 663.586 796.594 663.43C795.891 663.258 795.109 663.172 794.25 663.172C792.656 663.172 791.227 663.484 789.961 664.109C788.695 664.734 787.617 665.617 786.727 666.758C785.836 667.898 785.148 669.266 784.664 670.859C784.195 672.453 783.961 674.211 783.961 676.133ZM790.5 676.625V676.133C790.5 675.07 790.609 674.078 790.828 673.156C791.047 672.219 791.383 671.398 791.836 670.695C792.273 670.008 792.828 669.469 793.5 669.078C794.172 668.672 794.969 668.469 795.891 668.469C796.391 668.469 796.852 668.516 797.273 668.609C797.711 668.703 798.109 668.836 798.469 669.008C798.891 669.211 799.266 669.477 799.594 669.805C799.922 670.133 800.203 670.516 800.438 670.953V681.688C800.219 682.078 799.961 682.43 799.664 682.742C799.367 683.055 799.023 683.32 798.633 683.539C798.258 683.742 797.836 683.898 797.367 684.008C796.914 684.117 796.406 684.172 795.844 684.172C794.922 684.172 794.125 683.977 793.453 683.586C792.781 683.195 792.227 682.656 791.789 681.969C791.352 681.297 791.023 680.508 790.805 679.602C790.602 678.68 790.5 677.688 790.5 676.625Z" fill="white"/>
<path d="M550.443 840.15L434.887 640L550.443 439.85H781.557L897.113 640L781.557 840.15H550.443Z" stroke="#3949AB" stroke-width="5"/>
<path d="M129.867 994V959.875H123.352V973.867H113.695V959.875H107.156V994H113.695V979.211H123.352V994H129.867ZM148.711 994.469C151.164 994.469 153.289 993.992 155.086 993.039C156.883 992.086 158.195 991.023 159.023 989.852L155.766 986.336C155.016 987.305 154.039 988.031 152.836 988.516C151.633 989 150.391 989.242 149.109 989.242C148.203 989.242 147.367 989.102 146.602 988.82C145.836 988.539 145.156 988.141 144.562 987.625C143.984 987.125 143.523 986.57 143.18 985.961C142.836 985.336 142.555 984.516 142.336 983.5V983.43H159.539V980.664C159.539 978.805 159.281 977.109 158.766 975.578C158.25 974.031 157.5 972.711 156.516 971.617C155.516 970.523 154.297 969.68 152.859 969.086C151.438 968.477 149.812 968.172 147.984 968.172C146.219 968.172 144.586 968.492 143.086 969.133C141.586 969.773 140.289 970.672 139.195 971.828C138.102 972.984 137.25 974.367 136.641 975.977C136.031 977.57 135.727 979.336 135.727 981.273V982.211C135.727 983.914 136.031 985.516 136.641 987.016C137.266 988.5 138.148 989.789 139.289 990.883C140.43 991.992 141.797 992.867 143.391 993.508C144.984 994.148 146.758 994.469 148.711 994.469ZM147.938 973.445C148.766 973.445 149.492 973.578 150.117 973.844C150.758 974.094 151.297 974.438 151.734 974.875C152.172 975.328 152.516 975.859 152.766 976.469C153.016 977.078 153.141 977.727 153.141 978.414V978.93H142.453C142.609 978.102 142.844 977.352 143.156 976.68C143.469 976.008 143.859 975.43 144.328 974.945C144.781 974.461 145.312 974.094 145.922 973.844C146.531 973.578 147.203 973.445 147.938 973.445ZM181.781 994H187.688V968.641H181.148V986.43C180.945 986.836 180.703 987.203 180.422 987.531C180.141 987.859 179.82 988.141 179.461 988.375C179.039 988.641 178.547 988.844 177.984 988.984C177.438 989.125 176.82 989.195 176.133 989.195C175.367 989.195 174.719 989.102 174.188 988.914C173.656 988.727 173.227 988.414 172.898 987.977C172.57 987.555 172.328 986.992 172.172 986.289C172.031 985.586 171.961 984.719 171.961 983.688V968.641H165.445V983.641C165.445 985.562 165.656 987.211 166.078 988.586C166.516 989.945 167.125 991.062 167.906 991.938C168.688 992.828 169.625 993.477 170.719 993.883C171.812 994.289 173.016 994.492 174.328 994.492C175.766 994.492 177.086 994.133 178.289 993.414C179.508 992.695 180.547 991.703 181.406 990.438L181.781 994ZM212.273 968.172C210.57 968.172 209 968.586 207.562 969.414C206.125 970.227 204.891 971.352 203.859 972.789L203.812 972.227L203.555 968.641H197.484V994H204V978.766C204.297 978.047 204.672 977.422 205.125 976.891C205.578 976.359 206.125 975.922 206.766 975.578C207.297 975.281 207.898 975.062 208.57 974.922C209.258 974.766 210.023 974.688 210.867 974.688C211.68 974.688 212.531 974.742 213.422 974.852C214.328 974.945 215.211 975.094 216.07 975.297L217.031 968.805C216.516 968.648 215.836 968.508 214.992 968.383C214.164 968.242 213.258 968.172 212.273 968.172ZM224.625 968.641V973.961H231.844V988.703H224.625V994H245.297V988.703H238.43V968.641H224.625ZM231.375 962.148C231.375 962.648 231.461 963.117 231.633 963.555C231.82 963.977 232.078 964.336 232.406 964.633C232.734 964.945 233.125 965.188 233.578 965.359C234.047 965.531 234.562 965.617 235.125 965.617C236.281 965.617 237.195 965.297 237.867 964.656C238.555 964 238.898 963.164 238.898 962.148C238.898 961.133 238.555 960.305 237.867 959.664C237.195 959.008 236.281 958.68 235.125 958.68C234.562 958.68 234.047 958.766 233.578 958.938C233.125 959.109 232.734 959.344 232.406 959.641C232.078 959.953 231.82 960.328 231.633 960.766C231.461 961.188 231.375 961.648 231.375 962.148ZM268.078 987.039C268.078 987.43 267.977 987.789 267.773 988.117C267.586 988.445 267.297 988.734 266.906 988.984C266.5 989.234 265.977 989.438 265.336 989.594C264.711 989.734 263.977 989.805 263.133 989.805C262.43 989.805 261.742 989.734 261.07 989.594C260.414 989.453 259.828 989.227 259.312 988.914C258.797 988.617 258.375 988.227 258.047 987.742C257.719 987.242 257.531 986.648 257.484 985.961H251.273C251.273 986.992 251.523 988.023 252.023 989.055C252.539 990.07 253.289 990.977 254.273 991.773C255.258 992.586 256.477 993.242 257.93 993.742C259.398 994.242 261.086 994.492 262.992 994.492C264.727 994.492 266.297 994.305 267.703 993.93C269.109 993.539 270.312 993 271.312 992.312C272.297 991.625 273.055 990.812 273.586 989.875C274.133 988.922 274.406 987.883 274.406 986.758C274.406 985.539 274.133 984.492 273.586 983.617C273.055 982.727 272.312 981.969 271.359 981.344C270.406 980.734 269.273 980.234 267.961 979.844C266.648 979.453 265.227 979.133 263.695 978.883C262.633 978.727 261.758 978.547 261.07 978.344C260.383 978.125 259.844 977.883 259.453 977.617C259.047 977.367 258.766 977.086 258.609 976.773C258.453 976.445 258.375 976.094 258.375 975.719C258.375 975.344 258.461 974.992 258.633 974.664C258.82 974.32 259.086 974.023 259.43 973.773C259.805 973.492 260.289 973.273 260.883 973.117C261.477 972.961 262.172 972.883 262.969 972.883C263.906 972.883 264.703 973 265.359 973.234C266.031 973.469 266.562 973.781 266.953 974.172C267.234 974.469 267.445 974.805 267.586 975.18C267.727 975.539 267.797 975.93 267.797 976.352H274.312C274.312 975.18 274.055 974.094 273.539 973.094C273.023 972.094 272.281 971.227 271.312 970.492C270.328 969.773 269.133 969.211 267.727 968.805C266.32 968.383 264.734 968.172 262.969 968.172C261.281 968.172 259.766 968.383 258.422 968.805C257.078 969.227 255.938 969.797 255 970.516C254.062 971.234 253.344 972.07 252.844 973.023C252.344 973.977 252.094 974.977 252.094 976.023C252.094 977.102 252.336 978.055 252.82 978.883C253.32 979.711 254.008 980.438 254.883 981.062C255.758 981.703 256.805 982.25 258.023 982.703C259.258 983.141 260.617 983.508 262.102 983.805C263.273 984.023 264.242 984.242 265.008 984.461C265.773 984.68 266.391 984.914 266.859 985.164C267.312 985.43 267.625 985.711 267.797 986.008C267.984 986.305 268.078 986.648 268.078 987.039ZM292.5 962.43H285.984V968.641H280.195V973.445H285.984V984.977C285.984 986.648 286.203 988.086 286.641 989.289C287.078 990.477 287.703 991.453 288.516 992.219C289.312 993 290.273 993.578 291.398 993.953C292.539 994.312 293.805 994.492 295.195 994.492C295.914 994.492 296.641 994.453 297.375 994.375C298.125 994.312 298.844 994.219 299.531 994.094C300.219 993.969 300.867 993.812 301.477 993.625C302.086 993.422 302.617 993.188 303.07 992.922L302.438 988.445C302.141 988.523 301.781 988.602 301.359 988.68C300.953 988.758 300.516 988.828 300.047 988.891C299.562 988.969 299.055 989.031 298.523 989.078C298.008 989.125 297.5 989.148 297 989.148C296.312 989.148 295.688 989.07 295.125 988.914C294.578 988.758 294.109 988.492 293.719 988.117C293.328 987.758 293.023 987.273 292.805 986.664C292.602 986.039 292.5 985.266 292.5 984.344V973.445H301.969V968.641H292.5V962.43ZM311.109 968.641V973.961H318.328V988.703H311.109V994H331.781V988.703H324.914V968.641H311.109ZM317.859 962.148C317.859 962.648 317.945 963.117 318.117 963.555C318.305 963.977 318.562 964.336 318.891 964.633C319.219 964.945 319.609 965.188 320.062 965.359C320.531 965.531 321.047 965.617 321.609 965.617C322.766 965.617 323.68 965.297 324.352 964.656C325.039 964 325.383 963.164 325.383 962.148C325.383 961.133 325.039 960.305 324.352 959.664C323.68 959.008 322.766 958.68 321.609 958.68C321.047 958.68 320.531 958.766 320.062 958.938C319.609 959.109 319.219 959.344 318.891 959.641C318.562 959.953 318.305 960.328 318.117 960.766C317.945 961.188 317.859 961.648 317.859 962.148ZM349.43 989.266C348.383 989.266 347.516 989.055 346.828 988.633C346.156 988.211 345.625 987.648 345.234 986.945C344.828 986.258 344.547 985.461 344.391 984.555C344.234 983.633 344.156 982.68 344.156 981.695V980.992C344.156 980.023 344.234 979.086 344.391 978.18C344.562 977.273 344.852 976.469 345.258 975.766C345.648 975.062 346.18 974.5 346.852 974.078C347.523 973.656 348.375 973.445 349.406 973.445C350.109 973.445 350.758 973.57 351.352 973.82C351.945 974.055 352.453 974.375 352.875 974.781C353.297 975.188 353.617 975.672 353.836 976.234C354.055 976.797 354.148 977.391 354.117 978.016H360.258C360.289 976.516 360.039 975.164 359.508 973.961C358.977 972.742 358.234 971.703 357.281 970.844C356.312 970 355.164 969.344 353.836 968.875C352.508 968.406 351.062 968.172 349.5 968.172C347.547 968.172 345.828 968.508 344.344 969.18C342.875 969.852 341.641 970.766 340.641 971.922C339.641 973.078 338.891 974.438 338.391 976C337.891 977.547 337.641 979.211 337.641 980.992V981.695C337.641 983.477 337.891 985.148 338.391 986.711C338.906 988.258 339.664 989.609 340.664 990.766C341.648 991.922 342.883 992.836 344.367 993.508C345.852 994.164 347.578 994.492 349.547 994.492C351 994.492 352.375 994.266 353.672 993.812C354.984 993.344 356.133 992.703 357.117 991.891C358.102 991.078 358.875 990.109 359.438 988.984C360.016 987.859 360.289 986.641 360.258 985.328H354.117C354.148 985.922 354.039 986.461 353.789 986.945C353.555 987.43 353.219 987.844 352.781 988.188C352.344 988.531 351.836 988.797 351.258 988.984C350.68 989.172 350.07 989.266 349.43 989.266ZM105.469 1057.47C107.922 1057.47 110.047 1056.99 111.844 1056.04C113.641 1055.09 114.953 1054.02 115.781 1052.85L112.523 1049.34C111.773 1050.3 110.797 1051.03 109.594 1051.52C108.391 1052 107.148 1052.24 105.867 1052.24C104.961 1052.24 104.125 1052.1 103.359 1051.82C102.594 1051.54 101.914 1051.14 101.32 1050.62C100.742 1050.12 100.281 1049.57 99.9375 1048.96C99.5938 1048.34 99.3125 1047.52 99.0938 1046.5V1046.43H116.297V1043.66C116.297 1041.8 116.039 1040.11 115.523 1038.58C115.008 1037.03 114.258 1035.71 113.273 1034.62C112.273 1033.52 111.055 1032.68 109.617 1032.09C108.195 1031.48 106.57 1031.17 104.742 1031.17C102.977 1031.17 101.344 1031.49 99.8438 1032.13C98.3438 1032.77 97.0469 1033.67 95.9531 1034.83C94.8594 1035.98 94.0078 1037.37 93.3984 1038.98C92.7891 1040.57 92.4844 1042.34 92.4844 1044.27V1045.21C92.4844 1046.91 92.7891 1048.52 93.3984 1050.02C94.0234 1051.5 94.9062 1052.79 96.0469 1053.88C97.1875 1054.99 98.5547 1055.87 100.148 1056.51C101.742 1057.15 103.516 1057.47 105.469 1057.47ZM104.695 1036.45C105.523 1036.45 106.25 1036.58 106.875 1036.84C107.516 1037.09 108.055 1037.44 108.492 1037.88C108.93 1038.33 109.273 1038.86 109.523 1039.47C109.773 1040.08 109.898 1040.73 109.898 1041.41V1041.93H99.2109C99.3672 1041.1 99.6016 1040.35 99.9141 1039.68C100.227 1039.01 100.617 1038.43 101.086 1037.95C101.539 1037.46 102.07 1037.09 102.68 1036.84C103.289 1036.58 103.961 1036.45 104.695 1036.45ZM130.055 1057H136.172L145.805 1031.64H139.008L133.453 1049.52L133.102 1051.3L132.75 1049.52L127.172 1031.64H120.375L130.055 1057ZM166.664 1057H173.273V1056.6C172.945 1055.96 172.695 1055.2 172.523 1054.3C172.352 1053.41 172.266 1052.29 172.266 1050.93V1040.05C172.266 1038.59 171.992 1037.3 171.445 1036.19C170.898 1035.06 170.141 1034.13 169.172 1033.4C168.203 1032.66 167.055 1032.11 165.727 1031.73C164.414 1031.36 162.992 1031.17 161.461 1031.17C159.758 1031.17 158.242 1031.39 156.914 1031.83C155.602 1032.25 154.492 1032.83 153.586 1033.56C152.664 1034.3 151.961 1035.15 151.477 1036.12C151.008 1037.09 150.773 1038.11 150.773 1039.19H157.289C157.289 1038.73 157.352 1038.32 157.477 1037.95C157.617 1037.57 157.828 1037.25 158.109 1036.98C158.422 1036.69 158.828 1036.46 159.328 1036.3C159.828 1036.13 160.422 1036.05 161.109 1036.05C161.891 1036.05 162.57 1036.15 163.148 1036.35C163.742 1036.54 164.234 1036.81 164.625 1037.17C165 1037.52 165.281 1037.93 165.469 1038.41C165.656 1038.88 165.75 1039.41 165.75 1040.01V1041.51H162.117C160.242 1041.51 158.578 1041.68 157.125 1042.02C155.688 1042.35 154.477 1042.84 153.492 1043.48C152.398 1044.18 151.578 1045.08 151.031 1046.17C150.484 1047.25 150.211 1048.49 150.211 1049.9C150.211 1050.99 150.43 1052.01 150.867 1052.95C151.305 1053.87 151.914 1054.66 152.695 1055.34C153.477 1056.01 154.406 1056.53 155.484 1056.91C156.578 1057.28 157.773 1057.47 159.07 1057.47C159.867 1057.47 160.609 1057.39 161.297 1057.23C161.984 1057.09 162.617 1056.89 163.195 1056.62C163.758 1056.38 164.273 1056.08 164.742 1055.73C165.211 1055.39 165.625 1055.02 165.984 1054.63C166.062 1055.09 166.156 1055.52 166.266 1055.92C166.375 1056.33 166.508 1056.69 166.664 1057ZM160.453 1052.43C159.844 1052.43 159.305 1052.36 158.836 1052.22C158.383 1052.06 158 1051.86 157.688 1051.61C157.375 1051.34 157.133 1051.02 156.961 1050.65C156.805 1050.26 156.727 1049.84 156.727 1049.38C156.727 1048.8 156.836 1048.27 157.055 1047.79C157.273 1047.29 157.609 1046.86 158.062 1046.5C158.516 1046.16 159.102 1045.89 159.82 1045.7C160.539 1045.5 161.406 1045.4 162.422 1045.4H165.75V1049.76C165.562 1050.09 165.305 1050.41 164.977 1050.74C164.648 1051.05 164.258 1051.34 163.805 1051.59C163.352 1051.84 162.844 1052.04 162.281 1052.2C161.719 1052.35 161.109 1052.43 160.453 1052.43ZM181.008 1021V1026.32H188.602V1051.7H181.008V1057H202.453V1051.7H195.188V1021H181.008ZM225.023 1057H230.93V1031.64H224.391V1049.43C224.188 1049.84 223.945 1050.2 223.664 1050.53C223.383 1050.86 223.062 1051.14 222.703 1051.38C222.281 1051.64 221.789 1051.84 221.227 1051.98C220.68 1052.12 220.062 1052.2 219.375 1052.2C218.609 1052.2 217.961 1052.1 217.43 1051.91C216.898 1051.73 216.469 1051.41 216.141 1050.98C215.812 1050.55 215.57 1049.99 215.414 1049.29C215.273 1048.59 215.203 1047.72 215.203 1046.69V1031.64H208.688V1046.64C208.688 1048.56 208.898 1050.21 209.32 1051.59C209.758 1052.95 210.367 1054.06 211.148 1054.94C211.93 1055.83 212.867 1056.48 213.961 1056.88C215.055 1057.29 216.258 1057.49 217.57 1057.49C219.008 1057.49 220.328 1057.13 221.531 1056.41C222.75 1055.7 223.789 1054.7 224.648 1053.44L225.023 1057ZM253.148 1057H259.758V1056.6C259.43 1055.96 259.18 1055.2 259.008 1054.3C258.836 1053.41 258.75 1052.29 258.75 1050.93V1040.05C258.75 1038.59 258.477 1037.3 257.93 1036.19C257.383 1035.06 256.625 1034.13 255.656 1033.4C254.688 1032.66 253.539 1032.11 252.211 1031.73C250.898 1031.36 249.477 1031.17 247.945 1031.17C246.242 1031.17 244.727 1031.39 243.398 1031.83C242.086 1032.25 240.977 1032.83 240.07 1033.56C239.148 1034.3 238.445 1035.15 237.961 1036.12C237.492 1037.09 237.258 1038.11 237.258 1039.19H243.773C243.773 1038.73 243.836 1038.32 243.961 1037.95C244.102 1037.57 244.312 1037.25 244.594 1036.98C244.906 1036.69 245.312 1036.46 245.812 1036.3C246.312 1036.13 246.906 1036.05 247.594 1036.05C248.375 1036.05 249.055 1036.15 249.633 1036.35C250.227 1036.54 250.719 1036.81 251.109 1037.17C251.484 1037.52 251.766 1037.93 251.953 1038.41C252.141 1038.88 252.234 1039.41 252.234 1040.01V1041.51H248.602C246.727 1041.51 245.062 1041.68 243.609 1042.02C242.172 1042.35 240.961 1042.84 239.977 1043.48C238.883 1044.18 238.062 1045.08 237.516 1046.17C236.969 1047.25 236.695 1048.49 236.695 1049.9C236.695 1050.99 236.914 1052.01 237.352 1052.95C237.789 1053.87 238.398 1054.66 239.18 1055.34C239.961 1056.01 240.891 1056.53 241.969 1056.91C243.062 1057.28 244.258 1057.47 245.555 1057.47C246.352 1057.47 247.094 1057.39 247.781 1057.23C248.469 1057.09 249.102 1056.89 249.68 1056.62C250.242 1056.38 250.758 1056.08 251.227 1055.73C251.695 1055.39 252.109 1055.02 252.469 1054.63C252.547 1055.09 252.641 1055.52 252.75 1055.92C252.859 1056.33 252.992 1056.69 253.148 1057ZM246.938 1052.43C246.328 1052.43 245.789 1052.36 245.32 1052.22C244.867 1052.06 244.484 1051.86 244.172 1051.61C243.859 1051.34 243.617 1051.02 243.445 1050.65C243.289 1050.26 243.211 1049.84 243.211 1049.38C243.211 1048.8 243.32 1048.27 243.539 1047.79C243.758 1047.29 244.094 1046.86 244.547 1046.5C245 1046.16 245.586 1045.89 246.305 1045.7C247.023 1045.5 247.891 1045.4 248.906 1045.4H252.234V1049.76C252.047 1050.09 251.789 1050.41 251.461 1050.74C251.133 1051.05 250.742 1051.34 250.289 1051.59C249.836 1051.84 249.328 1052.04 248.766 1052.2C248.203 1052.35 247.594 1052.43 246.938 1052.43ZM278.086 1025.43H271.57V1031.64H265.781V1036.45H271.57V1047.98C271.57 1049.65 271.789 1051.09 272.227 1052.29C272.664 1053.48 273.289 1054.45 274.102 1055.22C274.898 1056 275.859 1056.58 276.984 1056.95C278.125 1057.31 279.391 1057.49 280.781 1057.49C281.5 1057.49 282.227 1057.45 282.961 1057.38C283.711 1057.31 284.43 1057.22 285.117 1057.09C285.805 1056.97 286.453 1056.81 287.062 1056.62C287.672 1056.42 288.203 1056.19 288.656 1055.92L288.023 1051.45C287.727 1051.52 287.367 1051.6 286.945 1051.68C286.539 1051.76 286.102 1051.83 285.633 1051.89C285.148 1051.97 284.641 1052.03 284.109 1052.08C283.594 1052.12 283.086 1052.15 282.586 1052.15C281.898 1052.15 281.273 1052.07 280.711 1051.91C280.164 1051.76 279.695 1051.49 279.305 1051.12C278.914 1050.76 278.609 1050.27 278.391 1049.66C278.188 1049.04 278.086 1048.27 278.086 1047.34V1036.45H287.555V1031.64H278.086V1025.43ZM296.695 1031.64V1036.96H303.914V1051.7H296.695V1057H317.367V1051.7H310.5V1031.64H296.695ZM303.445 1025.15C303.445 1025.65 303.531 1026.12 303.703 1026.55C303.891 1026.98 304.148 1027.34 304.477 1027.63C304.805 1027.95 305.195 1028.19 305.648 1028.36C306.117 1028.53 306.633 1028.62 307.195 1028.62C308.352 1028.62 309.266 1028.3 309.938 1027.66C310.625 1027 310.969 1026.16 310.969 1025.15C310.969 1024.13 310.625 1023.3 309.938 1022.66C309.266 1022.01 308.352 1021.68 307.195 1021.68C306.633 1021.68 306.117 1021.77 305.648 1021.94C305.195 1022.11 304.805 1022.34 304.477 1022.64C304.148 1022.95 303.891 1023.33 303.703 1023.77C303.531 1024.19 303.445 1024.65 303.445 1025.15ZM322.898 1044.09V1044.58C322.898 1046.44 323.164 1048.16 323.695 1049.73C324.227 1051.3 325.008 1052.66 326.039 1053.81C327.055 1054.97 328.305 1055.88 329.789 1056.53C331.289 1057.17 332.992 1057.49 334.898 1057.49C336.789 1057.49 338.477 1057.17 339.961 1056.53C341.445 1055.88 342.695 1054.97 343.711 1053.81C344.727 1052.66 345.5 1051.3 346.031 1049.73C346.562 1048.16 346.828 1046.44 346.828 1044.58V1044.09C346.828 1042.24 346.562 1040.54 346.031 1038.98C345.5 1037.4 344.727 1036.03 343.711 1034.88C342.68 1033.72 341.422 1032.81 339.938 1032.16C338.453 1031.5 336.758 1031.17 334.852 1031.17C332.945 1031.17 331.25 1031.5 329.766 1032.16C328.297 1032.81 327.055 1033.72 326.039 1034.88C325.008 1036.03 324.227 1037.4 323.695 1038.98C323.164 1040.54 322.898 1042.24 322.898 1044.09ZM329.414 1044.58V1044.09C329.414 1043.05 329.516 1042.08 329.719 1041.16C329.922 1040.23 330.242 1039.42 330.68 1038.72C331.117 1038.02 331.68 1037.46 332.367 1037.05C333.055 1036.65 333.883 1036.45 334.852 1036.45C335.836 1036.45 336.672 1036.65 337.359 1037.05C338.047 1037.46 338.609 1038.02 339.047 1038.72C339.469 1039.42 339.781 1040.23 339.984 1041.16C340.188 1042.08 340.289 1043.05 340.289 1044.09V1044.58C340.289 1045.64 340.188 1046.64 339.984 1047.58C339.781 1048.5 339.469 1049.3 339.047 1049.99C338.609 1050.7 338.047 1051.25 337.359 1051.66C336.672 1052.06 335.852 1052.27 334.898 1052.27C333.914 1052.27 333.07 1052.06 332.367 1051.66C331.68 1051.25 331.117 1050.7 330.68 1049.99C330.242 1049.3 329.922 1048.5 329.719 1047.58C329.516 1046.64 329.414 1045.64 329.414 1044.58ZM352.617 1057H359.156V1038.98C359.375 1038.63 359.617 1038.32 359.883 1038.04C360.148 1037.76 360.445 1037.52 360.773 1037.31C361.18 1037.03 361.641 1036.82 362.156 1036.68C362.688 1036.54 363.266 1036.47 363.891 1036.47C364.641 1036.47 365.312 1036.55 365.906 1036.7C366.5 1036.84 367.008 1037.1 367.43 1037.48C367.852 1037.85 368.172 1038.37 368.391 1039.02C368.625 1039.66 368.742 1040.48 368.742 1041.48V1057H375.258V1041.39C375.258 1039.55 375.039 1037.98 374.602 1036.7C374.18 1035.41 373.586 1034.34 372.82 1033.52C372.039 1032.7 371.117 1032.11 370.055 1031.73C368.992 1031.36 367.82 1031.17 366.539 1031.17C365.539 1031.17 364.594 1031.31 363.703 1031.59C362.812 1031.88 361.992 1032.28 361.242 1032.81C360.805 1033.12 360.391 1033.48 360 1033.87C359.609 1034.26 359.25 1034.69 358.922 1035.16L358.523 1031.64H352.617V1057Z" fill="white"/>
<path d="M118.443 1211.15L2.88675 1011L118.443 810.85H349.557L465.113 1011L349.557 1211.15H118.443Z" stroke="#3949AB" stroke-width="5"/>
</svg>
